<svg preserveAspectRatio="none" width="100%" height="100%" overflow="visible" style="display: block;" viewBox="0 0 87 20" fill="none" xmlns="http://www.w3.org/2000/svg">
<g id="LOGO" clip-path="url(#clip0_11031_77993)">
<path id="Vector" d="M79.6799 20.0002C75.3046 20.0002 72.3594 17.0835 72.3594 12.7232C72.3594 8.36296 75.3046 5.44629 79.6799 5.44629C84.0551 5.44629 87.0003 8.39031 87.0003 12.7232C87.0003 17.0561 84.0551 20.0002 79.6799 20.0002ZM79.6799 17.4454C82.2319 17.4454 83.9149 15.4736 83.9149 12.7232C83.9149 9.9728 82.2319 8.001 79.6799 8.001C77.1278 8.001 75.4724 9.9728 75.4724 12.7232C75.4724 15.4736 77.1278 17.4454 79.6799 17.4454Z" fill="var(--fill-0, #161627)"/>
<path id="Vector_2" d="M59.9605 5.61035H60.6342V8.41549H59.2869C56.5946 8.41549 55.7255 10.4988 55.7255 12.6937V19.8317H52.6953V5.61035H55.3876L55.7234 7.7484C56.4522 6.55311 57.6018 5.61035 59.9584 5.61035H59.9605Z" fill="var(--fill-0, #161627)"/>
<path id="Vector_3" d="M43.5122 19.9993C38.9966 19.9993 36.1641 17.11 36.1641 12.7498C36.1641 8.38949 38.9966 5.44336 43.2317 5.44336C47.4667 5.44336 50.159 8.05489 50.244 12.2216C50.244 12.5835 50.2164 12.9707 50.159 13.36H39.3324V13.5536C39.4174 15.9695 40.9601 17.554 43.3443 17.554C45.1951 17.554 46.5424 16.6365 46.9631 15.0541H49.9933C49.4875 17.8592 47.0757 19.9993 43.5143 19.9993H43.5122ZM39.445 11.1652H47.1033C46.8505 9.05447 45.3651 7.85918 43.2614 7.85918C41.3256 7.85918 39.6702 9.13654 39.4471 11.1652H39.445Z" fill="var(--fill-0, #161627)"/>
<path id="Vector_4" d="M28.2765 5.44449C31.4469 5.44449 34.0542 7.16587 34.0542 11.9176V19.8342H30.9964V12.168C30.9964 9.47437 29.8468 8.02866 27.5752 8.02866C25.1634 8.02866 23.7333 9.7795 23.7333 12.6667V19.8342H20.7031V5.61073H23.3402L23.6759 7.471C24.5727 6.35989 25.9475 5.44238 28.2765 5.44238V5.44449Z" fill="var(--fill-0, #161627)"/>
<path id="Vector_5" d="M16.2473 3.61111C15.2103 3.61111 14.3965 2.86195 14.3965 1.80556C14.3965 0.749158 15.2103 0 16.2473 0C17.2843 0 18.0982 0.749158 18.0982 1.80556C18.0982 2.86195 17.2843 3.61111 16.2473 3.61111ZM14.7046 19.8338V5.61027H17.7348V19.8317H14.7046V19.8338Z" fill="var(--fill-0, #161627)"/>
<path id="Vector_6" d="M0 19.8341V0.389648H12.5372V3.22214H3.22569V8.86187H10.9117V11.6123H3.22569V19.8341H0Z" fill="var(--fill-0, #161627)"/>
<path id="Vector_7" d="M67.7246 5.61061V1.63965H64.669V5.61061H61.541V8.42416H64.669V12.3972H67.7246V8.42416H70.8526V5.61061H67.7246Z" fill="var(--fill-0, #161627)"/>
<path id="Vector_8" fill-rule="evenodd" clip-rule="evenodd" d="M67.7316 14.2422H64.6738V15.972C64.6738 18.5562 65.8511 19.8335 68.6008 19.8335H71.4057V17.1946H69.2744C68.1248 17.1946 67.7316 16.778 67.7316 15.6669V14.2422Z" fill="var(--fill-0, #161627)"/>
</g>
<defs>
<clipPath id="clip0_11031_77993">
<rect width="87" height="20" fill="white"/>
</clipPath>
</defs>
</svg>
