<svg xmlns="http://www.w3.org/2000/svg" viewBox="0 0 168 24" width="168" height="24" fill="none">
  <svg x="40.47" y="2.59" width="116.96" height="17.15" viewBox="0 0 116.973 17.1469">
    <path d="M47.0157 2.04359e-07H44.4142V17.0795H47.0157V2.04359e-07Z" fill="#161627"/>
    <path d="M40.4961 0.0343194H39.1483V17.1139H40.4961V0.0343194Z" fill="#161627"/>
    <path d="M70.5212 0.0341797V15.3069L64.7227 0.102362V0.0341797H60.7107L60.6794 0.102362L54.8809 15.3069V0.0341797H50.9316V17.1137H54.1913H54.8809H58.2346L62.7167 5.42054L67.1675 17.1137H70.5212H71.1794H71.2107H74.5018V0.0341797H70.5212Z" fill="#161627"/>
    <path d="M116.973 10.7385C116.973 7.70446 114.841 5.31809 111.55 4.60218C110.046 4.29537 108.228 4.29537 106.692 4.60218C103.401 5.284 101.27 7.70446 101.27 10.7385C101.27 13.7726 103.401 16.159 106.692 16.8749C107.444 17.0454 108.29 17.1135 109.105 17.1135C109.952 17.1135 110.767 17.0454 111.519 16.8749C113.995 16.3635 115.813 14.8635 116.565 12.8863H113.243C112.428 13.6363 111.487 13.909 111.017 14.0113C109.826 14.2499 108.353 14.2499 107.162 14.0113C105.908 13.7385 104.686 13.0226 104.184 11.7954H116.847C116.941 11.4545 116.973 11.1135 116.973 10.7385ZM104.404 9.23855C105.156 8.01128 106.629 7.56809 107.193 7.46582C108.384 7.22718 109.858 7.22718 111.049 7.46582C112.146 7.70446 113.18 8.284 113.807 9.23855H104.404Z" fill="#161627"/>
    <path d="M8.90149 7.36284C1.94328 6.71511 1.34776 6.30602 1.34776 4.56738C1.34776 4.02193 1.41045 3.40829 2.1 2.82875C2.82089 2.21511 4.48209 1.4992 8.24328 1.4992C15.2955 1.4992 15.2955 3.34011 15.2955 4.70375V4.77193H16.6433V4.70375C16.6433 1.84011 15.2328 0.0673828 8.24328 0.0673828C4.88955 0.0673828 2.60149 0.578746 1.28507 1.66966C-2.83967e-06 2.72647 0 4.05602 0 4.56738C0 7.66965 2.1 8.14693 8.05522 8.72647C15.0761 9.47647 15.6403 10.7037 15.6403 12.1015C15.6403 13.5333 15.6403 15.6469 8.77612 15.6469C1.41045 15.6469 1.3791 13.5333 1.34776 11.6583V11.5901H0V11.6924C0.0313433 14.556 0.752239 17.1469 8.77612 17.1469C15.9851 17.1469 16.9881 14.7265 16.9881 12.1356C16.9567 9.30602 14.8881 8.07875 8.90149 7.36284Z" fill="#161627"/>
    <path d="M98.9498 8.72692C98.8871 5.18146 94.8125 4.36328 91.4274 4.36328C87.8543 4.36328 83.7483 4.80646 83.6856 8.38601C83.6543 10.0224 84.4379 11.1133 86.005 11.5906C86.914 11.8633 88.1677 11.9996 90.0797 12.136C90.0797 12.136 94.8438 12.4428 95.3453 12.6133C95.7215 12.7496 96.0035 12.9542 96.0035 13.261C96.0035 13.3633 95.9722 13.4315 95.9409 13.4996C95.9095 13.5337 95.8782 13.6019 95.8468 13.636C95.5961 13.8746 95.1259 14.011 94.7185 14.0451C94.6871 14.0451 94.6558 14.0451 94.5931 14.0451C94.3424 14.0792 89.8603 14.0792 89.3588 14.011C88.8886 13.9428 88.3558 13.8406 87.917 13.6019C87.5409 13.3974 87.1334 13.1246 87.1334 12.7156H83.6543C83.6856 14.3519 84.814 17.0792 91.5841 17.0792C95.1573 17.0792 99.2633 16.636 99.3259 13.0565C99.3573 11.4201 98.5737 10.3292 97.0065 9.85192C96.0976 9.57919 94.8438 9.44283 92.9946 9.30646C92.8065 9.30646 88.1677 8.99965 87.6976 8.82919C87.3215 8.69283 87.0394 8.48828 87.0394 8.18146C87.0394 8.07919 87.0707 8.01101 87.1021 7.94283C87.1334 7.90874 87.1647 7.84055 87.1961 7.80646C87.4468 7.56783 87.917 7.43146 88.3244 7.39737C88.3558 7.39737 88.3871 7.39737 88.4498 7.39737C88.7006 7.36328 92.9319 7.36328 93.214 7.39737C93.6528 7.43146 94.1856 7.49964 94.6244 7.73828C95.0319 7.94283 95.5021 8.24965 95.5021 8.72692H98.9498Z" fill="#161627"/>
  </svg>
  <svg x="19.52" y="1.19" width="13.04" height="22.81" viewBox="0 0 13.0388 22.8068">
    <path d="M13.0388 0H0V18.4773H6.58209L13.0388 22.8068V18.4773V0Z" fill="#161627"/>
  </svg>
  <svg x="11.69" y="1.23" width="5.22" height="18.44" viewBox="0 0 5.23433 18.4432">
    <path d="M5.23433 0H0V18.4432H5.23433V0Z" fill="#161627"/>
  </svg>
  <svg x="5.24" y="1.19" width="3.31" height="18.48" viewBox="0 0 3.32239 18.4773">
    <path d="M3.32239 0H0V18.4773H3.32239V0Z" fill="#161627"/>
  </svg>
  <svg x="0.00" y="1.23" width="1.23" height="18.44" viewBox="0 0 1.22239 18.4432">
    <path d="M1.22239 0H0V18.4432H1.22239V0Z" fill="#161627"/>
  </svg>
  <svg x="117.53" y="2.63" width="3.98" height="17.08" viewBox="0 0 3.9806 17.0798">
    <path d="M3.9806 4.97754H0V17.0798H3.9806V4.97754Z" fill="#161627"/>
    <path d="M3.9806 0H0V2.86364H3.9806V0Z" fill="#161627"/>
  </svg>
  <svg x="60.68" y="6.90" width="15.71" height="12.80" viewBox="0 0 15.703 12.8011">
    <path d="M10.0925 11.0966C8.71343 11.4034 6.98955 11.4034 5.5791 11.0966C3.66716 10.6875 1.59851 9.35795 1.3791 6.90341H15.6716C15.6716 6.73295 15.703 6.5625 15.703 6.39204C15.703 3.32386 13.6657 1.00568 10.3746 0.255682C8.80746 -0.0852273 6.89552 -0.0852273 5.32836 0.255682C2.03731 0.971591 0 3.32386 0 6.39204C0 9.46023 2.03731 11.7784 5.32836 12.5284C6.11194 12.6989 6.98955 12.8011 7.86716 12.8011C8.74477 12.8011 9.62239 12.6989 10.406 12.5284C12.7881 12.017 14.5119 10.6193 15.2642 8.74432H13.697C12.8821 10.0398 11.4716 10.7898 10.0925 11.0966ZM5.5791 1.72159C6.95821 1.41477 8.68209 1.41477 10.0925 1.72159C11.8791 2.13068 13.791 3.28977 14.2299 5.4375H1.44179C1.91194 3.28977 3.79253 2.13068 5.5791 1.72159Z" fill="#161627"/>
  </svg>
  <svg x="158.78" y="0.00" width="9.22" height="10.13" viewBox="0 0 9.21492 10.125">
    <path d="M4.60746 0C1.78656 0 0 2.35227 0 5.04545C0 7.77273 1.78656 10.125 4.60746 10.125C7.39701 10.125 9.21492 7.77273 9.21492 5.04545C9.21492 2.35227 7.39701 0 4.60746 0ZM4.60746 9.20455C2.38208 9.20455 0.877608 7.26136 0.877608 5.04545C0.877608 2.82955 2.38208 0.886364 4.60746 0.886364C6.83283 0.886364 8.30596 2.82955 8.30596 5.04545C8.30596 7.26136 6.83283 9.20455 4.60746 9.20455Z" fill="#161627"/>
  </svg>
  <svg x="161.80" y="2.42" width="3.51" height="5.18" viewBox="0 0 3.51045 5.18182">
    <path d="M2.50746 3.30682C3.0403 3 3.35374 2.45455 3.35374 1.77273C3.35374 0.784091 2.66417 0 1.53581 0H0V5.18182H1.00299V3.54545H1.5985L2.38208 5.14773H3.51045L2.50746 3.30682ZM1.5985 2.45455H1.00299V1.09091H1.5985C2.00596 1.09091 2.28806 1.36364 2.28806 1.77273C2.28806 2.18182 1.97462 2.45455 1.5985 2.45455Z" fill="#161627"/>
  </svg>
</svg>