<svg preserveAspectRatio="none" width="100%" height="100%" overflow="visible" style="display: block;" viewBox="0 0 160.001 23.8556" fill="none" xmlns="http://www.w3.org/2000/svg">
<g id="Group">
<path id="Vector" fill-rule="evenodd" clip-rule="evenodd" d="M38.5871 17.636L38.8602 17.893L39.1282 17.6408C39.5455 17.2482 40.1129 17.0268 40.7039 17.0268H45.8779V18.3833H37.8392V6.42675H39.4789V15.9282C39.4789 16.4843 39.2446 17.0173 38.8264 17.4108L38.5871 17.636ZM80.9015 6.44897H85.1051L89.8455 18.4046H88.2775L87.1958 15.7251H80.7252L79.6436 18.4046H78.0754L81.887 8.90009C82.0835 8.41067 82.5816 8.08623 83.1382 8.08623H83.1861V7.72055H81.6341L80.9015 6.44897ZM81.2117 14.4536H85.5459H86.727L84.0595 7.80542H83.8978L81.2117 14.4536ZM112.089 9.50135C109.223 9.50135 107.204 11.4178 107.204 14.114C107.204 16.8276 109.241 18.7442 112.089 18.7442C114.937 18.7442 116.974 16.8103 116.974 14.114C116.974 11.4178 114.956 9.50135 112.089 9.50135ZM112.089 10.7729C114.053 10.7729 115.477 12.1809 115.477 14.114C115.477 16.0638 114.071 17.4718 112.089 17.4718C110.107 17.4718 108.701 16.048 108.701 14.114C108.701 12.1801 110.125 10.7729 112.089 10.7729ZM150.393 14.0125C150.393 11.4012 152.412 9.50135 155.224 9.50135C158.036 9.50135 160.001 11.4012 160.001 14.0292C160.001 14.1989 160.001 14.402 159.983 14.5884H151.926C152.143 16.3185 153.476 17.4718 155.333 17.4718C156.685 17.4718 157.875 16.8276 158.451 15.81L159.695 16.4033C158.956 17.8621 157.316 18.7434 155.297 18.7434C152.449 18.7434 150.394 16.7596 150.394 14.0117L150.393 14.0125ZM158.432 13.3509C158.161 11.8081 156.881 10.7729 155.152 10.7729C153.422 10.7729 152.196 11.8073 151.943 13.3509H158.432ZM103.725 12.1738V16.1495H103.724C103.724 16.9633 104.266 17.54 105.131 17.54C105.401 17.54 105.87 17.4718 106.212 17.3703V18.5063C105.78 18.6419 105.184 18.7267 104.734 18.7267C103.202 18.7267 102.229 17.7097 102.229 16.2003V10.9601H100.751V9.84086H102.229L102.571 7.07642H103.743L103.725 9.84086H106.068V10.972L103.725 10.9601V10.972H102.676V11.3353H102.834C103.326 11.3353 103.725 11.7105 103.725 12.1738ZM146.896 16.1495V12.1738C146.896 11.7105 146.497 11.3353 146.005 11.3353H145.847V10.972H146.896V10.9601L149.239 10.972V9.84086H146.896L146.914 7.07642H145.742L145.4 9.84086H143.922V10.9601H145.4V16.2003C145.4 17.7097 146.373 18.7267 147.905 18.7267C148.355 18.7267 148.951 18.6419 149.383 18.5063V17.3703C149.041 17.4718 148.572 17.54 148.302 17.54C147.437 17.54 146.895 16.9633 146.895 16.1495H146.896ZM97.6146 14.8272V9.84086H97.6154H99.1109V18.4063H97.6154V17.2363H97.6137V16.6984H97.2277V17.0134C97.2277 17.3703 97.0699 17.7154 96.7833 17.9502C96.1156 18.4975 95.243 18.7728 94.2802 18.6989C92.3016 18.5467 90.8017 16.9474 90.8017 15.0802V9.84086H92.2973V14.9454C92.2973 16.4041 93.2349 17.4386 94.7667 17.4386C96.2986 17.4386 97.6146 16.3367 97.6146 14.8272ZM129.267 9.51801C127.897 9.51801 126.851 10.1621 126.221 11.1632H126.059C125.536 10.1629 124.364 9.50135 123.084 9.50135C122.293 9.50135 121.605 9.7647 121.085 10.2002C120.804 10.4358 120.649 10.7769 120.649 11.1307V11.5304H120.255V9.84086H118.813V18.4055H120.309V13.2835C120.309 11.774 121.282 10.7737 122.761 10.7737C124.24 10.7737 125.104 11.774 125.104 13.2835V18.4055H126.599V13.2835C126.599 11.8247 127.627 10.7737 129.086 10.7737C130.456 10.7737 131.448 11.8247 131.448 13.2835V18.4055H132.943V13.301C132.943 11.0791 131.411 9.5188 129.267 9.5188V9.51801ZM134.819 12.4855C134.819 10.6714 136.316 9.51803 138.605 9.51803V9.51882C140.965 9.51882 142.462 10.7737 142.462 12.7243V18.4055H140.965V16.6136H140.565V16.965C140.565 17.3259 140.405 17.6757 140.112 17.9089C139.485 18.4086 138.655 18.676 137.631 18.676C135.666 18.676 134.368 17.7423 134.368 16.2336C134.368 14.7249 135.738 13.6048 138.442 13.3169L140.965 13.0289V12.6894C140.965 11.536 140.082 10.7896 138.586 10.7896C137.217 10.7896 136.316 11.417 136.333 12.4855H134.819ZM137.847 17.506C139.704 17.506 140.965 16.4375 140.965 14.9962H140.964V14.2331L138.441 14.5043C136.584 14.7249 135.864 15.3864 135.864 16.2003C135.864 17.0142 136.621 17.506 137.847 17.506ZM60.2269 10.9498H62.5698L62.5697 9.81867H60.2269L60.2445 7.05422H59.0727L58.7304 9.81867H57.2524V10.9379H58.7304V16.1781C58.7304 17.6876 59.7041 18.7046 61.2359 18.7046C61.6862 18.7046 62.2815 18.6196 62.7139 18.4841V17.3482C62.3716 17.4496 61.9028 17.5179 61.6323 17.5179C60.7673 17.5179 60.226 16.9412 60.226 16.1273H60.2269V12.1516C60.2269 11.6883 59.8281 11.3131 59.3358 11.3131H59.1772V10.9498L60.2269 10.9498ZM70.2994 13.3932L70.2999 13.3932C70.3605 13.4 70.4216 13.4067 70.4829 13.4136L70.4845 13.4128C72.1969 13.6167 74.1611 14.0236 74.1611 16.0758C74.1611 17.7542 72.7735 18.7212 70.4483 18.7212C67.8347 18.7212 66.3206 17.5179 66.3206 15.4824H67.7622C67.7808 16.7032 68.79 17.5346 70.5022 17.5346C71.8714 17.5346 72.7549 16.9919 72.7549 16.0932C72.7549 15.036 71.6456 14.9016 70.368 14.747C70.293 14.7379 70.2173 14.7287 70.1415 14.7193C68.4468 14.5329 66.4826 14.1093 66.4826 12.1587C66.4826 10.4969 67.8711 9.47916 70.1415 9.47916C72.4119 9.47916 73.9622 10.6151 73.9622 12.3792H72.502C72.4844 11.3282 71.5291 10.6666 70.1229 10.6666C68.8069 10.6666 67.9055 11.2259 67.9055 12.108C67.9055 13.1279 69.0216 13.2516 70.2994 13.3932ZM65.018 7.69913V7.91014L64.8216 8.09495C64.4775 8.4186 64.2845 8.85646 64.2845 9.31417V10.9752C65.0288 10.9752 65.6325 10.4073 65.6325 9.70683V6.91145H64.2845V7.69913H65.018ZM46.8329 13.9903C46.8329 11.379 48.8522 9.47916 51.6638 9.47916L51.663 9.47995C54.4392 9.47995 56.4398 11.379 56.4398 14.0078C56.4398 14.1767 56.4398 14.3806 56.422 14.567H48.3648C48.5815 16.2971 49.9153 17.4505 51.7717 17.4505C53.124 17.4505 54.3136 16.8063 54.8902 15.7886L56.1337 16.3819C55.3944 17.84 53.7537 18.7221 51.7355 18.7221C48.8875 18.7221 46.8329 16.7372 46.8329 13.9903ZM51.5922 10.7507C49.9153 10.7507 48.6354 11.7859 48.3834 13.3288H54.8725C54.6018 11.7851 53.2689 10.7507 51.5922 10.7507Z" fill="var(--fill-0, #161627)"/>
<path id="Vector_2" d="M19.7573 0V10.0985C18.884 6.3997 16.5691 0 16.5691 0H10.8466C11.7901 3.54648 13.1722 7.31739 13.7132 9.68571H13.7047C13.1403 8.19698 11.8816 5.90881 9.05976 2.44647C8.33992 1.56486 7.62434 0.733341 6.97479 0H0C4.14228 4.19767 8.56355 9.91012 8.56355 11.9278C8.56355 13.9455 4.14228 19.6579 0 23.8556H6.97479C7.62647 23.1222 8.34206 22.2907 9.05976 21.4091C11.8135 18.029 13.0806 15.7688 13.6621 14.2781C13.0892 16.6545 11.675 20.3693 10.7018 23.8556H16.4371C16.4371 23.8556 18.7883 17.8466 19.7169 14.232L19.5463 23.8556H25.3541V0H19.7573Z" fill="var(--fill-0, #161627)"/>
</g>
</svg>
