<svg xmlns="http://www.w3.org/2000/svg" viewBox="0 0 192 22" width="192" height="22" fill="none">
  <svg x="22.50" y="0.34" width="16.49" height="21.92" viewBox="0 0 16.485 21.9237">
    <path d="M0.0568298 0L9.05705 2.72547V19.1808L0 21.9237H16.485V0H0.0568298Z" fill="#161627"/>
  </svg>
  <svg x="13.75" y="3.07" width="5.95" height="17.83" viewBox="0 0 5.94332 17.8268">
    <path d="M5.94332 0H0V17.8268H5.94332V0Z" fill="#161627"/>
  </svg>
  <svg x="6.34" y="4.44" width="3.82" height="15.09" viewBox="0 0 3.82646 15.0904">
    <path d="M3.82646 0H0V15.0904H3.82646V0Z" fill="#161627"/>
  </svg>
  <svg x="0.38" y="5.81" width="1.50" height="12.34" viewBox="0 0 1.48228 12.3387">
    <path d="M1.48228 0H0V12.3387H1.48228V0Z" fill="#161627"/>
  </svg>
  <svg x="106.06" y="3.06" width="26.86" height="16.46" viewBox="0 0 26.8562 16.4575">
    <path d="M22.336 0V14.7132L15.7344 0.0697722L15.7036 0H11.1526L11.1218 0.0697722L4.52261 14.711V0H0V16.4575H3.73411H4.52261H8.34669L13.4281 5.18712L18.5095 16.4575H22.336H23.0842H23.1221H26.8562V0H22.336Z" fill="#161627"/>
  </svg>
  <svg x="163.43" y="7.24" width="17.86" height="12.26" viewBox="0 0 17.8702 12.2597">
    <path d="M17.8702 6.13067C17.8702 3.21333 15.4455 0.89777 11.6925 0.230575C9.96631 -0.0768583 7.9039 -0.0768583 6.17773 0.230575C2.42468 0.89777 0 3.21333 0 6.13067C0 9.0502 2.42468 11.3658 6.17773 12.0308C7.042 12.1834 7.98677 12.2597 8.93392 12.2597C9.88106 12.2597 10.8282 12.1834 11.6901 12.0308C14.5031 11.5315 16.5679 10.1055 17.4274 8.19331H13.6602C12.7509 8.90193 11.6617 9.18974 11.1337 9.2835C9.77452 9.52552 8.08859 9.52552 6.72944 9.2835C5.29215 9.02839 3.89275 8.34594 3.32684 7.16199H17.7589C17.8276 6.82839 17.8655 6.48389 17.8655 6.13067H17.8702ZM3.55415 4.69163C4.40185 3.51422 6.07355 3.09559 6.73418 2.97785C8.09333 2.73583 9.77924 2.73583 11.1384 2.97785C12.4028 3.20243 13.5749 3.75624 14.2616 4.69163H3.55415Z" fill="#161627"/>
  </svg>
  <svg x="143.31" y="7.22" width="17.88" height="12.29" viewBox="0 0 17.8689 12.2908">
    <path d="M17.4558 4.20159C17.4014 0.780575 12.7485 0 8.87472 0C4.80674 0 0.127872 0.440436 0.0521004 3.88325C0.0165825 5.47493 0.90216 6.51497 2.68516 6.97502C3.71517 7.24103 5.15482 7.37185 7.32378 7.51576C7.32378 7.51576 12.7556 7.80575 13.3074 7.96273C13.7217 8.08266 14.058 8.27453 14.058 8.59286C14.058 8.68226 14.0319 8.76293 13.9869 8.83489C13.9561 8.88285 13.9183 8.92646 13.8733 8.96571C13.5962 9.20773 13.0564 9.31457 12.5875 9.36036C12.5473 9.36472 12.5023 9.36908 12.4597 9.37126C12.1826 9.39306 7.07042 9.3887 6.50923 9.33201C5.95989 9.2775 5.35373 9.1663 4.86122 8.94609C4.435 8.75639 3.98037 8.49257 3.9709 8.0892H0C0.0284143 9.66561 1.30469 12.2908 9.04521 12.2908C13.1132 12.2908 17.7921 11.8503 17.8678 8.40971C17.9034 6.81804 17.0178 5.778 15.2348 5.31794C14.2142 5.05411 12.7888 4.92329 10.653 4.78157C10.4565 4.76848 5.16429 4.4894 4.61258 4.33023C4.1982 4.21031 3.86197 4.01843 3.86197 3.7001C3.86197 3.60852 3.88802 3.53003 3.93301 3.45808C3.96379 3.41011 4.00168 3.3665 4.04667 3.32507C4.32371 3.08305 4.86358 2.97621 5.33242 2.93043C5.37267 2.92389 5.41765 2.9217 5.46028 2.91952C5.73495 2.89772 10.5583 2.8999 10.8779 2.91952C11.3728 2.95223 11.9719 3.03072 12.4786 3.23568C12.9522 3.42537 13.4707 3.73281 13.4873 4.19723" fill="#161627"/>
  </svg>
  <svg x="135.86" y="7.86" width="4.53" height="11.66" viewBox="0 0 4.52023 11.6563">
    <path d="M4.52023 0H0V11.6563H4.52023V0Z" fill="#161627"/>
  </svg>
  <svg x="135.86" y="3.06" width="4.53" height="2.77" viewBox="0 0 4.52023 2.77126">
    <path d="M4.52023 0H0V2.77126H4.52023V0Z" fill="#161627"/>
  </svg>
  <svg x="28.57" y="10.31" width="1.54" height="1.98" viewBox="0 0 1.52964 1.98414">
    <path d="M0.764817 1.98414C1.18721 1.98414 1.52964 1.53998 1.52964 0.992071C1.52964 0.444165 1.18721 0 0.764817 0C0.34242 0 0 0.444165 0 0.992071C0 1.53998 0.34242 1.98414 0.764817 1.98414Z" fill="#161627"/>
  </svg>
  <svg x="47.83" y="3.07" width="17.89" height="16.45" viewBox="0 0 17.901 16.4488">
    <path d="M16.2103 7.34351H1.69065V0H0V16.4488H1.69065V8.71497H16.2103V16.4488H17.901V0H16.2103V7.34351Z" fill="#161627"/>
  </svg>
  <svg x="70.20" y="7.87" width="1.54" height="11.64" viewBox="0 0 1.54148 11.6432">
    <path d="M1.54148 0H0V11.6432H1.54148V0Z" fill="#161627"/>
  </svg>
  <svg x="76.22" y="7.55" width="8.93" height="11.96" viewBox="0 0 8.91972 11.9637">
    <path d="M7.11778 0.00218001C4.43263 0.00218001 2.36786 1.41506 1.4657 3.82002V0.320515H0V11.9637H1.54148V7.72071C1.54148 5.5774 2.16659 3.84618 3.34815 2.71239C4.28346 1.80099 5.4295 1.39544 7.06805 1.39544C7.76894 1.39544 8.18095 1.41506 8.78475 1.53062L8.91972 1.55679V0.178791L8.83211 0.161347C8.12412 0.0218033 7.74763 0 7.12015 0L7.11778 0.00218001Z" fill="#161627"/>
  </svg>
  <svg x="70.10" y="3.07" width="1.80" height="2.73" viewBox="0 0 1.80904 2.73201">
    <path d="M1.80904 0H0V2.73201H1.80904V0Z" fill="#161627"/>
  </svg>
  <svg x="86.28" y="7.10" width="16.78" height="12.52" viewBox="0 0 16.7715 12.5154">
    <path d="M15.1377 8.39445L15.1069 8.45114C14.1148 10.2696 11.8345 11.2311 8.50771 11.2311C6.41215 11.2442 4.67178 10.8081 3.48075 9.9774C2.33708 9.17938 1.69538 8.00852 1.61961 6.5891H16.7194V5.93717C16.7194 4.12309 15.938 2.61427 14.4581 1.57423C12.9924 0.545094 10.8756 0 8.33486 0C3.19424 0 0 2.39841 0 6.25768C0 10.1169 3.26054 12.5154 8.50771 12.5154C12.5331 12.5154 15.3177 11.2442 16.5584 8.83925L16.7715 8.39663H15.1353L15.1377 8.39445ZM15.1022 5.39643H1.62198C1.83509 2.86065 4.51314 1.16432 8.33486 1.16432C12.3934 1.16432 15.0335 2.82141 15.1022 5.39643Z" fill="#161627"/>
  </svg>
  <svg x="181.90" y="0.27" width="10.48" height="9.76" viewBox="0 0 10.4849 9.75937">
    <path d="M5.24953 0C2.04109 0 0 2.26759 0 4.87314C0 7.47869 2.04109 9.75937 5.24953 9.75937C8.45798 9.75937 10.4849 7.49177 10.4849 4.87314C10.4849 2.25451 8.42957 0 5.24953 0ZM5.24953 8.88067C2.70409 8.88067 1.00871 6.99247 1.00871 4.87096C1.00871 2.74946 2.70409 0.876511 5.24953 0.876511C7.79498 0.876511 9.47615 2.74727 9.47615 4.87096C9.47615 6.99465 7.78077 8.88067 5.24953 8.88067Z" fill="#161627"/>
  </svg>
  <svg x="185.34" y="2.61" width="3.99" height="4.98" viewBox="0 0 3.98509 4.98216">
    <path d="M2.84615 3.17899C3.46416 2.889 3.80987 2.35699 3.80987 1.70942C3.80987 0.741328 3.01901 0 1.738 0H0V4.98216H1.13657V3.40575H1.82561L2.70409 4.956H3.98509L2.84852 3.18117L2.84615 3.17899ZM1.80903 2.35699L1.1342 2.37007V1.04658L1.80903 1.05966C2.2684 1.05966 2.5999 1.31041 2.5999 1.70942C2.5999 2.10842 2.2684 2.35917 1.80903 2.35917V2.35699Z" fill="#161627"/>
  </svg>
</svg>