<svg preserveAspectRatio="none" width="100%" height="100%" overflow="visible" style="display: block;" viewBox="0 0 146 19.9999" fill="none" xmlns="http://www.w3.org/2000/svg">
<g id="Group">
<g id="Group_2">
<path id="Vector" d="M50.9236 2.51953H48.7171L41.2227 17.5235H42.7304L44.5789 13.6631H55.0599L56.9102 17.5235H58.418L50.9236 2.51953ZM50.3139 3.7387L54.4753 12.43H45.1615L49.3306 3.7387H50.312H50.3139Z" fill="var(--fill-0, #161627)"/>
<path id="Vector_2" d="M71.7358 2.49805V9.41929C70.6035 7.53782 68.5015 6.5056 65.7762 6.5056C61.638 6.5056 58.9631 8.74506 58.9631 12.2136C58.9631 15.6822 61.6845 17.9217 65.7356 17.9217C68.4937 17.9217 70.6093 16.9113 71.7358 15.0657V17.5239H72.9474V2.49805H71.7358ZM71.7571 12.1082V12.4006C71.7571 14.9205 69.328 16.7502 65.9795 16.7502C62.631 16.7502 60.3045 15.012 60.3045 12.2117C60.3045 9.41133 62.3813 7.67307 65.8575 7.67307C69.3338 7.67307 71.7571 9.53862 71.7571 12.1062V12.1082Z" fill="var(--fill-0, #161627)"/>
</g>
<path id="Vector_3" d="M36.399 1.25293H21.834V13.7569H36.399V1.25293Z" fill="var(--fill-0, #161627)"/>
<g id="Group_3">
<path id="Vector_4" d="M136.85 11.891C136.85 9.22991 134.868 7.11774 131.8 6.50915C130.389 6.22872 128.703 6.22872 127.292 6.50915C124.224 7.11774 122.242 9.22991 122.242 11.891C122.242 14.5541 124.224 16.6663 127.292 17.2729C127.999 17.4121 128.771 17.4817 129.545 17.4817C130.319 17.4817 131.093 17.4121 131.798 17.2729C134.097 16.8174 135.785 15.5167 136.488 13.7725H133.408C132.665 14.4189 131.775 14.6814 131.343 14.7669C130.232 14.9877 128.854 14.9877 127.743 14.7669C126.568 14.5342 125.424 13.9117 124.962 12.8317H136.759C136.815 12.5274 136.846 12.2132 136.846 11.891H136.85ZM125.147 10.5784C125.84 9.50438 127.207 9.12252 127.747 9.01512C128.858 8.79435 130.236 8.79435 131.347 9.01512C132.381 9.21997 133.339 9.72514 133.9 10.5784H125.147Z" fill="var(--fill-0, #161627)"/>
<g id="Group_4">
<path id="Vector_5" d="M93.6174 15.9062L88.223 2.55095L88.1959 2.4873H84.4777L84.4506 2.55095L79.0563 15.9062V2.4873H75.3613V17.4973H78.4117H79.0563H82.1841L86.3359 7.21682L90.4895 17.4973H93.6174H94.229H94.26H97.3123V2.4873H93.6174V15.9062Z" fill="var(--fill-0, #161627)"/>
<path id="Vector_6" d="M118.266 11.1351C117.432 10.8944 116.266 10.7751 114.52 10.6458C114.36 10.6339 110.034 10.3793 109.583 10.2341C109.244 10.1247 108.969 9.94972 108.969 9.65935C108.969 9.57582 108.991 9.50422 109.027 9.43859C109.053 9.39483 109.084 9.35505 109.12 9.31727C109.347 9.0965 109.788 8.99905 110.171 8.95728C110.204 8.95132 110.241 8.94933 110.276 8.94734C110.5 8.92745 114.443 8.92944 114.704 8.94734C115.109 8.97717 115.599 9.04877 116.013 9.23572C116.4 9.40875 116.824 9.68918 116.837 10.1128H120.079C120.035 6.99229 116.232 6.28027 113.065 6.28027C109.74 6.28027 105.915 6.68202 105.853 9.82244C105.824 11.2743 106.548 12.223 108.005 12.6426C108.847 12.8853 110.024 13.0046 111.797 13.1359C111.797 13.1359 116.237 13.4004 116.688 13.5436C117.027 13.653 117.302 13.828 117.302 14.1184C117.302 14.1999 117.281 14.2735 117.244 14.3391C117.219 14.3829 117.188 14.4227 117.151 14.4585C116.924 14.6792 116.483 14.7767 116.1 14.8185C116.067 14.8224 116.03 14.8264 115.995 14.8284C115.769 14.8483 111.59 14.8443 111.131 14.7926C110.682 14.7429 110.187 14.6415 109.784 14.4406C109.436 14.2675 109.064 14.0269 109.056 13.659H105.811C105.834 15.0969 106.877 17.4915 113.204 17.4915C116.53 17.4915 120.354 17.0897 120.416 13.9513C120.445 12.4994 119.721 11.5508 118.264 11.1311L118.266 11.1351Z" fill="var(--fill-0, #161627)"/>
<path id="Vector_7" d="M103.41 6.86426H99.7148V17.4967H103.41V6.86426Z" fill="var(--fill-0, #161627)"/>
<path id="Vector_8" d="M103.41 2.4873H99.7149V5.01515H103.41V2.4873Z" fill="var(--fill-0, #161627)"/>
</g>
</g>
<path id="Vector_9" d="M21.831 13.7568H13.334V19.9999H21.831V13.7568Z" fill="var(--fill-0, #161627)"/>
<path id="Vector_10" d="M13.3323 8.73128H6.05077V13.7571H13.3323V8.73128Z" fill="var(--fill-0, #161627)"/>
<path id="Vector_11" d="M6.05051 13.7568H0V16.2588H6.05051V13.7568Z" fill="var(--fill-0, #161627)"/>
<g id="Group_5">
<path id="Vector_12" d="M141.721 0C139.098 0 137.43 2.06842 137.43 4.44511C137.43 6.8218 139.098 8.90215 141.721 8.90215C144.343 8.90215 146 6.83373 146 4.44511C146 2.05648 144.32 0 141.721 0ZM141.723 8.10064C139.642 8.10064 138.256 6.37828 138.256 4.44312C138.256 2.50796 139.642 0.799523 141.723 0.799523C143.803 0.799523 145.178 2.50597 145.178 4.44312C145.178 6.38027 143.792 8.10064 141.723 8.10064Z" fill="var(--fill-0, #161627)"/>
<path id="Vector_13" d="M142.563 5.03762C143.068 4.7731 143.351 4.28782 143.351 3.69713C143.351 2.81407 142.704 2.13786 141.657 2.13786H140.236V6.68241H141.166V5.24446H141.729L142.447 6.65854H143.494L142.565 5.03961L142.563 5.03762ZM141.715 4.28782L141.164 4.29975V3.09251L141.715 3.10444C142.091 3.10444 142.362 3.33316 142.362 3.69713C142.362 4.06109 142.091 4.28981 141.715 4.28981V4.28782Z" fill="var(--fill-0, #161627)"/>
</g>
</g>
</svg>
