<svg preserveAspectRatio="none" width="100%" height="100%" overflow="visible" style="display: block;" viewBox="0 0 213.011 20" fill="none" xmlns="http://www.w3.org/2000/svg">
<g id="irsm_logo_full_black_1 1">
<path id="Vector" d="M103.084 1.35913H75.041V7.0939H103.084V1.35913Z" fill="var(--fill-0, #161627)"/>
<path id="Vector_2" d="M103.084 11.6819H75.041V17.4166H103.084V11.6819Z" fill="var(--fill-0, #161627)"/>
<path id="Vector_3" d="M110.059 0.220703H111.185V7.08236H110.059V0.220703Z" fill="var(--fill-0, #161627)"/>
<path id="Vector_4" d="M116.998 4.28968V7.08394H115.929V4.37713C115.929 3.42659 115.528 2.91619 114.733 2.91619C113.89 2.91619 113.39 3.53412 113.39 4.55347V7.08251H112.332V2.06315H113.254L113.372 2.71979C113.686 2.32695 114.166 2.00437 114.979 2.00437C116.087 2.00437 116.998 2.61226 116.998 4.28824V4.28968Z" fill="var(--fill-0, #161627)"/>
<path id="Vector_5" d="M118.781 5.4265C118.82 5.94549 119.271 6.31825 120.036 6.31825C120.693 6.31825 121.124 6.06306 121.124 5.66161C121.124 5.12255 120.664 5.08384 119.888 4.98492C118.741 4.84728 117.839 4.60212 117.839 3.56269C117.839 2.61215 118.693 1.99424 119.898 2.00427C121.134 2.00427 122.006 2.57344 122.074 3.6014H121.035C120.977 3.14118 120.544 2.81717 119.919 2.81717C119.292 2.81717 118.879 3.07237 118.879 3.47381C118.879 3.94406 119.359 4.00284 120.084 4.08169C121.231 4.21932 122.164 4.45445 122.164 5.57129C122.164 6.53187 121.252 7.13976 120.036 7.13976C118.693 7.13976 117.772 6.5118 117.742 5.42363H118.781V5.4265Z" fill="var(--fill-0, #161627)"/>
<path id="Vector_6" d="M123.348 2.99497H122.477V2.06307H123.348V0.662354H124.416V2.06307H125.642V2.99497H124.416V5.6129C124.416 6.00429 124.554 6.15196 124.955 6.15196H125.7V7.08386H124.72C123.759 7.08386 123.348 6.63225 123.348 5.72185V2.99497Z" fill="var(--fill-0, #161627)"/>
<path id="Vector_7" d="M125.877 2.06299H127.004L128.406 5.87661L129.768 2.06299H130.895L128.621 7.86658C128.307 8.68091 128.092 9.04363 127.357 9.04363H126.22V8.11174H126.965C127.377 8.11174 127.476 8.01425 127.632 7.60134L127.829 7.11102L125.877 2.06299Z" fill="var(--fill-0, #161627)"/>
<path id="Vector_8" d="M131.907 2.99497H131.035V2.06307H131.907V0.662354H132.975V2.06307H134.201V2.99497H132.975V5.6129C132.975 6.00429 133.113 6.15196 133.515 6.15196H134.26V7.08386H133.279C132.319 7.08386 131.907 6.63225 131.907 5.72185V2.99497Z" fill="var(--fill-0, #161627)"/>
<path id="Vector_9" d="M138.375 2.06299H139.433V7.08234H138.501L138.383 6.44578C138.069 6.82858 137.609 7.14113 136.835 7.14113C135.767 7.14113 134.855 6.57196 134.855 4.85726V2.06299H135.914V4.7397C135.914 5.72034 136.306 6.2207 137.08 6.2207C137.854 6.2207 138.375 5.61282 138.375 4.57339V2.06299Z" fill="var(--fill-0, #161627)"/>
<path id="Vector_10" d="M140.864 2.99497H139.992V2.06307H140.864V0.662354H141.932V2.06307H143.158V2.99497H141.932V5.6129C141.932 6.00429 142.07 6.15196 142.471 6.15196H143.217V7.08386H142.236C141.275 7.08386 140.864 6.63225 140.864 5.72185V2.99497Z" fill="var(--fill-0, #161627)"/>
<path id="Vector_11" d="M146.51 0.220724H149.215C150.646 0.220724 151.606 1.07377 151.606 2.40711C151.606 3.32897 151.077 4.06302 150.273 4.34832L151.725 7.08381H150.47L149.146 4.59348H147.637V7.08381H146.51V0.220724ZM147.637 1.20137V3.61284H149.127C149.931 3.61284 150.449 3.14259 150.449 2.40711C150.449 1.67162 149.931 1.20137 149.127 1.20137H147.637Z" fill="var(--fill-0, #161627)"/>
<path id="Vector_12" d="M152.088 4.57336C152.088 3.04362 153.118 2.00562 154.647 2.00562C156.177 2.00562 157.206 3.04505 157.206 4.57336C157.206 6.10168 156.177 7.1411 154.647 7.1411C153.118 7.1411 152.088 6.11171 152.088 4.57336ZM156.127 4.57336C156.127 3.60275 155.539 2.90741 154.647 2.90741C153.756 2.90741 153.176 3.60275 153.176 4.57336C153.176 5.54397 153.755 6.23931 154.647 6.23931C155.541 6.23931 156.127 5.54397 156.127 4.57336Z" fill="var(--fill-0, #161627)"/>
<path id="Vector_13" d="M157.616 2.06299H161.724V2.81712L158.921 6.15045H161.851V7.08234H157.498V6.32822L160.302 2.99489H157.617V2.06299H157.616Z" fill="var(--fill-0, #161627)"/>
<path id="Vector_14" d="M162.037 2.06299H163.154L164.301 5.90529L165.448 2.06299H166.419L167.517 5.90529L168.703 2.06299H169.78L168.115 7.08234H166.978L165.92 3.67159L164.821 7.08234H163.675L162.037 2.06299Z" fill="var(--fill-0, #161627)"/>
<path id="Vector_15" d="M169.976 4.57347C169.976 3.04373 171.005 2.00573 172.535 2.00573C174.066 2.00573 175.095 3.04516 175.095 4.57347C175.095 6.1018 174.066 7.14122 172.535 7.14122C171.005 7.14122 169.976 6.11183 169.976 4.57347ZM174.015 4.57347C174.015 3.60287 173.427 2.90753 172.535 2.90753C171.644 2.90753 171.065 3.60287 171.065 4.57347C171.065 5.54409 171.642 6.23943 172.535 6.23943C173.429 6.23943 174.015 5.54409 174.015 4.57347Z" fill="var(--fill-0, #161627)"/>
<path id="Vector_16" d="M174.906 8.11188H175.476C175.848 8.11188 176.005 7.94557 176.005 7.56277V2.06313H177.063V7.64162C177.063 8.54342 176.631 9.04377 175.691 9.04377H174.906V8.11188ZM175.887 0.721195C175.887 0.348434 176.171 0.0846354 176.534 0.0846354C176.897 0.0846354 177.181 0.349869 177.181 0.721195C177.181 1.09252 176.897 1.35775 176.534 1.35775C176.171 1.35775 175.887 1.09252 175.887 0.721195Z" fill="var(--fill-0, #161627)"/>
<path id="Vector_17" d="M181.544 2.06306H182.602V7.08242H181.67L181.553 6.44586C181.239 6.82866 180.779 7.1412 180.004 7.1412C178.935 7.1412 178.024 6.57203 178.024 4.85733V2.06306H179.082V4.73977C179.082 5.72042 179.475 6.22077 180.249 6.22077C181.024 6.22077 181.544 5.61289 181.544 4.57346V2.06306Z" fill="var(--fill-0, #161627)"/>
<path id="Vector_18" d="M110.92 15.7433C110.979 16.5476 111.606 17.0868 112.568 17.0868C113.381 17.0868 113.97 16.724 113.97 16.0674C113.97 15.3419 113.254 15.1857 112.166 14.9892C111.029 14.7928 109.951 14.4301 109.951 13.0681C109.951 11.8724 110.931 11.0581 112.392 11.0581C113.961 11.0581 114.942 11.9111 114.99 13.1756H113.863C113.774 12.4803 113.227 12.0086 112.392 12.0086C111.618 12.0086 111.08 12.3427 111.08 12.9892C111.08 13.6946 111.785 13.8423 112.862 14.0287C114 14.2352 115.108 14.5978 115.098 15.9498C115.098 17.1857 114.069 18.0373 112.559 18.0373C110.853 18.0373 109.824 17.0968 109.785 15.7233L110.922 15.7433H110.92Z" fill="var(--fill-0, #161627)"/>
<path id="Vector_19" d="M121.035 15.4694C121.035 17.0177 120.036 18.0371 118.663 18.0371C117.888 18.0371 117.349 17.7231 117.035 17.273V19.9397H115.977V12.9604H116.899L117.026 13.7059C117.359 13.2644 117.88 12.9016 118.664 12.9016C120.036 12.9016 121.037 13.8623 121.037 15.4694H121.035ZM119.957 15.4694C119.957 14.4787 119.369 13.8034 118.486 13.8034C117.602 13.8034 117.025 14.4801 117.025 15.4508C117.025 16.4214 117.602 17.1468 118.486 17.1468C119.369 17.1468 119.957 16.4515 119.957 15.4709V15.4694Z" fill="var(--fill-0, #161627)"/>
<path id="Vector_20" d="M124.664 12.9592V13.9499H124.194C123.253 13.9499 122.949 14.6854 122.949 15.4596V17.9786H121.891V12.9592H122.831L122.949 13.7133C123.205 13.2918 123.606 12.9592 124.428 12.9592H124.664Z" fill="var(--fill-0, #161627)"/>
<path id="Vector_21" d="M125.065 12.9591H129.172V13.7132L126.37 17.0466H129.3V17.9785H124.947V17.2243L127.752 13.891H125.067V12.9591H125.065Z" fill="var(--fill-0, #161627)"/>
<path id="Vector_22" d="M129.623 15.4795C129.623 13.9311 130.613 12.9016 132.093 12.9016C133.573 12.9016 134.514 13.8235 134.543 15.293C134.543 15.4206 134.533 15.5583 134.513 15.6945H130.73V15.7633C130.76 16.6163 131.298 17.1755 132.132 17.1755C132.778 17.1755 133.249 16.8515 133.396 16.2938H134.454C134.278 17.2844 133.435 18.0386 132.191 18.0386C130.612 18.0386 129.623 17.0192 129.623 15.4795ZM133.447 14.9203C133.357 14.1747 132.839 13.7532 132.104 13.7532C131.426 13.7532 130.849 14.2048 130.769 14.9203H133.447Z" fill="var(--fill-0, #161627)"/>
<path id="Vector_23" d="M139.21 11.1169H140.268V17.9786H139.347L139.219 17.2245C138.895 17.666 138.376 18.0374 137.581 18.0374C136.22 18.0374 135.209 17.0767 135.209 15.4696C135.209 13.8624 136.218 12.9019 137.581 12.9019C138.346 12.9019 138.884 13.2159 139.209 13.656V11.1169H139.21ZM139.22 15.4896C139.22 14.4904 138.642 13.8036 137.76 13.8036C136.876 13.8036 136.298 14.4904 136.298 15.4696C136.298 16.4488 136.876 17.1455 137.76 17.1455C138.642 17.1455 139.22 16.4589 139.22 15.4882V15.4896Z" fill="var(--fill-0, #161627)"/>
<path id="Vector_24" d="M146.109 17.058V17.9798H145.55C144.864 17.9798 144.629 17.6758 144.629 17.1755C144.296 17.6859 143.786 18.0386 142.972 18.0386C141.873 18.0386 141.109 17.4995 141.109 16.5676C141.109 15.5382 141.855 14.9604 143.256 14.9604H144.52V14.6565C144.52 14.0973 144.118 13.7547 143.421 13.7547C142.793 13.7547 142.372 14.0486 142.294 14.4902H141.256C141.363 13.5096 142.206 12.9016 143.471 12.9016C144.804 12.9016 145.567 13.5382 145.567 14.7253V16.7354C145.567 16.9905 145.675 17.0594 145.892 17.0594H146.107L146.109 17.058ZM144.521 15.7446H143.208C142.551 15.7446 142.189 15.9898 142.189 16.5002C142.189 16.9217 142.542 17.2156 143.12 17.2156C144.002 17.2156 144.513 16.6967 144.522 15.921V15.7446H144.521Z" fill="var(--fill-0, #161627)"/>
<path id="Vector_25" d="M146.561 12.9592H150.668V13.7133L147.865 17.0467H150.796V17.9786H146.443V17.2244L149.247 13.8911H146.562V12.9592H146.561ZM147.981 11.6158C147.981 11.2431 148.265 10.9792 148.628 10.9792C148.991 10.9792 149.275 11.2445 149.275 11.6158C149.275 11.9872 148.991 12.2524 148.628 12.2524C148.265 12.2524 147.981 11.9872 147.981 11.6158Z" fill="var(--fill-0, #161627)"/>
<path id="Vector_26" d="M150.961 12.9592H152.088L153.49 16.7728L154.852 12.9592H155.979L153.705 18.7628C153.391 19.5771 153.176 19.9399 152.441 19.9399H151.304V19.0079H152.049C152.461 19.0079 152.56 18.9104 152.716 18.4975L152.913 18.0072L150.961 12.9592Z" fill="var(--fill-0, #161627)"/>
<path id="Vector_27" d="M158.92 11.6173C158.92 11.2445 159.204 10.9807 159.566 10.9807C159.929 10.9807 160.212 11.246 160.212 11.6173C160.212 11.9886 159.929 12.2538 159.566 12.2538C159.204 12.2538 158.92 11.9886 158.92 11.6173ZM159.027 12.9606H160.086V17.98H159.027V12.9606Z" fill="var(--fill-0, #161627)"/>
<path id="Vector_28" d="M163.742 11.1169H165.203L167.399 16.5176L169.556 11.1169H170.986V17.9786H169.898V12.9305L167.84 17.9786H166.889L164.83 12.9305V17.9786H163.742V11.1169Z" fill="var(--fill-0, #161627)"/>
<path id="Vector_29" d="M176.939 17.058V17.9798H176.379C175.692 17.9798 175.457 17.6758 175.457 17.1755C175.125 17.6859 174.614 18.0386 173.8 18.0386C172.702 18.0386 171.938 17.4995 171.938 16.5676C171.938 15.5382 172.683 14.9604 174.084 14.9604H175.348V14.6565C175.348 14.0973 174.947 13.7547 174.25 13.7547C173.622 13.7547 173.201 14.0486 173.124 14.4902H172.084C172.191 13.5096 173.034 12.9016 174.299 12.9016C175.632 12.9016 176.397 13.5382 176.397 14.7253V16.7354C176.397 16.9905 176.504 17.0594 176.72 17.0594H176.935L176.939 17.058ZM175.349 15.7446H174.036C173.379 15.7446 173.017 15.9898 173.017 16.5002C173.017 16.9217 173.37 17.2156 173.949 17.2156C174.831 17.2156 175.341 16.6967 175.351 15.921V15.7446H175.349Z" fill="var(--fill-0, #161627)"/>
<path id="Vector_30" d="M180.289 12.9592V13.9499H179.819C178.878 13.9499 178.574 14.6854 178.574 15.4596V17.9786H177.516V12.9592H178.456L178.574 13.7133C178.83 13.2918 179.231 12.9592 180.053 12.9592H180.289Z" fill="var(--fill-0, #161627)"/>
<path id="Vector_31" d="M180.945 11.1168H182.003V15.3906L184.277 12.9591H185.522L183.63 14.9877L185.64 17.977H184.385L182.905 15.7619L182.003 16.7025V17.977H180.945V11.1154V11.1168Z" fill="var(--fill-0, #161627)"/>
<path id="Vector_32" d="M185.65 15.4795C185.65 13.9311 186.642 12.9016 188.121 12.9016C189.601 12.9016 190.543 13.8235 190.571 15.293C190.571 15.4206 190.561 15.5583 190.541 15.6945H186.758V15.7633C186.788 16.6163 187.327 17.1755 188.16 17.1755C188.806 17.1755 189.276 16.8515 189.425 16.2938H190.483C190.306 17.2844 189.463 18.0386 188.218 18.0386C186.64 18.0386 185.65 17.0192 185.65 15.4795ZM189.474 14.9203C189.386 14.1747 188.867 13.7532 188.131 13.7532C187.455 13.7532 186.876 14.2048 186.798 14.9203H189.474Z" fill="var(--fill-0, #161627)"/>
<path id="Vector_33" d="M191.747 13.891H190.875V12.959H191.747V11.5569H192.815V12.959H194.041V13.891H192.815V16.5089C192.815 16.9003 192.952 17.048 193.353 17.048H194.1V17.9799H193.119C192.158 17.9799 191.747 17.5283 191.747 16.6179V13.8924V13.891Z" fill="var(--fill-0, #161627)"/>
<path id="Vector_34" d="M194.668 11.6172C194.668 11.2444 194.952 10.9806 195.314 10.9806C195.676 10.9806 195.96 11.2459 195.96 11.6172C195.96 11.9885 195.676 12.2538 195.314 12.2538C194.952 12.2538 194.668 11.9885 194.668 11.6172ZM194.775 12.9605H195.833V17.9799H194.775V12.9605Z" fill="var(--fill-0, #161627)"/>
<path id="Vector_35" d="M201.541 15.1855V17.9798H200.472V15.2744C200.472 14.3239 200.071 13.8134 199.276 13.8134C198.433 13.8134 197.933 14.4314 197.933 15.4508V17.9798H196.875V12.9604H197.796L197.915 13.6171C198.229 13.2242 198.708 12.9016 199.521 12.9016C200.63 12.9016 201.541 13.5096 201.541 15.1855Z" fill="var(--fill-0, #161627)"/>
<path id="Vector_36" d="M206.45 12.9592H207.373V17.7721C207.373 19.134 206.608 19.9971 204.805 19.9971C203.472 19.9971 202.54 19.3792 202.442 18.2523H203.52C203.648 18.8114 204.138 19.134 204.882 19.134C205.804 19.134 206.323 18.6925 206.323 17.7319V17.1727C205.989 17.6732 205.469 17.9957 204.686 17.9957C203.323 17.9957 202.312 17.0452 202.312 15.4466C202.312 13.848 203.322 12.8975 204.686 12.8975C205.469 12.8975 206.009 13.2401 206.333 13.7405L206.45 12.9563V12.9592ZM206.323 15.4681C206.323 14.4775 205.745 13.7921 204.862 13.7921C203.979 13.7921 203.401 14.4789 203.401 15.4495C203.401 16.42 203.979 17.1068 204.862 17.1068C205.745 17.1068 206.323 16.4301 206.323 15.4695V15.4681Z" fill="var(--fill-0, #161627)"/>
<path id="Vector_37" d="M211.851 12.9592H212.909V17.9786H211.977L211.86 17.342C211.546 17.7248 211.086 18.0373 210.312 18.0373C209.244 18.0373 208.332 17.4682 208.332 15.7534V12.9592H209.39V15.6359C209.39 16.6165 209.783 17.1169 210.557 17.1169C211.331 17.1169 211.851 16.509 211.851 15.4696V12.9606V12.9592Z" fill="var(--fill-0, #161627)"/>
<path id="Vector_38" d="M0.0976562 18.5621V0.209473H3.27041V18.5621H0.0976562Z" fill="var(--fill-0, #161627)"/>
<path id="Vector_39" d="M10.3271 18.5621H7.1543V0.209473H16.8289C21.259 0.209473 23.2002 1.83528 23.2002 5.61019C23.2002 7.94424 22.4131 9.517 20.8145 10.3027C22.2827 10.9578 23.0166 12.2683 23.0166 14.1822V18.5607H19.8439V14.3142C19.8439 12.6094 18.8733 11.8755 16.6711 11.8755H10.3271V18.5607V18.5621ZM10.3271 8.8876H16.6453C18.9794 8.8876 20.0274 8.02309 20.0274 6.03026C20.0274 4.03743 19.031 3.19872 16.6453 3.19872H10.3271V8.8876Z" fill="var(--fill-0, #161627)"/>
<path id="Vector_40" d="M28.9142 13.1871C29.4389 14.9965 31.0633 15.8094 34.2891 15.8094C37.5149 15.8094 38.9027 15.0495 38.9027 13.5541C38.9027 12.0588 37.4876 11.4051 33.502 10.7484C30.6174 10.2509 28.626 9.62151 27.5508 8.83441C26.4497 8.04731 25.8991 6.86882 25.8991 5.32186C25.8991 1.75627 28.3637 0 33.5809 0C38.7981 0 41.0532 1.62581 41.6554 5.61003H38.3522C37.9063 3.80072 36.3866 2.98782 33.3715 2.98782C30.3565 2.98782 29.0188 3.69605 29.0188 5.13691C29.0188 5.79212 29.3859 6.31685 30.1199 6.68387C30.854 7.0767 32.1644 7.41792 34.0526 7.75914C37.0676 8.30968 39.1651 8.96487 40.2919 9.75197C41.4188 10.5391 41.9967 11.7175 41.9967 13.3175C41.9967 17.0137 39.4274 18.7971 33.9737 18.7971C28.5199 18.7971 26.2661 17.1455 25.6368 13.1871H28.9142Z" fill="var(--fill-0, #161627)"/>
<path id="Vector_41" d="M45.1113 18.5621V0.209473H50.2497L56.4376 15.0482L62.5995 0.209473H67.7637V18.5621H64.6182V3.35642L58.2468 18.5621H54.6554L48.2841 3.35642V18.5621H45.1113Z" fill="var(--fill-0, #161627)"/>
</g>
</svg>
