<svg preserveAspectRatio="none" width="100%" height="100%" overflow="visible" style="display: block;" viewBox="0 0 305.147 36.0004" fill="none" xmlns="http://www.w3.org/2000/svg">
<g id="Logo">
<g id="Group">
<path id="Vector" d="M174.778 18.5755H187.043V19.6133C187.043 21.5865 185.996 23.6654 184.239 25.1792C182.7 26.5046 179.834 28.0878 174.933 28.0878C171.01 28.0878 167.714 26.9904 165.395 24.9181C163.17 22.9251 161.991 20.1818 161.991 16.989C161.991 13.7962 163.216 10.9504 165.531 8.95739C167.866 6.94784 171.142 5.88688 175.002 5.88688C182.189 5.88688 185.759 9.17883 186.703 12.2593L186.743 12.3882L189.127 11.9982L189.078 11.8296C188.45 9.69114 186.931 7.751 184.801 6.36282C182.301 4.73337 178.972 3.87402 175.174 3.87402C165.858 3.87402 159.6 9.13256 159.6 16.9559C159.6 24.7793 165.637 30.1072 174.619 30.1072C180.485 30.1072 184.9 28.0415 187.129 24.2736L187.288 29.2545H189.22V16.5262H174.775V18.5755H174.778Z" fill="var(--fill-0, #161627)"/>
<path id="Vector_2" d="M206.152 11.1029C202.407 11.1029 199.527 13.2447 198.269 16.8903V11.5855H196.225V29.2351H198.375V22.8032C198.375 19.5543 199.246 16.9299 200.894 15.2113C202.199 13.8297 203.797 13.2149 206.083 13.2149C207.06 13.2149 207.635 13.2447 208.477 13.4198L208.665 13.4595V11.3706L208.543 11.3442C207.555 11.1327 207.03 11.0996 206.155 11.0996L206.152 11.1029Z" fill="var(--fill-0, #161627)"/>
<path id="Vector_3" d="M221.499 10.9277C214.319 10.9277 209.494 14.7386 209.494 20.4136C209.494 26.0886 214.319 29.8995 221.499 29.8995C228.678 29.8995 233.47 26.0886 233.47 20.4136C233.47 14.7386 228.658 10.9277 221.499 10.9277ZM231.218 20.4136C231.218 25.0144 227.404 27.9891 221.499 27.9891C215.594 27.9891 211.746 25.0144 211.746 20.4136C211.746 15.8128 215.574 12.8381 221.499 12.8381C227.423 12.8381 231.218 15.8128 231.218 20.4136Z" fill="var(--fill-0, #161627)"/>
<path id="Vector_4" d="M258.063 19.7882C258.063 25.45 253.053 27.985 248.093 27.985C241.266 27.985 239.833 23.8271 239.833 20.3402V11.5814H237.627V20.4096C237.627 26.7059 241.065 29.8954 247.845 29.8954C252.828 29.8954 256.438 28.0016 258.102 24.541V29.2344H260.308V11.5781H258.066V19.7816L258.063 19.7882Z" fill="var(--fill-0, #161627)"/>
<path id="Vector_5" d="M286.482 13.4889C284.464 11.8165 281.604 10.9307 278.209 10.9307C273.397 10.9307 269.563 12.7452 267.796 15.8223V11.5884H265.646V36.0004H267.796V25.3016C269.586 28.1506 273.454 29.8991 278.07 29.8991C284.963 29.8991 289.593 26.1014 289.593 20.4496C289.593 17.584 288.516 15.1778 286.482 13.4889ZM287.304 20.4496C287.304 25.0801 283.605 27.9556 277.654 27.9556C271.703 27.9556 267.763 24.9843 267.763 20.7272V20.2083C267.763 18.1525 268.754 16.2884 270.554 14.963C272.384 13.6145 274.979 12.8741 277.862 12.8741C283.685 12.8741 287.304 15.7761 287.304 20.4496Z" fill="var(--fill-0, #161627)"/>
</g>
<path id="Vector_6" d="M37.281 4.2832H0.0488281V12.5792H37.281V4.2832Z" fill="var(--fill-0, #161627)"/>
<path id="Vector_7" d="M37.2817 17.5637H0V22.8553H37.2817V17.5637Z" fill="var(--fill-0, #161627)"/>
<path id="Vector_8" d="M37.281 27.2715H0.0488281V29.2281H37.281V27.2715Z" fill="var(--fill-0, #161627)"/>
<g id="Group_2">
<path id="Vector_9" d="M80.8307 26.5832L71.6266 4.38897L71.5804 4.2832H65.2363L65.1901 4.38897L55.9861 26.5832V4.2832H49.6816V29.2274H54.8864H55.9861H61.3229L68.4067 12.1429L75.4939 29.2274H80.8307H81.8742H81.9271H87.1351V4.2832H80.8307V26.5832Z" fill="var(--fill-0, #161627)"/>
<path id="Vector_10" d="M145.98 10.9667C143.572 10.5007 140.696 10.5007 138.288 10.9667C133.054 11.9781 129.672 15.4882 129.672 19.9105C129.672 24.3362 133.054 27.8463 138.288 28.8543C139.493 29.0857 140.811 29.2014 142.132 29.2014C143.453 29.2014 144.774 29.0857 145.976 28.8543C149.9 28.0974 152.779 25.9359 153.978 23.0372H148.724C147.456 24.1114 145.937 24.5477 145.2 24.6898C143.305 25.0567 140.953 25.0567 139.058 24.6898C137.053 24.3031 135.101 23.2686 134.312 21.4739H154.44C154.536 20.9682 154.589 20.446 154.589 19.9105C154.589 15.4849 151.207 11.9748 145.973 10.9667H145.98ZM134.629 17.7291C135.811 15.9443 138.143 15.3097 139.064 15.1312C140.96 14.7644 143.311 14.7644 145.207 15.1312C146.97 15.4717 148.605 16.3112 149.563 17.7291H134.629Z" fill="var(--fill-0, #161627)"/>
<path id="Vector_11" d="M122.884 18.6541C121.461 18.2542 119.473 18.0559 116.494 17.841C116.22 17.8212 108.839 17.3982 108.07 17.1569C107.492 16.9751 107.023 16.6842 107.023 16.2017C107.023 16.0629 107.059 15.9439 107.122 15.8348C107.165 15.7621 107.218 15.696 107.28 15.6332C107.667 15.2663 108.42 15.1044 109.073 15.0349C109.13 15.025 109.192 15.0217 109.252 15.0184C109.635 14.9854 116.362 14.9887 116.808 15.0184C117.498 15.068 118.334 15.187 119.04 15.4977C119.701 15.7852 120.424 16.2513 120.447 16.9553H125.979C125.903 11.7694 119.414 10.5862 114.011 10.5862C108.337 10.5862 101.811 11.2538 101.706 16.4727C101.656 18.8855 102.891 20.462 105.378 21.1594C106.815 21.5627 108.823 21.761 111.848 21.9791C111.848 21.9791 119.423 22.4187 120.193 22.6567C120.771 22.8385 121.24 23.1293 121.24 23.6119C121.24 23.7474 121.204 23.8697 121.141 23.9788C121.098 24.0515 121.045 24.1176 120.982 24.1771C120.596 24.5439 119.843 24.7059 119.189 24.7753C119.133 24.7819 119.07 24.7885 119.011 24.7918C118.624 24.8249 111.494 24.8183 110.712 24.7323C109.945 24.6497 109.1 24.4811 108.413 24.1473C107.819 23.8598 107.184 23.4598 107.171 22.8484H101.633C101.673 25.238 103.453 29.2175 114.248 29.2175C119.922 29.2175 126.448 28.5498 126.554 23.3343C126.603 20.9215 125.368 19.3449 122.881 18.6475L122.884 18.6541Z" fill="var(--fill-0, #161627)"/>
<path id="Vector_12" d="M97.5388 11.5576H91.2344V29.2271H97.5388V11.5576Z" fill="var(--fill-0, #161627)"/>
<path id="Vector_13" d="M97.5388 4.2832H91.2344V8.48408H97.5388V4.2832Z" fill="var(--fill-0, #161627)"/>
</g>
<g id="Group_3">
<path id="Vector_14" d="M297.845 0C293.37 0 290.523 3.43739 290.523 7.38707C290.523 11.3368 293.37 14.794 297.845 14.794C302.32 14.794 305.147 11.3566 305.147 7.38707C305.147 3.41755 302.28 0 297.845 0ZM297.845 13.462C294.295 13.462 291.93 10.5997 291.93 7.38377C291.93 4.16783 294.295 1.32868 297.845 1.32868C301.395 1.32868 303.74 4.16452 303.74 7.38377C303.74 10.603 301.375 13.462 297.845 13.462Z" fill="var(--fill-0, #161627)"/>
<path id="Vector_15" d="M299.278 8.37168C300.14 7.9321 300.622 7.12563 300.622 6.14399C300.622 4.67649 299.519 3.55273 297.733 3.55273H295.309V11.1051H296.894V8.71542H297.855L299.08 11.0654H300.867L299.281 8.37499L299.278 8.37168ZM297.832 7.12563L296.89 7.14546V5.13922L297.832 5.15905C298.472 5.15905 298.935 5.53915 298.935 6.14399C298.935 6.74884 298.472 7.12894 297.832 7.12894V7.12563Z" fill="var(--fill-0, #161627)"/>
</g>
</g>
</svg>
