<svg preserveAspectRatio="none" width="100%" height="100%" overflow="visible" style="display: block;" viewBox="0 0 24.8343 24.8331" fill="none" xmlns="http://www.w3.org/2000/svg">
<path id="Vector" d="M9.09586 4.72644C10.5736 2.07548 11.3125 0.75 12.4172 0.75C13.5218 0.75 14.2607 2.07548 15.7385 4.72644L16.1208 5.41227C16.5407 6.16559 16.7507 6.54225 17.0781 6.79078C17.4054 7.0393 17.8132 7.13155 18.6286 7.31606L19.371 7.48403C22.2407 8.13331 23.6755 8.45796 24.0168 9.55569C24.3582 10.6534 23.38 11.7972 21.4237 14.0849L20.9176 14.6768C20.3617 15.3268 20.0837 15.6519 19.9587 16.054C19.8336 16.4561 19.8756 16.8898 19.9597 17.7571L20.0362 18.5468C20.332 21.599 20.4799 23.1252 19.5862 23.8036C18.6925 24.482 17.349 23.8635 14.6622 22.6264L13.9671 22.3063C13.2036 21.9548 12.8218 21.779 12.4172 21.779C12.0125 21.779 11.6307 21.9548 10.8672 22.3063L10.1721 22.6264C7.48529 23.8635 6.14187 24.482 5.24818 23.8036C4.35448 23.1252 4.50236 21.599 4.79813 18.5468L4.87465 17.7571C4.9587 16.8898 5.00072 16.4561 4.87568 16.054C4.75063 15.6519 4.47267 15.3268 3.91674 14.6768L3.41062 14.0849C1.45429 11.7973 0.47613 10.6534 0.817493 9.55569C1.15886 8.45796 2.59367 8.13332 5.46329 7.48403L6.2057 7.31606C7.02116 7.13155 7.42889 7.0393 7.75627 6.79078C8.08365 6.54225 8.29361 6.16559 8.71355 5.41227L9.09586 4.72644Z" stroke="var(--stroke-0, #DBADFF)" stroke-width="1.5" stroke-linecap="round" stroke-linejoin="round"/>
</svg>
