<svg preserveAspectRatio="none" width="100%" height="100%" overflow="visible" style="display: block;" viewBox="0 0 28 28" fill="none" xmlns="http://www.w3.org/2000/svg">
<g id="slow-mode-svgrepo-com (1) 1">
<path id="Vector" d="M22.407 16.5472H25.7164C26.3337 16.5472 26.8441 16.0664 26.881 15.4502L26.9572 14.1759C27.0374 12.8349 25.9715 11.7033 24.628 11.7033H20.8656M5.25511 16.545C3.25892 16.545 2.12112 15.774 1.45709 14.628C1.07266 13.9645 1.64745 13.221 2.41425 13.2211L5.87794 13.2211M17.2305 18.1927C17.7556 20.2215 18.3506 20.9102 18.8611 21.134C20.9208 21.134 23.6122 21.5488 23.0663 19.8923C20.1055 10.9079 20.6511 4.89258 13.4422 4.89258C6.23334 4.89258 6.726 10.9061 3.76521 19.8905C3.21929 21.5471 5.91071 21.1323 7.97039 21.1323C8.48087 20.9085 9.07591 20.2198 9.60097 18.1909M22.6133 16.5468C21.4511 17.1352 17.9835 18.3121 13.4109 18.3121C8.83828 18.3121 5.3705 17.134 4.20826 16.5456" stroke="var(--stroke-0, #DBADFF)" stroke-width="1.5" stroke-linecap="round" stroke-linejoin="round"/>
</g>
</svg>
