<svg preserveAspectRatio="none" width="100%" height="100%" overflow="visible" style="display: block;" viewBox="0 0 20.168 24.8367" fill="none" xmlns="http://www.w3.org/2000/svg">
<path id="Vector" d="M2.69846 9.98511L6.27096 5.15156C8.58021 2.02717 9.73484 0.464972 10.8121 0.795097C11.8894 1.12522 11.8894 3.04125 11.8894 6.87332V7.23464C11.8894 8.61678 11.8894 9.30785 12.331 9.74133L12.3543 9.76379C12.8055 10.1881 13.5248 10.1881 14.9633 10.1881C17.552 10.1881 18.8463 10.1881 19.2838 10.9732C19.291 10.9862 19.2981 10.9993 19.3049 11.0125C19.7178 11.8098 18.9684 12.8237 17.4695 14.8516L13.897 19.6851C11.5877 22.8095 10.4331 24.3717 9.35583 24.0416C8.27857 23.7115 8.2786 21.7954 8.27866 17.9633L8.27866 17.6021C8.27868 16.22 8.27869 15.5289 7.83706 15.0954L7.8137 15.073C7.36254 14.6486 6.64327 14.6486 5.20473 14.6486C2.61605 14.6486 1.3217 14.6486 0.884262 13.8635C0.87702 13.8505 0.869979 13.8374 0.863142 13.8242C0.450198 13.027 1.19962 12.013 2.69846 9.98511Z" stroke="var(--stroke-0, #7B7B7B)" stroke-width="1.5" stroke-linecap="round" stroke-linejoin="round"/>
</svg>
