<svg preserveAspectRatio="none" width="36" height="8" overflow="visible" style="display: block;" viewBox="0 0 36 8" fill="none" xmlns="http://www.w3.org/2000/svg">
<g id="LOGO" clip-path="url(#clip0_11022_76507)">
<path id="Vector" d="M32.9706 8.00002C31.1601 8.00002 29.9414 6.83335 29.9414 5.08924C29.9414 3.34513 31.1601 2.17847 32.9706 2.17847C34.781 2.17847 35.9997 3.35608 35.9997 5.08924C35.9997 6.82241 34.781 8.00002 32.9706 8.00002ZM32.9706 6.97813C34.0266 6.97813 34.723 6.18941 34.723 5.08924C34.723 3.98907 34.0266 3.20035 32.9706 3.20035C31.9145 3.20035 31.2296 3.98907 31.2296 5.08924C31.2296 6.18941 31.9145 6.97813 32.9706 6.97813Z" fill="var(--fill-0, white)"/>
<path id="Vector_2" d="M24.811 2.24411H25.0897V3.36616H24.5323C23.4182 3.36616 23.0586 4.19949 23.0586 5.07744V7.93266H21.8047V2.24411H22.9188L23.0577 3.09933C23.3593 2.62121 23.835 2.24411 24.8101 2.24411H24.811Z" fill="var(--fill-0, white)"/>
<path id="Vector_3" d="M18.0054 7.99988C16.1369 7.99988 14.9648 6.84416 14.9648 5.10005C14.9648 3.35594 16.1369 2.17749 17.8894 2.17749C19.6418 2.17749 20.7559 3.2221 20.791 4.88877C20.791 5.03355 20.7796 5.18843 20.7559 5.34416H16.2759V5.4216C16.311 6.38793 16.9494 7.02177 17.936 7.02177C18.7018 7.02177 19.2593 6.65476 19.4334 6.02177H20.6873C20.478 7.14382 19.48 7.99988 18.0063 7.99988H18.0054ZM16.3225 4.46621H19.4914C19.3868 3.62193 18.7722 3.14382 17.9017 3.14382C17.1006 3.14382 16.4157 3.65476 16.3234 4.46621H16.3225Z" fill="var(--fill-0, white)"/>
<path id="Vector_4" d="M11.7002 2.1776C13.0121 2.1776 14.091 2.86615 14.091 4.76683V7.93349H12.8257V4.86699C12.8257 3.78955 12.35 3.21127 11.41 3.21127C10.412 3.21127 9.82028 3.91161 9.82028 5.06649V7.93349H8.56641V2.2441H9.65761L9.79654 2.98821C10.1676 2.54376 10.7365 2.17676 11.7002 2.17676V2.1776Z" fill="var(--fill-0, white)"/>
<path id="Vector_5" d="M6.7229 1.44444C6.2938 1.44444 5.95703 1.14478 5.95703 0.722222C5.95703 0.299663 6.2938 0 6.7229 0C7.15199 0 7.48876 0.299663 7.48876 0.722222C7.48876 1.14478 7.15199 1.44444 6.7229 1.44444ZM6.08453 7.9335V2.24411H7.3384V7.93266H6.08453V7.9335Z" fill="var(--fill-0, white)"/>
<path id="Vector_6" d="M0 7.9335V0.155724H5.18783V1.28872H1.33477V3.54461H4.51517V4.64478H1.33477V7.9335H0Z" fill="var(--fill-0, white)"/>
<path id="Vector_7" d="M28.0236 2.24415V0.655762H26.7592V2.24415H25.4648V3.36957H26.7592V4.95879H28.0236V3.36957H29.3179V2.24415H28.0236Z" fill="var(--fill-0, #C2955D)"/>
<path id="Vector_8" fill-rule="evenodd" clip-rule="evenodd" d="M28.027 5.69702H26.7617V6.38894C26.7617 7.42261 27.2488 7.93355 28.3867 7.93355H29.5473V6.878H28.6654C28.1897 6.878 28.027 6.71133 28.027 6.26689V5.69702Z" fill="var(--fill-0, #C2955D)"/>
</g>
<defs>
<clipPath id="clip0_11022_76507">
<rect width="36" height="8" fill="white"/>
</clipPath>
</defs>
</svg>
