<svg preserveAspectRatio="none" width="100%" height="100%" overflow="visible" style="display: block;" viewBox="0 0 653.008 329.186" fill="none" xmlns="http://www.w3.org/2000/svg">
<g id="Union" filter="url(#filter0_d_11007_191280)">
<mask id="path-1-inside-1_11007_191280" fill="white">
<path fill-rule="evenodd" clip-rule="evenodd" d="M325.185 160.893C325.023 249.447 253.186 321.186 164.593 321.186C75.9012 321.186 4 249.285 4 160.593C4 71.9007 75.9012 0 164.593 0C253.186 0 325.023 71.7385 325.185 160.293V0C413.565 0 486.58 71.392 487.096 159.652V0C575.788 0 649.008 71.8998 649.008 160.593C649.008 249.286 575.788 321.186 487.096 321.186V161.533C486.58 249.794 413.565 321.186 325.185 321.186V160.893Z"/>
</mask>
<path fill-rule="evenodd" clip-rule="evenodd" d="M325.185 160.893C325.023 249.447 253.186 321.186 164.593 321.186C75.9012 321.186 4 249.285 4 160.593C4 71.9007 75.9012 0 164.593 0C253.186 0 325.023 71.7385 325.185 160.293V0C413.565 0 486.58 71.392 487.096 159.652V0C575.788 0 649.008 71.8998 649.008 160.593C649.008 249.286 575.788 321.186 487.096 321.186V161.533C486.58 249.794 413.565 321.186 325.185 321.186V160.893Z" fill="#D9D9D9"/>
<path d="M325.185 160.893H326.185L324.185 160.891L325.185 160.893ZM325.185 160.293L324.185 160.294L326.185 160.293H325.185ZM325.185 0V-1H324.185V0H325.185ZM487.096 159.652L486.096 159.658L488.096 159.652H487.096ZM487.096 0V-1H486.096V0H487.096ZM487.096 321.186H486.096V322.186H487.096V321.186ZM487.096 161.533H488.096L486.096 161.528L487.096 161.533ZM325.185 321.186H324.185V322.186H325.185V321.186ZM164.593 321.186V322.186C253.738 322.186 326.022 250 326.185 160.895L325.185 160.893L324.185 160.891C324.024 248.894 252.634 320.186 164.593 320.186V321.186ZM4 160.593H3C3 249.837 75.349 322.186 164.593 322.186V321.186V320.186C76.4535 320.186 5 248.732 5 160.593H4ZM164.593 0V-1C75.349 -1 3 71.3484 3 160.593H4H5C5 72.453 76.4535 1 164.593 1V0ZM325.185 160.293L326.185 160.291C326.022 71.1852 253.738 -1 164.593 -1V0V1C252.634 1 324.024 72.2918 324.185 160.294L325.185 160.293ZM325.185 0H324.185V160.293H325.185H326.185V0H325.185ZM487.096 159.652L488.095 159.646C487.577 70.826 414.104 -1 325.185 -1V0V1C413.025 1 485.583 71.958 486.096 159.658L487.096 159.652ZM487.096 159.652H488.096V0H487.096H486.096V159.652H487.096ZM487.096 0V1C575.247 1 648.008 72.4627 648.008 160.593H649.008H650.008C650.008 71.3369 576.33 -1 487.096 -1V0ZM649.008 160.593H648.008C648.008 248.723 575.247 320.186 487.096 320.186V321.186V322.186C576.33 322.186 650.008 249.849 650.008 160.593H649.008ZM487.096 321.186H488.096V161.533H487.096H486.096V321.186H487.096ZM325.185 321.186V322.186C414.104 322.186 487.577 250.359 488.095 161.539L487.096 161.533L486.096 161.528C485.583 249.228 413.025 320.186 325.185 320.186V321.186ZM325.185 160.893H324.185V321.186H325.185H326.185V160.893H325.185Z" fill="var(--stroke-0, black)" mask="url(#path-1-inside-1_11007_191280)"/>
</g>
<defs>
<filter id="filter0_d_11007_191280" x="0" y="0" width="653.008" height="329.186" filterUnits="userSpaceOnUse" color-interpolation-filters="sRGB">
<feFlood flood-opacity="0" result="BackgroundImageFix"/>
<feColorMatrix in="SourceAlpha" type="matrix" values="0 0 0 0 0 0 0 0 0 0 0 0 0 0 0 0 0 0 127 0" result="hardAlpha"/>
<feOffset dy="4"/>
<feGaussianBlur stdDeviation="2"/>
<feComposite in2="hardAlpha" operator="out"/>
<feColorMatrix type="matrix" values="0 0 0 0 0 0 0 0 0 0 0 0 0 0 0 0 0 0 0.25 0"/>
<feBlend mode="normal" in2="BackgroundImageFix" result="effect1_dropShadow_11007_191280"/>
<feBlend mode="normal" in="SourceGraphic" in2="effect1_dropShadow_11007_191280" result="shape"/>
</filter>
</defs>
</svg>
