<svg preserveAspectRatio="xMidYMid meet"  overflow="visible" style="display: block;" viewBox="0 0 213.103 543.886" fill="none" xmlns="http://www.w3.org/2000/svg">
<g id="Group 282">
<path id="Fill 108" fill-rule="evenodd" clip-rule="evenodd" d="M0.25847 105.265C0.24712 47.1329 47.3708 0.00262174 105.503 0.00585529C163.613 0.00908767 210.723 47.1116 210.735 105.222L210.804 437.557C210.816 495.689 163.693 542.82 105.561 542.819C47.4472 542.817 0.334704 495.712 0.323357 437.599L0.25847 105.265Z" fill="var(--fill-0, white)"/>
<path id="Fill 111" d="M105.384 0.614458C163.246 0.61582 210.179 47.507 210.21 105.369C210.241 163.277 163.288 210.237 105.38 210.237C47.5158 210.236 0.582125 163.343 0.552734 105.479C0.523572 47.572 47.4768 0.61321 105.384 0.614458Z" stroke="var(--stroke-0, #E1E1EC)"/>
<path id="Fill 112" d="M105.649 58.2461C163.383 58.2473 210.212 105.035 210.243 162.77C210.274 220.549 163.425 267.405 105.646 267.404C47.9092 267.404 1.07909 220.614 1.05002 162.878C1.02099 105.099 47.8699 58.245 105.649 58.2461Z" fill="var(--fill-0, white)" stroke="var(--stroke-0, #E1E1EC)"/>
<path id="Fill 113" d="M105.735 115.468C163.467 115.469 210.294 162.255 210.325 219.987C210.355 277.764 163.509 324.618 105.732 324.618C47.9978 324.617 1.16931 277.829 1.14015 220.096C1.11105 162.319 47.9583 115.466 105.735 115.468Z" fill="var(--fill-0, white)" stroke="var(--stroke-0, #E1E1EC)"/>
<path id="Fill 114" d="M105.52 181.783C163.334 181.785 210.227 228.636 210.258 286.45C210.289 344.309 163.375 391.23 105.516 391.23C47.7001 391.229 0.805835 344.375 0.776569 286.56C0.747431 228.701 47.6612 181.782 105.52 181.783Z" fill="var(--fill-0, white)" stroke="var(--stroke-0, #E1E1EC)"/>
<path id="Fill 115" d="M105.435 255.309C163.174 255.311 210.007 302.102 210.038 359.841C210.069 417.624 163.216 464.484 105.432 464.483C47.6917 464.483 0.858 417.69 0.82892 359.949C0.79982 302.166 47.6523 255.308 105.435 255.309Z" fill="var(--fill-0, white)" stroke="var(--stroke-0, #E1E1EC)"/>
<path id="Fill 110" fill-rule="evenodd" clip-rule="evenodd" d="M0.453376 437.66C0.423805 378.942 48.0342 331.326 106.752 331.327C165.425 331.329 213.015 378.876 213.046 437.549C213.078 496.268 165.468 543.886 106.749 543.885C48.0739 543.884 0.482925 496.334 0.453376 437.66Z" fill="var(--fill-0, #14101E)"/>
</g>
</svg>
