<svg preserveAspectRatio="xMidYMid meet" width="102.375" height="29.25" overflow="visible" style="display: block;" viewBox="0 0 102.375 29.25" fill="none" xmlns="http://www.w3.org/2000/svg">
<g id="Warstwa_1">
<path id="Vector" d="M90.112 2.21415C85.3345 2.10969 80.4874 2.21415 80.4456 2.21415C74.6095 2.21415 69.8668 6.2604 69.8668 11.2259C69.8668 16.275 74.6095 20.377 80.4525 20.377C80.4943 20.377 85.3415 20.4745 90.119 20.377C95.9411 20.377 100.684 16.3029 100.719 11.2817V11.1633C100.684 6.27433 96.0386 2.34647 90.112 2.21415ZM86.8388 17.8838C86.8388 17.8838 85.0977 17.9256 83.7745 17.8838C80.4177 17.8838 76.7893 15.3488 76.7893 11.2608C76.7893 7.20058 80.3411 4.77701 83.7536 4.77701C83.7954 4.77005 85.4599 4.7004 86.8318 4.77701C90.2652 4.77701 93.817 7.20058 93.817 11.2608C93.824 15.3488 90.2025 17.8838 86.8388 17.8838Z" fill="var(--fill-0, black)"/>
<path id="Vector_2" d="M33.0123 8.13452V19.744C33.0123 20.141 33.3675 20.4195 33.6948 20.4195C33.7366 20.4195 39.9627 20.4195 39.9627 20.4195V8.13452H33.0123Z" fill="var(--fill-0, black)"/>
<path id="Vector_3" d="M33.0123 6.19753C33.0123 6.59449 33.3675 6.87307 33.6948 6.87307C33.7366 6.87307 39.9627 6.87307 39.9627 6.87307V3.40485C39.9627 3.04271 39.6423 2.72932 39.2802 2.72932H33.6948C33.3257 2.72932 33.0123 3.03574 33.0123 3.39789V6.19753Z" fill="var(--fill-0, #009EE2)"/>
<path id="Vector_4" d="M52.3962 6.18318H68.6369V3.69693C68.6369 2.97265 67.8638 3.00747 67.8429 3.00747H45.0837C45.014 3.00747 44.819 3.06318 44.8121 3.06318C44.6519 3.1189 44.4847 3.24426 44.429 3.5089C44.4151 3.56461 44.4012 3.62033 44.4012 3.67604V20.0143C44.4012 20.4112 44.7563 20.6898 45.0837 20.6898C45.1254 20.6898 51.3515 20.6898 51.3515 20.6898V13.2519H65.5238V10.1528H51.3446V7.0189C51.3654 6.81693 51.4978 6.18318 52.3962 6.18318Z" fill="var(--fill-0, black)"/>
<path id="Vector_5" d="M25.3292 2.79932H5.26513C3.23852 2.79932 1.65763 4.38717 1.65763 6.40682V19.7991C1.65763 20.1891 1.9362 20.4747 2.31923 20.4747H8.58709V14.2068H22.0073V20.4747H28.2751C28.6582 20.4747 28.9367 20.1891 28.9367 19.7991V6.41378C28.9367 4.38717 27.3489 2.79932 25.3292 2.79932ZM22.0142 11.0799H8.58013V7.54896C8.58013 6.58092 9.26959 5.91235 10.2516 5.91235H20.3498C21.3317 5.91235 22.0212 6.58789 22.0212 7.54896V11.0799H22.0142Z" fill="var(--fill-0, black)"/>
<path id="Vector_6" fill-rule="evenodd" clip-rule="evenodd" d="M53.4452 24.4033C53.1318 24.4033 52.8881 24.5077 52.707 24.7167C52.5259 24.9256 52.4354 25.2042 52.4354 25.5663C52.4354 25.9354 52.519 26.2209 52.6931 26.4229C52.8672 26.6249 53.111 26.7224 53.4313 26.7224C53.6263 26.7224 53.8561 26.6876 54.1068 26.6179V26.9034C53.9118 26.98 53.6681 27.0149 53.3826 27.0149C52.9647 27.0149 52.6443 26.8895 52.4215 26.6388C52.1986 26.3881 52.0802 26.0259 52.0802 25.5593C52.0802 25.2668 52.136 25.0161 52.2404 24.7933C52.3518 24.5774 52.5051 24.4033 52.714 24.2849C52.9229 24.1665 53.1597 24.1038 53.4383 24.1038C53.7377 24.1038 53.9954 24.1595 54.2183 24.264L54.079 24.5495C53.8701 24.452 53.6611 24.4033 53.4452 24.4033Z" fill="var(--fill-0, black)"/>
<path id="Vector_7" d="M58.5847 27.0834C57.8047 27.0834 57.2615 26.4775 57.2615 25.5861C57.2615 24.6529 57.8395 24.04 58.6265 24.04C59.4344 24.04 59.9567 24.6599 59.9567 25.5304C59.9497 26.5402 59.3369 27.0834 58.5847 27.0834ZM58.5987 26.777C59.2045 26.777 59.5458 26.2199 59.5458 25.5513C59.5458 24.9663 59.2394 24.3534 58.6056 24.3534C57.9719 24.3534 57.6585 24.9454 57.6585 25.5861C57.6515 26.199 57.9928 26.777 58.5987 26.777Z" fill="var(--fill-0, black)"/>
<path id="Vector_8" d="M68.5574 24.1378C68.7385 24.1029 68.9822 24.0751 69.2886 24.0751C69.6647 24.0751 69.9433 24.1656 70.1174 24.3188C70.2776 24.4581 70.382 24.674 70.382 24.9386C70.382 25.2033 70.3054 25.4122 70.1522 25.5654C69.9502 25.7813 69.6229 25.8858 69.2538 25.8858C69.1424 25.8858 69.0379 25.8788 68.9474 25.8579V27.0419H68.5643V24.1378H68.5574ZM68.9335 25.5585C69.017 25.5794 69.1285 25.5863 69.2469 25.5863C69.7135 25.5863 69.9851 25.3565 69.9851 24.9595C69.9851 24.5626 69.7065 24.3745 69.2886 24.3745C69.1215 24.3745 68.9961 24.3954 68.9265 24.4024V25.5585H68.9335Z" fill="var(--fill-0, black)"/>
<path id="Vector_9" d="M74.3258 27.0834C73.5458 27.0834 73.0026 26.4775 73.0026 25.5861C73.0026 24.6529 73.5806 24.04 74.3676 24.04C75.1754 24.04 75.6977 24.6599 75.6977 25.5304C75.6977 26.5402 75.0779 27.0834 74.3258 27.0834ZM74.3467 26.777C74.9526 26.777 75.2938 26.2199 75.2938 25.5513C75.2938 24.9663 74.9874 24.3534 74.3536 24.3534C73.7199 24.3534 73.4065 24.9454 73.4065 25.5861C73.3995 26.199 73.7408 26.777 74.3467 26.777Z" fill="var(--fill-0, black)"/>
<path id="Vector_10" d="M78.5375 27.0352V24.0893H78.9554L79.8955 25.5797C80.1114 25.9279 80.2855 26.2343 80.4179 26.5407L80.4318 26.5338C80.397 26.1368 80.39 25.7816 80.39 25.329V24.0893H80.7452V27.0352H80.3621L79.4289 25.5379C79.22 25.2106 79.025 24.8763 78.8787 24.5559L78.8648 24.5629C78.8857 24.932 78.8927 25.2872 78.8927 25.7816V27.0422H78.5375V27.0352Z" fill="var(--fill-0, black)"/>
<path id="Vector_11" d="M84.9948 25.6563H83.8527V26.7149H85.1271V27.0352H83.4696V24.0893H85.0644V24.4097H83.8527V25.3429H84.9948V25.6563Z" fill="var(--fill-0, black)"/>
<path id="Vector_12" d="M87.7527 27.0352V24.0893H88.1706L89.1107 25.5797C89.3266 25.9279 89.5007 26.2343 89.6331 26.5407L89.647 26.5338C89.6122 26.1368 89.6052 25.7816 89.6052 25.329V24.0893H89.9604V27.0352H89.5773L88.6441 25.5379C88.4352 25.2106 88.2402 24.8763 88.0939 24.5559L88.08 24.5629C88.1009 24.932 88.1079 25.2872 88.1079 25.7816V27.0422H87.7527V27.0352Z" fill="var(--fill-0, black)"/>
<path id="Vector_13" d="M93.05 24.4097H92.1516V24.0893H94.3314V24.4097H93.4331V27.0352H93.05V24.4097Z" fill="var(--fill-0, black)"/>
<path id="Vector_14" d="M96.3199 26.575C96.494 26.6865 96.7377 26.77 96.9954 26.77C97.3854 26.77 97.6152 26.5681 97.6152 26.2686C97.6152 25.997 97.4551 25.8368 97.0581 25.6836C96.5776 25.5095 96.2781 25.2518 96.2781 24.8409C96.2781 24.3813 96.6611 24.04 97.2322 24.04C97.5317 24.04 97.7545 24.1097 97.8799 24.1863L97.7754 24.4997C97.6849 24.444 97.4899 24.3604 97.2183 24.3604C96.8144 24.3604 96.6611 24.6042 96.6611 24.7992C96.6611 25.0777 96.8422 25.21 97.2461 25.3702C97.7476 25.5652 97.9913 25.802 97.9913 26.2338C97.9913 26.6865 97.657 27.0834 96.9606 27.0834C96.6751 27.0834 96.3686 26.9929 96.2085 26.8884L96.3199 26.575Z" fill="var(--fill-0, black)"/>
<path id="Vector_15" d="M64.2655 26.4234L64.4814 26.0821L64.8227 25.5389C65.0316 25.2116 65.2266 24.8773 65.3729 24.5569L65.3868 24.5639C65.3659 24.933 65.3589 25.2882 65.3589 25.7826V27.0432H65.7141V24.0973H65.2963L64.3561 25.5876L64.2725 25.72L64.1889 25.5876L63.2488 24.0973H62.8309V27.0432H63.1861V25.7826C63.1861 25.2951 63.1791 24.94 63.1582 24.5639L63.1721 24.5569C63.3184 24.8773 63.5134 25.2116 63.7223 25.5389L64.2655 26.4234Z" fill="var(--fill-0, black)"/>
</g>
</svg>
