<svg preserveAspectRatio="xMidYMid meet" width="95.888" height="39.1432" overflow="visible" style="display: block;" viewBox="0 0 95.888 39.1432" fill="none" xmlns="http://www.w3.org/2000/svg">
<g id="g20">
<path id="path1" fill-rule="evenodd" clip-rule="evenodd" d="M13.3015 0C13.3015 0 17.2259 5.8353 16.3429 13.2326C15.4599 20.63 13.615 20.0025 13.3015 24.3106C13.1113 26.7916 13.072 29.2818 13.184 31.7675C13.184 31.7675 9.57417 24.448 9.66274 18.3878C9.7513 12.3276 11.4459 13.4538 13.0353 7.867C14.6247 2.28023 13.3032 0 13.3032 0M16.2887 21.1834C15.0884 22.2643 14.2969 23.7255 14.0471 25.3214C13.6896 27.9135 14.3858 27.9011 14.1078 29.3896C13.9518 30.2452 13.742 31.0902 13.4798 31.9194C13.4798 31.9194 15.3875 29.8384 15.9001 27.7863C16.4127 25.7342 15.7251 25.9279 15.6752 23.8678C15.6253 21.8076 16.2871 21.1839 16.2871 21.1839L16.2887 21.1834Z" fill="var(--fill-0, #DE006A)"/>
<path id="path2" fill-rule="evenodd" clip-rule="evenodd" d="M68.5762 25.4469C68.5434 26.7174 68.8726 27.971 69.5252 29.0616C69.8772 29.6686 70.3881 30.1683 71.0029 30.5067C71.6176 30.8451 72.313 31.0095 73.0143 30.9821C73.6789 31.011 74.3403 30.8739 74.9388 30.5835C75.5373 30.293 76.0541 29.8581 76.4427 29.3181C77.163 28.151 77.5445 26.8066 77.5445 25.4351C77.5445 24.0636 77.163 22.7191 76.4427 21.552C76.052 21.0424 75.551 20.6279 74.9773 20.3395C74.4036 20.0511 73.772 19.8964 73.13 19.8869C72.4879 19.8774 71.852 20.0134 71.27 20.2846C70.688 20.5559 70.175 20.9555 69.7694 21.4533C68.9369 22.6149 68.5167 24.0216 68.5757 25.4496M65.8821 25.4496C65.8067 23.4118 66.531 21.4253 67.9004 19.9143C68.5562 19.2019 69.3576 18.6389 70.2503 18.2637C71.143 17.8885 72.106 17.7098 73.0738 17.7399C74.0688 17.7075 75.0583 17.8988 75.9695 18.2996C76.8808 18.7003 77.6905 19.3004 78.3391 20.0555C79.5679 21.585 80.2378 23.4882 80.2378 25.4501C80.2378 27.4121 79.5679 29.3153 78.3391 30.8447C77.6889 31.5382 76.9085 32.0968 76.0425 32.4887C75.1764 32.8805 74.2417 33.098 73.2916 33.1286C72.3415 33.1592 71.3947 33.0023 70.5052 32.667C69.6158 32.3317 68.801 31.8245 68.1076 31.1743C67.9945 31.067 67.8846 30.9571 67.778 30.8447C66.488 29.3487 65.8102 27.421 65.88 25.4469L65.8821 25.4496ZM50.2394 19.0083C50.2307 18.8329 50.262 18.658 50.3309 18.4965C50.3998 18.3351 50.5045 18.1914 50.6371 18.0764C50.8913 17.8546 51.2182 17.7339 51.5555 17.7372C51.9061 17.7234 52.2496 17.8379 52.5217 18.0592C52.6526 18.178 52.7549 18.3248 52.8211 18.4887C52.8873 18.6525 52.9156 18.8292 52.9039 19.0056V27.2236C52.8462 28.2252 53.175 29.2108 53.8223 29.9773C54.4346 30.6454 55.3734 30.9796 56.6388 30.98C58.1081 30.98 59.1592 30.5468 59.7918 29.6805C60.2713 28.9537 60.5072 28.0933 60.4655 27.2236V19.0077C60.4567 18.8324 60.4879 18.6574 60.5569 18.4959C60.6258 18.3345 60.7306 18.1908 60.8632 18.0759C61.1173 17.8542 61.4439 17.7334 61.7811 17.7366C62.1317 17.7226 62.4753 17.8372 62.7473 18.0587C62.8784 18.1778 62.9808 18.3251 63.0468 18.4895C63.1128 18.6538 63.1407 18.831 63.1284 19.0077V27.2821C63.1878 28.7606 62.6594 30.2024 61.6587 31.2924C60.4957 32.5163 58.8018 33.1282 56.5771 33.1282C54.4754 33.1282 52.8631 32.5445 51.7402 31.3772C50.718 30.2645 50.1787 28.7919 50.2404 27.2821L50.2394 19.0083ZM35.1479 25.3895C35.091 26.7382 35.4317 28.0739 36.1275 29.2306C36.468 29.7876 36.951 30.2435 37.5266 30.5513C38.1022 30.8591 38.7496 31.0077 39.4018 30.9816C40.1228 31.0268 40.8432 30.884 41.4924 30.5671C42.1417 30.2503 42.6975 29.7704 43.1056 29.1743C43.8162 28.0645 44.1689 26.7631 44.1158 25.4464C44.1835 24.001 43.745 22.5773 42.8758 21.4205C42.4654 20.9155 41.9424 20.5137 41.3487 20.2471C40.755 19.9806 40.1071 19.8568 39.457 19.8857C38.8069 19.9145 38.1725 20.0952 37.6048 20.4133C37.0371 20.7314 36.5517 21.178 36.1876 21.7174C35.4778 22.8082 35.1153 24.0885 35.1479 25.3895ZM43.8109 12.371C43.8011 12.199 43.8305 12.0271 43.8968 11.8681C43.963 11.7091 44.0646 11.5672 44.1936 11.4531C44.4551 11.2356 44.7871 11.1211 45.1271 11.1311C46.0457 11.1311 46.5048 11.5641 46.5045 12.4301V31.8614C46.513 32.0367 46.4816 32.2117 46.4126 32.3732C46.3436 32.5346 46.2388 32.6782 46.1062 32.7932C45.8324 33.0223 45.4839 33.1429 45.1271 33.1319C44.7899 33.1356 44.4632 33.015 44.2092 32.7932C44.0806 32.6872 43.978 32.5532 43.909 32.4015C43.8399 32.2498 43.8064 32.0843 43.8109 31.9177V31.0986C43.4871 31.642 43.035 32.0978 42.4942 32.4261C41.6389 32.9172 40.6641 33.1616 39.6783 33.1319C38.7027 33.1743 37.7294 33.0072 36.8238 32.6419C35.9183 32.2765 35.1015 31.7214 34.4286 31.0138C33.0765 29.5066 32.3679 27.53 32.4543 25.507C32.3996 23.4968 33.086 21.5366 34.383 19.9997C34.9841 19.2713 35.7433 18.6893 36.6028 18.2978C37.4623 17.9064 38.3997 17.7157 39.3439 17.7404C40.2155 17.7259 41.079 17.9095 41.8694 18.2772C42.6029 18.626 43.2468 19.1381 43.7519 19.7742L43.8109 12.371ZM82.9956 19.0641C82.9858 18.8837 83.0149 18.7034 83.0809 18.5353C83.147 18.3672 83.2484 18.2153 83.3784 18.0898C83.6318 17.8553 83.9666 17.7286 84.3118 17.7366C84.6591 17.7294 84.9969 17.8501 85.2608 18.0759C85.3972 18.2001 85.5038 18.3534 85.5726 18.5245C85.6415 18.6956 85.6709 18.8801 85.6586 19.0641V19.7136C86.1992 19.0613 86.8837 18.5432 87.6583 18.2002C88.433 17.8572 89.2766 17.6985 90.123 17.7366C91.5737 17.6834 92.9915 18.1773 94.0951 19.1204C94.6947 19.6688 95.1658 20.3429 95.4745 21.0946C95.7832 21.8462 95.922 22.6568 95.881 23.4683V31.856C95.8915 32.0275 95.8608 32.1991 95.7915 32.3563C95.7222 32.5136 95.6163 32.652 95.4827 32.7599C95.2113 32.9688 94.8765 33.0783 94.5342 33.0702C94.1929 33.0851 93.8571 32.9801 93.5852 32.7734C93.4571 32.6593 93.3573 32.5171 93.2935 32.3579C93.2297 32.1987 93.2037 32.0269 93.2175 31.856V23.5263C93.2438 23.0302 93.157 22.5346 92.9634 22.0771C92.7699 21.6195 92.4748 21.212 92.1004 20.8854C91.3448 20.2733 90.4019 19.9394 89.4294 19.9394C88.457 19.9394 87.5141 20.2733 86.7584 20.8854C86.3841 21.2234 86.0906 21.6414 85.8999 22.1084C85.7091 22.5753 85.6259 23.0792 85.6564 23.5827V31.8576C85.6664 32.0366 85.6389 32.2157 85.5757 32.3835C85.5124 32.5513 85.4149 32.704 85.2893 32.8319C85.1673 32.9487 85.0232 33.04 84.8655 33.1006C84.7079 33.1611 84.5397 33.1897 84.3709 33.1845C84.009 33.1943 83.6575 33.0626 83.3912 32.8174C83.2598 32.6955 83.1561 32.5466 83.0875 32.381C83.0189 32.2153 82.9868 32.0368 82.9935 31.8576L82.9956 19.0641ZM0.0179574 26.74C-0.112602 24.2499 0.470859 21.7744 1.69967 19.6047C2.92848 17.435 4.75151 15.6615 6.95419 14.4929L7.04276 14.4499C7.37368 14.2589 7.76694 14.2071 8.13603 14.306C8.50512 14.4049 8.8198 14.6464 9.01085 14.9773C9.2019 15.3083 9.25367 15.7015 9.15476 16.0706C9.05586 16.4397 8.81439 16.7544 8.48347 16.9454C8.43158 16.9759 8.37779 17.0029 8.32243 17.0265L8.23548 17.07C6.23492 18.1545 4.65285 19.8748 3.73933 21.959C2.82581 24.0432 2.63295 26.3724 3.19123 28.5785C3.74951 30.7846 5.02708 32.7417 6.82202 34.1405C8.61696 35.5392 10.8269 36.3 13.1025 36.3023C15.3781 36.3047 17.5896 35.5486 19.3875 34.1536C21.1853 32.7585 22.467 30.8041 23.0299 28.5992C23.5927 26.3943 23.4047 24.0647 22.4956 21.9786C21.5864 19.8925 20.0079 18.1688 18.0096 17.0802L17.9721 17.0512C17.61 16.9372 17.3075 16.685 17.1303 16.3494C16.9531 16.0138 16.9154 15.6218 17.0255 15.2585C17.1355 14.8953 17.3844 14.5901 17.7181 14.4092C18.0518 14.2284 18.4434 14.1865 18.8078 14.2927C18.8642 14.3095 18.9194 14.33 18.9732 14.3539L19.065 14.3877C21.1101 15.4348 22.8439 17.0016 24.0921 18.9306C25.3403 20.8597 26.0591 23.0832 26.1762 25.3779C26.2934 27.6725 25.8049 29.9577 24.7596 32.0038C23.7144 34.05 22.1493 35.7852 20.2214 37.0352C18.2936 38.2853 16.0708 39.0061 13.7762 39.1255C11.4816 39.2448 9.19603 38.7584 7.14887 37.7151C5.10172 36.6718 3.36504 35.1084 2.1132 33.1817C0.861351 31.255 0.138386 29.0328 0.0168839 26.7384L0.0179574 26.74Z" fill="var(--fill-0, #7E3A8B)"/>
</g>
</svg>
