<svg preserveAspectRatio="xMidYMid meet" width="88.0833" height="45.5" overflow="visible" style="display: block;" viewBox="0 0 88.0833 45.5" fill="none" xmlns="http://www.w3.org/2000/svg">
<g id="image (2) 1">
<path id="Vector" d="M12.8892 18.1551C13.0194 18.1176 13.3603 18.1153 13.5171 18.112C14.8636 18.0831 16.6632 18.351 17.9105 18.8473C19.5541 19.5013 21.0422 20.7724 21.7153 22.4542C22.1417 23.5196 22.3172 24.6674 22.3347 25.8243C22.3219 26.2329 22.2515 26.6349 22.1986 27.0408C21.4137 33.0647 17.9911 38.9703 12.9472 42.3384C12.0587 42.9317 11.1587 43.3291 10.1953 43.7379C8.99465 44.2261 7.48506 44.2078 6.21272 44.2239C6.07266 44.2256 6.15735 44.3827 6.0515 44.5144C5.08783 44.596 3.38538 44.5224 2.32697 44.5379C2.32259 43.5747 2.29003 42.4178 2.35247 41.4476C2.3572 41.3742 2.42594 41.3516 2.50136 41.3012C2.7024 40.7687 2.84367 40.0376 2.9718 39.4792L3.59796 36.7811C4.1295 34.4876 4.64326 32.1899 5.13917 29.8882C5.48194 28.3376 5.84445 26.7588 6.16156 25.1957C6.30227 24.5021 6.33353 22.5386 6.16696 21.7937C6.13746 21.6618 5.97554 21.4238 5.8934 21.3018C5.73628 21.2345 5.47469 21.1278 5.38189 20.9918C5.37461 20.5003 6.21371 20.2129 6.59847 20.0176C8.00864 19.3018 9.51896 18.7243 11.0666 18.4016C11.6212 18.2861 12.3181 18.2278 12.8892 18.1551ZM10.7624 40.8501C13.815 38.9696 14.8962 35.8196 15.7744 32.474C16.2617 30.6176 16.5309 28.5098 16.4957 26.5904C16.4334 24.773 15.5213 21.522 13.2039 21.6757C12.6216 21.7737 11.6741 21.9641 11.3547 22.487C10.8917 23.245 10.7605 24.5584 10.6185 25.4441C10.4046 26.7789 10.2133 28.115 10.0153 29.4429C9.71375 31.5559 9.36628 33.662 8.97293 35.7594C8.84854 36.462 8.70159 37.1605 8.53231 37.8534C8.41071 38.3439 7.87114 40.3429 7.87283 40.7086C8.24028 41.5203 10.1766 41.2379 10.7624 40.8501Z" fill="var(--fill-0, #5A3412)"/>
<path id="Vector_2" d="M38.6964 23.9764C39.4901 23.9104 40.3812 23.9835 41.1733 24.0908C41.4109 24.0705 42.2091 24.3969 41.9088 24.7397C41.216 25.5307 40.6891 26.1208 40.3071 27.1405C39.8824 28.2741 39.5831 29.4269 39.2883 30.6116C38.8906 32.1715 38.55 33.7458 38.2672 35.3311C37.8938 37.4211 37.443 40.1833 38.3133 42.2107C38.5197 42.6915 39.5212 43.4706 39.4679 43.7447C39.1366 44.1134 38.5217 44.1606 38.1087 44.2631L38.0775 44.4877C37.9644 44.5641 36.6084 44.549 36.4926 44.4963C36.4565 44.1905 35.9667 44.1259 35.6566 44.0123C33.7147 43.3003 32.7591 41.6395 32.9827 39.5817C33.0189 39.2484 33.2567 38.4036 32.8867 38.2771C32.6057 38.3465 32.42 38.7905 32.2476 39.0429C31.8103 39.6888 31.3603 40.3259 30.8981 40.9538C30.5068 41.4844 30.1255 41.8616 29.7521 42.354C29.2778 42.9176 28.356 43.5846 27.7467 44.0023C27.434 44.2166 27.2 44.5575 26.8086 44.5388C25.9805 44.499 25.1286 44.5631 24.3092 44.509C24.2205 44.4369 24.1389 44.1699 24.0492 44.1071C19.4345 40.9087 22.0525 33.9966 24.3273 30.149C26.0339 27.2625 28.4695 24.1996 32.041 24.0784C33.3401 24.0344 34.5753 24.121 35.8135 24.571C36.3806 24.7771 36.5458 24.8816 37.162 24.8476C37.8898 24.3879 37.6717 24.3019 38.6964 23.9764ZM29.0804 38.9183C30.6945 37.0318 34.407 32.0074 34.5782 29.3052C34.5994 28.9701 34.2564 28.3644 33.9589 28.1558C33.0796 27.5393 32.5668 27.2392 31.5016 27.3279C30.2169 27.6598 29.327 29.014 28.6775 30.0963C27.0841 32.7518 26.8015 36.0593 27.3081 39.0695C27.3449 39.2877 27.5282 40.2622 27.8404 40.1113C28.3031 39.8875 28.7442 39.3098 29.0804 38.9183Z" fill="var(--fill-0, #5A3412)"/>
<path id="Vector_3" d="M49.6501 18.3369C50.2212 18.2224 50.5837 18.3728 50.9149 18.839C51.0774 20.1691 50.8092 21.0053 50.6236 22.2507C50.3599 24.019 50.0425 25.6921 49.668 27.4435C49.4845 28.3013 49.3896 30.071 49.594 30.9461C49.6358 31.1252 49.7714 31.3327 49.8753 31.489C50.0171 31.5104 50.266 31.5127 50.4169 31.5187C50.8562 31.0497 51.236 30.2652 51.642 29.7146C53.0453 27.8575 54.7715 25.4449 56.9814 24.5699C57.9998 24.1668 59.4403 24.686 59.7855 25.8148C59.1285 27.3621 57.5528 28.3364 56.2692 29.352C55.1164 30.2469 54.02 31.214 52.9868 32.2475C52.7226 32.5119 52.2263 32.9473 52.1508 33.3009C52.2162 33.8564 55.229 37.7517 55.7767 38.5965C56.2616 39.3447 57.6564 40.708 58.427 41.2488C58.7794 41.4962 59.4265 41.684 59.667 42.0083C59.833 42.4972 58.8245 43.0568 58.47 43.2429C56.6767 44.3337 55.3757 44.3216 53.7569 42.9659C51.7318 41.2699 50.2203 39.0653 49.5676 36.4685C49.5131 36.2515 49.4379 35.3886 49.205 35.3376C48.9599 35.5221 48.6848 36.474 48.5435 36.7969C47.8023 38.4904 47.427 40.1678 47.8882 41.9938C47.9731 42.33 48.2144 42.9958 48.1815 43.307C48.0605 43.5452 47.8733 43.6852 47.6264 43.7724C46.3364 44.2285 43.8882 44.3001 42.6486 43.7735C41.9568 42.7563 43.021 39.2696 43.2904 38.0649C44.5231 32.5534 46.0895 27.1221 46.104 21.4176C46.1051 21.0157 45.8967 19.3675 46.1525 19.2022C46.9225 18.7047 48.766 18.3706 49.6501 18.3369Z" fill="var(--fill-0, #5A3412)"/>
<path id="Vector_4" d="M67.4205 23.8083C69.0101 23.7489 69.3177 23.9991 69.2578 25.669C69.2375 26.235 69.2717 26.7423 69.1718 27.3191C69.1218 27.6075 68.8974 28.5313 68.9687 28.7438C69.4114 28.7443 70.0417 27.8181 70.3739 27.4668C71.4609 26.3179 74.0047 23.2694 75.7833 24.1245C77.4235 24.9132 76.0286 28.5022 75.3788 29.5868C75.2379 29.8289 74.8744 30.6113 74.5732 30.6997C74.2661 30.6871 74.1582 30.2947 73.7717 30.03L73.7528 30.0172C73.506 29.9971 73.275 29.9804 73.0402 30.069C70.9918 30.8421 68.9603 34.668 68.0778 36.5849C67.4348 38.3366 66.9243 39.8428 66.6626 41.7134C66.6133 42.0662 66.6277 43.6653 66.5174 43.7785C65.9458 44.3653 63.9036 44.1581 63.1025 44.2002C62.3255 44.1918 61.7124 44.1333 61.0632 43.8194C60.8564 43.7194 60.7756 43.4421 60.8169 43.2464C60.9739 42.3051 61.2063 41.3624 61.4042 40.4273C61.7656 38.7453 62.1483 37.068 62.5523 35.3959C63.3713 32.0861 64.3377 28.8156 63.6353 25.3625C63.4836 24.6164 64.1584 24.5148 64.7096 24.348C65.5775 24.0854 66.5271 23.9449 67.4205 23.8083Z" fill="var(--fill-0, #5A3412)"/>
<path id="Vector_5" d="M81.0834 23.8939C82.2451 23.8477 83.0822 23.9645 84.1524 24.4618C85.2879 24.9727 85.4268 25.0255 84.9438 26.2128C84.6016 27.1361 84.3428 28.042 84.0785 28.9948C83.1144 32.4753 82.3149 36.1008 82.1891 39.7235C82.146 40.9642 82.6459 42.1462 82.8732 43.3354C83.0011 44.0041 82.1258 43.8718 81.7442 43.8879C81.4589 43.8999 81.1496 43.9365 80.8585 43.9664C80.0157 43.9476 79.1033 44.1623 78.3246 43.9296C77.8619 43.7913 77.359 43.2464 77.1528 42.7914C75.8113 39.8289 77.4236 35.8982 78.1837 32.9717C78.6432 31.2025 79.091 29.36 79.2638 27.561C79.3173 27.0031 79.4069 26.2976 79.3184 25.7624C79.2499 25.3491 78.7862 25.2541 78.5988 24.8592C78.5919 24.709 78.5929 24.6243 78.7446 24.5482C79.4332 24.2033 80.3425 24.0561 81.0834 23.8939Z" fill="var(--fill-0, #5A3412)"/>
<path id="Vector_6" d="M51.8162 6.94232C52.237 6.8646 52.8096 6.89119 53.2472 6.89318C56.0369 6.90588 58.8096 6.81445 61.5894 7.12237C62.3549 7.20716 63.2092 7.16362 63.9824 7.25701C67.5441 7.68729 71.189 8.01653 74.559 9.34837C75.8066 9.83886 77.9823 10.98 77.6041 12.7268C77.5384 13.0243 76.885 13.1617 76.6874 13.0606C75.6545 12.5325 74.2974 12.0311 73.303 11.4987C72.9421 11.2737 71.5338 10.8693 71.0885 10.722C67.3067 9.47031 63.3514 9.13216 59.4201 8.73237C59.2136 8.72017 59.0044 8.69838 58.7978 8.68948C56.7709 8.60216 54.6967 8.38609 52.674 8.38447C51.0796 8.39003 49.4852 8.38736 47.8907 8.37645C47.4787 8.37679 47.0602 8.46366 46.653 8.44786C46.5151 8.4425 46.3483 8.41883 46.2289 8.34329C46.1272 8.27897 46.0416 8.17476 46.0233 8.0518C46.001 7.90271 46.0708 7.72732 46.1629 7.61295C46.5158 7.17492 50.963 7.07336 51.786 6.94712L51.8162 6.94232Z" fill="var(--fill-0, #5A3412)"/>
<path id="Vector_7" d="M31.2227 1.87271C31.6466 1.86499 32.1773 1.83966 32.596 1.88276C32.7626 1.8999 32.5634 1.99598 32.965 2.13877C33.708 2.40289 34.5272 2.70178 35.2135 3.08862C36.3178 3.71106 37.4483 5.01917 38.0128 6.15406C38.1696 6.46942 38.3292 7.02961 38.4268 7.36992C38.3223 7.73754 38.2555 7.88241 38.0186 8.17875C35.8991 9.14446 30.4873 5.04565 30.9779 2.32339C30.9858 2.27936 31.1878 1.93428 31.2227 1.87271Z" fill="var(--fill-0, #5A3412)"/>
<path id="Vector_8" d="M25.695 1.86938L25.9535 1.87651C26.213 2.08842 27.2566 2.39096 27.6389 2.54074C28.3028 2.80081 28.9325 3.02195 29.5592 3.42168C30.8612 4.25211 32.0116 5.77146 32.441 7.26925C32.5019 7.48191 32.5035 7.85827 32.3687 8.04183C32.2381 8.21991 32.0034 8.40488 31.7828 8.44742C30.9216 8.73627 28.8665 7.72556 28.1535 7.2286C26.8546 6.32279 25.6713 5.09048 25.1139 3.57123C24.6112 2.20148 25.379 2.38777 25.695 1.86938Z" fill="var(--fill-0, #5A3412)"/>
<path id="Vector_9" d="M23.3601 7.31864C24.7016 7.28541 27.3853 7.51188 27.9105 9.0141C27.3652 10.6931 25.0956 11.2659 23.5785 11.5293C22.8425 11.6008 20.2109 10.9128 19.5087 10.4624C18.6217 9.89369 19.1429 9.2627 19.7714 8.72187C20.8374 7.80458 22.0171 7.58132 23.3601 7.31864Z" fill="var(--fill-0, #5A3412)"/>
<path id="Vector_10" d="M31.1682 9.01604C31.8863 8.97876 32.2789 9.38452 32.4725 10.0475C32.3368 10.8163 31.8758 11.8377 31.4644 12.4711C30.6068 13.7916 29.6111 14.4875 28.1751 15.0339C27.5836 15.2589 27.3263 15.409 26.6551 15.5589C26.2974 15.6727 26.1534 15.7208 25.7867 15.529C25.6135 15.4384 25.4662 15.1965 25.4235 15.0021C25.2564 14.2395 25.7045 13.362 26.0479 12.7017C26.9179 11.1947 28.3596 9.97001 29.9691 9.34411C30.2887 9.21971 30.8224 9.1046 31.1682 9.01604Z" fill="var(--fill-0, #5A3412)"/>
<path id="Vector_11" d="M43.333 8.5349C45.4784 8.39688 44.6674 10.3839 44.0711 11.53C42.97 13.6465 41.2164 14.2106 39.2069 15.0248C36.8352 15.5455 37.8645 12.9146 38.5794 11.8738C39.7345 10.1917 41.3261 8.95895 43.333 8.5349Z" fill="var(--fill-0, #5A3412)"/>
<path id="Vector_12" d="M36.8284 8.88792C37.0078 8.83848 37.6408 8.83432 37.8383 8.91008C38.0705 8.99916 38.1734 9.13838 38.2834 9.36452C38.5187 9.84791 38.3414 10.3045 38.1889 10.7724C37.7547 12.104 36.6752 13.5575 35.4368 14.2143C34.6811 14.615 33.6656 14.9389 32.8791 15.3164C32.5659 15.4568 32.1491 15.4285 31.8224 15.3398C30.7496 14.3885 31.9701 12.5357 32.6027 11.6622C33.4863 10.4419 35.3233 9.09873 36.8284 8.88792Z" fill="var(--fill-0, #5A3412)"/>
<path id="Vector_13" d="M36.9774 1.8624C37.5139 1.89466 38.4966 1.81273 38.9601 1.89383C38.9665 1.90001 39.1103 2.05625 39.0812 2.04508C39.6745 2.27215 40.3158 2.59112 40.9089 2.81683C42.2335 3.32083 45.2566 6.67255 43.9407 8.00224C43.8788 8.02357 43.8164 8.04328 43.7534 8.06137C42.843 8.32037 41.3851 7.76104 40.6115 7.29054C38.7233 6.14207 37.3401 4.67611 36.7515 2.51217C36.8176 2.29332 36.9057 2.11566 36.9774 1.8624Z" fill="var(--fill-0, #5A3412)"/>
<path id="Vector_14" d="M84.0945 16.5007C84.7752 16.582 85.2601 16.8497 85.7732 17.3024C86.0707 17.5649 85.9649 19.0607 85.9655 19.5512C85.6073 19.6794 85.4016 19.9548 85.128 20.229C84.2706 21.0881 83.2015 21.2264 82.0517 21.2183C81.384 21.232 81.0962 21.2111 80.5723 20.7962C80.4107 20.1377 80.6025 19.6727 80.557 18.986C80.5162 18.3669 80.1227 17.7804 80.2958 17.2217C80.659 16.8484 83.4079 16.6336 84.0945 16.5007Z" fill="var(--fill-0, #5A3412)"/>
</g>
</svg>
