<svg preserveAspectRatio="xMidYMid meet" width="121.088" height="37.3753" overflow="visible" style="display: block;" viewBox="0 0 121.088 37.3753" fill="none" xmlns="http://www.w3.org/2000/svg">
<g id="Group 237656">
<path id="Vector" d="M54.1199 21.7454C51.8977 21.4843 49.9371 21.3538 48.5041 21.3538C46.9016 21.3538 44.9749 21.4843 44.9749 23.375C44.9749 24.3228 45.5607 24.613 47.3277 25.3963L48.7316 26.0153C51.9316 27.4513 53.2726 28.5925 53.2726 31.2327C53.2726 35.5702 49.8451 37.3352 44.7474 37.3352C42.2009 37.3352 39.393 36.8806 38.6378 36.6195L39.1267 33.6843C40.7582 33.8777 42.4913 34.0422 45.1007 34.0422C47.226 34.0422 48.9204 33.6843 48.9204 31.7889C48.9204 30.7105 48.3637 30.3527 46.1416 29.3759L44.8684 28.8198C42.0604 27.5819 40.6566 26.1796 40.6566 23.6313C40.6566 18.9989 44.5101 18.0511 48.4315 18.0511C51.1425 18.0511 53.3307 18.409 54.604 18.7668L54.1199 21.7454Z" fill="var(--fill-0, #231F20)"/>
<path id="Vector_2" d="M71.8531 29.0582H59.571C59.4064 30.0059 59.3096 30.5911 59.3096 31.0794C59.3096 32.8106 60.1908 33.8212 63.5553 33.8212C65.516 33.8212 67.8011 33.6277 70.2845 33.3957L69.7618 36.5919C68.3239 36.9159 65.8404 37.3753 62.742 37.3753C57.5475 37.3753 55.1317 35.2864 55.1317 30.915C55.1317 29.9673 55.2285 28.8938 55.4561 27.7526L55.6836 26.6114C56.9229 20.48 60.2875 18.0623 65.2546 18.0623C70.057 18.0623 72.4051 20.4752 72.4051 24.6192C72.4051 25.9587 72.2114 27.2593 71.8531 29.0582ZM64.9254 21.5196C61.5268 21.5196 60.515 23.8697 60.123 25.9587L60.089 26.2536H68.0577C68.1884 25.5379 68.2561 24.9141 68.2561 24.4258C68.2609 22.8591 67.6074 21.5196 64.9254 21.5196Z" fill="var(--fill-0, #231F20)"/>
<path id="Vector_3" d="M90.4961 25.7604L88.5694 36.8821H84.2612L86.2847 25.3059C86.3816 24.653 86.4489 24.097 86.4831 23.6086C86.4831 22.2692 85.8974 21.6841 84.2944 21.6841C82.9247 21.6841 81.259 22.0758 79.299 23.0235L76.8493 36.8869H72.5356L75.7352 18.5555H79.8506L79.6569 19.9239C81.8115 18.6522 83.9365 18.0623 85.7959 18.0623C89.6826 18.0623 90.8254 20.0835 90.8254 22.7914C90.8208 23.7053 90.6612 24.7498 90.4961 25.7604Z" fill="var(--fill-0, #231F20)"/>
<path id="Vector_4" d="M104.24 21.9452H99.767L97.9371 31.8966C97.8062 32.5156 97.772 32.9072 97.772 33.2022C97.772 33.9179 98.164 34.0823 99.2727 34.0823C100.189 34.0823 101.529 34.0194 102.047 33.9517L101.592 36.853C101.069 36.9836 99.4378 37.3753 97.772 37.3753C94.8003 37.3753 93.5266 36.0697 93.5266 33.4924C93.5266 32.9701 93.5607 32.3512 93.6917 31.6983L95.4533 21.9452L92.0887 21.6841L92.5775 18.5506H96.0049L96.8525 13.8553H101.162L100.314 18.5506H104.787L104.24 21.9452Z" fill="var(--fill-0, #231F20)"/>
<path id="Vector_5" d="M120.536 29.0582H108.253C108.089 30.0059 107.992 30.5911 107.992 31.0794C107.992 32.8106 108.873 33.8212 112.238 33.8212C114.199 33.8212 116.483 33.6277 118.967 33.3957L118.444 36.5919C117.006 36.9159 114.522 37.3753 111.424 37.3753C106.23 37.3753 103.814 35.2864 103.814 30.915C103.814 29.9673 103.911 28.8938 104.139 27.7526L104.366 26.6114C105.605 20.48 108.97 18.0623 113.937 18.0623C118.739 18.0623 121.087 20.4752 121.087 24.6192C121.092 25.9587 120.898 27.2593 120.536 29.0582ZM113.613 21.5196C110.214 21.5196 109.202 23.8697 108.81 25.9587L108.776 26.2536H116.745C116.875 25.5379 116.943 24.9141 116.943 24.4258C116.943 22.8591 116.29 21.5196 113.613 21.5196Z" fill="var(--fill-0, #231F20)"/>
<path id="Vector_6" d="M48.9153 0C47.0756 0 44.1516 1.48938 42.3894 3.32684L36.8414 9.17301H63.768C65.6077 9.17301 68.5317 7.68364 70.2939 5.84618L75.8419 0H48.9153Z" fill="url(#paint0_linear_11002_190483)"/>
<path id="Vector_7" d="M30.0106 5.09241C28.171 5.09241 25.2469 6.58178 23.4847 8.41924L17.9367 14.2702H44.8633C46.703 14.2702 49.6271 12.7808 51.3893 10.9434L56.9372 5.0972H30.0106V5.09241Z" fill="url(#paint1_linear_11002_190483)"/>
<path id="Vector_8" d="M12.0739 9.68161C10.2343 9.68161 7.31022 11.171 5.54802 13.0084L3.48772e-05 18.8546H26.9267C28.7662 18.8546 31.6904 17.3653 33.4526 15.5278L39.0006 9.68161H12.0739Z" fill="url(#paint2_linear_11002_190483)"/>
<path id="Vector_9" d="M48.9153 0C47.0756 0 44.1516 1.48938 42.3894 3.32684L36.8414 9.17301H63.768C65.6077 9.17301 68.5317 7.68364 70.2939 5.84618L75.8419 0H48.9153Z" fill="url(#paint3_linear_11002_190483)"/>
<path id="Vector_10" d="M30.0106 5.09241C28.171 5.09241 25.2469 6.58178 23.4847 8.41924L17.9367 14.2702H44.8633C46.703 14.2702 49.6271 12.7808 51.3893 10.9434L56.9372 5.0972H30.0106V5.09241Z" fill="url(#paint4_linear_11002_190483)"/>
<path id="Vector_11" d="M12.0739 9.68161C10.2343 9.68161 7.31022 11.171 5.54802 13.0084L3.48772e-05 18.8546H26.9267C28.7662 18.8546 31.6904 17.3653 33.4526 15.5278L39.0006 9.68161H12.0739Z" fill="url(#paint5_linear_11002_190483)"/>
</g>
<defs>
<linearGradient id="paint0_linear_11002_190483" x1="37.3685" y1="11.2766" x2="61.821" y2="2.63611" gradientUnits="userSpaceOnUse">
<stop offset="0.4181" stop-color="#F0EFF0"/>
<stop offset="1" stop-color="#CFD1D2"/>
</linearGradient>
<linearGradient id="paint1_linear_11002_190483" x1="18.7892" y1="9.68053" x2="56.2247" y2="9.68053" gradientUnits="userSpaceOnUse">
<stop stop-color="#FCEE3F"/>
<stop offset="0.1843" stop-color="#F9CE34"/>
<stop offset="0.3788" stop-color="#F7B32B"/>
<stop offset="0.578" stop-color="#F5A025"/>
<stop offset="0.7823" stop-color="#F49521"/>
<stop offset="1" stop-color="#F49120"/>
</linearGradient>
<linearGradient id="paint2_linear_11002_190483" x1="-16.4103" y1="15.143" x2="27.8293" y2="14.0627" gradientUnits="userSpaceOnUse">
<stop offset="0.2518" stop-color="#E51369"/>
<stop offset="0.2741" stop-color="#DF1366"/>
<stop offset="0.4121" stop-color="#BD1459"/>
<stop offset="0.553" stop-color="#A2144E"/>
<stop offset="0.6963" stop-color="#8F1546"/>
<stop offset="0.8434" stop-color="#841542"/>
<stop offset="1" stop-color="#801540"/>
</linearGradient>
<linearGradient id="paint3_linear_11002_190483" x1="37.3685" y1="11.2766" x2="61.821" y2="2.63611" gradientUnits="userSpaceOnUse">
<stop offset="0.4181" stop-color="#F0EFF0"/>
<stop offset="1" stop-color="#CFD1D2"/>
</linearGradient>
<linearGradient id="paint4_linear_11002_190483" x1="18.7892" y1="9.68053" x2="56.2247" y2="9.68053" gradientUnits="userSpaceOnUse">
<stop stop-color="#FCEE3F"/>
<stop offset="0.1843" stop-color="#F9CE34"/>
<stop offset="0.3788" stop-color="#F7B32B"/>
<stop offset="0.578" stop-color="#F5A025"/>
<stop offset="0.7823" stop-color="#F49521"/>
<stop offset="1" stop-color="#F49120"/>
</linearGradient>
<linearGradient id="paint5_linear_11002_190483" x1="-16.4103" y1="15.143" x2="27.8293" y2="14.0627" gradientUnits="userSpaceOnUse">
<stop offset="0.2518" stop-color="#E51369"/>
<stop offset="0.2741" stop-color="#DF1366"/>
<stop offset="0.4121" stop-color="#BD1459"/>
<stop offset="0.553" stop-color="#A2144E"/>
<stop offset="0.6963" stop-color="#8F1546"/>
<stop offset="0.8434" stop-color="#841542"/>
<stop offset="1" stop-color="#801540"/>
</linearGradient>
</defs>
</svg>
