<svg preserveAspectRatio="xMidYMid meet" width="138.125" height="19.5" overflow="visible" style="display: block;" viewBox="0 0 138.125 19.5" fill="none" xmlns="http://www.w3.org/2000/svg">
<g id="Warstwa_1" clip-path="url(#clip0_11002_190760)">
<path id="Vector" d="M132.606 14.9995H125.008L123.319 19.1033H119.457L126.846 0.384033H130.734L126.258 11.7146H131.317L129.058 6.03028L131.966 3.43567L138.119 19.1081H134.257L132.598 15.0043L132.606 14.9995Z" fill="var(--fill-0, #FF4E1A)"/>
<path id="Vector_2" d="M77.6127 0.387207L89.2254 17.7735V19.1112H85.4677L77.6127 7.34266V19.1112H73.855V0.387207H77.6127ZM85.4677 0.387207H89.2254V14.4028L85.4677 11.594V0.387207Z" fill="var(--fill-0, #FF4E1A)"/>
<path id="Vector_3" d="M96.7445 0.387207V19.1112H92.9868V0.387207H96.7445Z" fill="var(--fill-0, #FF4E1A)"/>
<path id="Vector_4" d="M117.575 14.752C117.162 15.428 116.678 16.0469 116.121 16.5991C115.564 17.1514 114.95 17.6275 114.279 18.0321C113.609 18.432 112.89 18.7415 112.115 18.9557C111.34 19.1699 110.543 19.2747 109.72 19.2747C108.449 19.2747 107.251 19.0271 106.128 18.5272C105.005 18.0274 104.025 17.3466 103.193 16.4801C102.362 15.6137 101.704 14.5996 101.225 13.4332C100.746 12.2669 100.502 11.0195 100.502 9.70082C100.502 8.38209 100.742 7.13953 101.225 5.96839C101.704 4.80201 102.362 3.78321 103.193 2.92151C104.025 2.05506 105.005 1.37427 106.128 0.87439C107.251 0.374512 108.449 0.126953 109.72 0.126953C110.543 0.126953 111.344 0.23169 112.115 0.445923C112.886 0.660157 113.609 0.969605 114.279 1.36951C114.95 1.76941 115.564 2.25025 116.121 2.80249C116.678 3.35474 117.166 3.96888 117.575 4.64966L114.562 6.65394C114.083 5.69227 113.421 4.92103 112.581 4.34021C111.741 3.7594 110.787 3.469 109.725 3.469C108.967 3.469 108.257 3.63562 107.587 3.96412C106.916 4.29261 106.333 4.74012 105.836 5.30189C105.34 5.86365 104.944 6.5254 104.652 7.28236C104.36 8.03931 104.212 8.84864 104.212 9.70082C104.212 10.553 104.356 11.3623 104.652 12.1193C104.944 12.8762 105.34 13.538 105.836 14.0997C106.333 14.6615 106.916 15.109 107.587 15.4375C108.257 15.766 108.967 15.9326 109.725 15.9326C110.787 15.9326 111.741 15.6422 112.581 15.0614C113.421 14.4806 114.083 13.7094 114.562 12.7477L117.575 14.752Z" fill="var(--fill-0, #FF4E1A)"/>
<path id="Vector_5" d="M40.4271 0.00317383C35.4632 0.00317383 31.4399 4.36878 31.4399 9.75318C31.4399 15.1376 35.4632 19.5032 40.4271 19.5032C45.3909 19.5032 49.4142 15.1376 49.4142 9.75318C49.4142 4.36878 45.3909 0.00317383 40.4271 0.00317383ZM40.4271 16.0183C37.488 16.0183 35.1062 13.2142 35.1062 9.74842C35.1062 6.2826 37.488 3.47852 40.4271 3.47852C43.3662 3.47852 45.7479 6.2826 45.7479 9.74842C45.7479 13.2142 43.3662 16.0183 40.4271 16.0183Z" fill="var(--fill-0, #FF4E1A)"/>
<path id="Vector_6" d="M26.5587 6.2207V9.72461L17.602 13.2857V9.7865L26.5587 6.2207Z" fill="var(--fill-0, #FF4E1A)"/>
<path id="Vector_7" d="M23.2259 14.9995V0.393555H19.4682V19.1128H29.5614V15.0043H23.2259V14.9995Z" fill="var(--fill-0, #FF4E1A)"/>
<g id="Group">
<path id="Vector_8" d="M56.6272 0.384033H53.1743V19.1081H56.932V0.841065L56.6272 0.384033Z" fill="var(--fill-0, #FF4E1A)"/>
<path id="Vector_9" d="M66.8468 0.384033L66.333 1.15527V8.12501C67.5826 6.24927 68.8367 4.37354 70.0907 2.4978V0.384033H66.8468ZM66.333 8.67725V19.1081H70.0907V5.86841C68.8367 6.80628 67.587 7.73939 66.333 8.67725Z" fill="var(--fill-0, #FF4E1A)"/>
<path id="Vector_10" d="M64.0642 11.5147V11.5194L61.7391 14.9995L59.4139 11.5147L56.932 7.80604L53.1743 2.17883V0.569702L53.4094 0.384033H56.6272L56.932 0.841065L61.7391 8.03455L64.0642 11.5147Z" fill="var(--fill-0, #FF4E1A)"/>
<path id="Vector_11" d="M70.0904 0.403076V2.4978C68.8364 4.37354 67.5823 6.24927 66.3327 8.12501C66.0845 8.49159 65.8406 8.85816 65.5968 9.22474L64.0641 11.5147L61.739 14.9995L59.4138 11.5147L61.739 8.03455L66.3327 1.15527L66.8465 0.384033H70.0686L70.0904 0.403076Z" fill="var(--fill-0, #FF4E1A)"/>
</g>
<g id="Group_2">
<path id="Vector_12" d="M15.7104 4.50049V0.387207L0.00469303 0.387207V4.50049L15.7104 4.50049Z" fill="var(--fill-0, #FF4E1A)"/>
<path id="Vector_13" d="M15.7057 4.50049L8.55168 11.8558C7.91596 12.5081 7.28024 13.1603 6.64453 13.8125C6.43552 14.0315 6.22652 14.2457 6.01752 14.46C5.84335 14.6409 5.66918 14.817 5.49501 14.9979H5.49065C5.38615 15.1122 5.2773 15.2217 5.1728 15.3264C4.3063 16.2167 3.43981 17.107 2.57767 17.9972L-3.48772e-05 14.9979L10.2194 4.50049L13.7463 0.877563L15.7057 4.50049Z" fill="var(--fill-0, #FF4E1A)"/>
<path id="Vector_14" d="M5.1728 15.3264C3.94926 16.5928 2.72572 17.8544 1.50218 19.1112H-3.48772e-05V14.9979H5.49065C5.38615 15.1122 5.2773 15.2217 5.1728 15.3264Z" fill="var(--fill-0, #FF4E1A)"/>
<path id="Vector_15" d="M15.7013 14.9979V19.1112H4.58932C5.22939 17.7401 5.87817 16.369 6.51825 14.9979H15.7013Z" fill="var(--fill-0, #FF4E1A)"/>
<path id="Vector_16" d="M6.64455 13.8125C6.43555 14.0315 6.22655 14.2457 6.01754 14.46C6.22655 14.2457 6.43555 14.0267 6.64455 13.8125Z" fill="var(--fill-0, #FF4E1A)"/>
</g>
</g>
<defs>
<clipPath id="clip0_11002_190760">
<rect width="138.125" height="19.5" fill="white"/>
</clipPath>
</defs>
</svg>
