<svg preserveAspectRatio="xMidYMid meet" width="154.853" height="16.25" overflow="visible" style="display: block;" viewBox="0 0 154.853 16.25" fill="none" xmlns="http://www.w3.org/2000/svg">
<g id="Frame" clip-path="url(#clip0_11002_190528)">
<path id="Vector" d="M37.646 2.95899V15.5578H36.2V0.693481H38.2211L43.7585 13.6509L49.3289 0.693481H51.3172V15.5578H49.8876V2.95899L44.4322 15.5578H43.052L37.646 2.95899Z" fill="var(--fill-0, #1B1B1C)"/>
<path id="Vector_2" d="M63.6406 11.4342H56.6734L55.096 15.5578H53.5679L59.3682 0.693481H61.0772L66.8611 15.5578H65.218L63.657 11.4342H63.6406ZM57.15 10.1793H63.1312L60.157 2.35594L57.15 10.1793Z" fill="var(--fill-0, #1B1B1C)"/>
<path id="Vector_3" d="M67.2552 8.108C67.2552 3.73996 70.3937 0.382446 74.5509 0.382446C78.1002 0.382446 81.0414 2.76205 81.6166 6.29885H79.9734C79.4969 3.65848 77.295 1.76784 74.5509 1.76784C71.2481 1.76784 68.849 4.45711 68.849 8.0917C68.849 11.7263 71.2481 14.4644 74.5509 14.4644C77.3115 14.4644 79.5133 12.5575 79.9734 9.9172H81.6166C81.0414 13.454 78.1002 15.8661 74.5509 15.8661C70.3937 15.8661 67.2552 12.4923 67.2552 8.108Z" fill="var(--fill-0, #1B1B1C)"/>
<path id="Vector_4" d="M84.1311 15.5578V0.693481H85.6922V7.21293H94.171V0.693481H95.732V15.5578H94.171V8.56573H85.6922V15.5578H84.1311Z" fill="var(--fill-0, #1B1B1C)"/>
<path id="Vector_5" d="M99.1003 15.5578V0.693481H100.661V15.5578H99.1003Z" fill="var(--fill-0, #1B1B1C)"/>
<path id="Vector_6" d="M105.475 2.8938V15.5578H104.03V0.693481H105.756L114.381 13.1945V0.693481H115.861V15.5578H114.201L105.493 2.8938H105.475Z" fill="var(--fill-0, #1B1B1C)"/>
<path id="Vector_7" d="M128.168 15.5578H119.214V0.693481H128.021V2.04627H120.775V7.21294H127.412V8.56573H120.775V14.2213H128.168V15.5742V15.5578Z" fill="var(--fill-0, #1B1B1C)"/>
<path id="Vector_8" d="M131.06 15.5578V0.693481H136.384C139.539 0.693481 141.527 2.32335 141.527 5.17561C141.527 7.40853 140.048 9.08729 137.698 9.47845L141.921 15.5416H140.048L136.039 9.67399H132.637V15.5416H131.077L131.06 15.5578ZM132.621 8.37014H136.253C138.536 8.37014 139.949 7.24554 139.949 5.17561C139.949 3.10568 138.536 1.98107 136.253 1.98107H132.621V8.35385V8.37014Z" fill="var(--fill-0, #1B1B1C)"/>
<path id="Vector_9" d="M149.381 15.5578H147.82V9.98369L142.398 0.693481H144.106L148.658 8.53313L153.226 0.693481H154.853L149.381 9.98369V15.5578Z" fill="var(--fill-0, #1B1B1C)"/>
<path id="Vector_10" d="M29.5116 0.51416V15.7208H27.3427V4.06726L27.2604 4.26285L22.7581 11.7602H20.2605L15.6597 4.09987V15.7371H13.5071V0.53046H16.0047L17.2042 2.53519L21.4929 9.69033L25.7323 2.61669L26.9976 0.53046H29.4952L29.5116 0.51416Z" fill="var(--fill-0, #0052CD)"/>
<path id="Vector_11" d="M12.6198 1.98104V6.1372L9.25129 11.7602H6.75367L2.15277 4.09987V15.7208H0.000209263V0.51416H2.49784L3.69736 2.51889L7.98605 9.67399L12.2255 2.60038L12.6034 1.96474L12.6198 1.98104Z" fill="var(--fill-0, #0052CD)"/>
</g>
<defs>
<clipPath id="clip0_11002_190528">
<rect width="154.853" height="16.25" fill="white"/>
</clipPath>
</defs>
</svg>
