<svg preserveAspectRatio="xMidYMid meet" width="106.514" height="40.6256" overflow="visible" style="display: block;" viewBox="0 0 106.514 40.6256" fill="none" xmlns="http://www.w3.org/2000/svg">
<g id="Group">
<g id="Group_2">
<g id="Group_3">
<path id="Vector" d="M18.3198 0.0607605C21.2364 -0.113664 24.2788 0.154682 27.2105 0.0406346C31.078 0.364327 31.1149 6.07003 27.2708 6.41217C22.1371 6.87003 16.2469 4.83228 12.6225 9.69773C9.16925 14.3368 11.4703 20.9951 17.0066 22.528C18.7173 23.0026 20.4599 22.4559 21.7127 24.0089C23.2255 25.8823 22.07 28.9733 19.6297 29.1847C14.4875 29.6274 8.96799 26.2446 6.50927 21.8454C1.2346 12.4047 7.55414 0.708145 18.3198 0.0607605Z" fill="var(--fill-0, #090E0E)"/>
<path id="Vector_2" d="M36.462 6.38649C38.2034 6.38649 39.615 4.97707 39.615 3.23846C39.615 1.49985 38.2034 0.0904337 36.462 0.0904337C34.7206 0.0904337 33.3089 1.49985 33.3089 3.23846C33.3089 4.97707 34.7206 6.38649 36.462 6.38649Z" fill="var(--fill-0, #0A0F0F)"/>
</g>
<path id="Vector_3" d="M0.017802 37.8242C-0.00567824 37.638 -0.00567824 37.1902 0.017802 37.004C0.499147 33.2355 6.33902 33.4937 6.33902 37.4133C6.33902 41.3261 0.500824 41.5978 0.017802 37.8225V37.8242Z" fill="var(--fill-0, #F9A61B)"/>
<g id="Group_4">
<path id="Vector_4" d="M20.6763 40.5377V40.6014H12.5286V40.5377C15.0343 40.6853 18.1488 40.6199 20.6763 40.5377Z" fill="var(--fill-0, #FDE8C5)"/>
<path id="Vector_5" d="M20.6728 40.5364C18.1436 40.6186 15.0292 40.684 12.5252 40.5364C8.43456 40.2949 8.5486 34.5121 12.3054 34.1666C17.6103 33.6802 23.6229 35.8488 27.2053 30.5641C30.5563 25.6215 27.6179 18.8122 21.7613 17.8461C20.6208 17.6583 19.8644 17.9216 18.7776 17.2944C16.1596 15.7832 17.0568 11.6843 19.9483 11.3958C25.0284 10.8893 30.6184 14.3493 33.0653 18.6696C38.6 28.4424 31.7857 40.1725 20.6745 40.5364H20.6728Z" fill="var(--fill-0, #F9A61A)"/>
</g>
</g>
<g id="Group_5">
<path id="Vector_6" d="M82.1945 19.3122C82.1291 19.5169 79.7911 19.9294 79.4389 19.9663C73.6963 20.5802 69.9428 17.4875 70.9709 11.5101C71.8984 6.1197 77.5923 4.93394 81.9999 7.04884L81.1798 9.50085C80.6397 9.33817 80.1399 9.0564 79.5898 8.9172C78.4796 8.63711 76.9081 8.62705 75.8632 9.14194C73.6913 10.2136 73.5588 14.0426 74.6892 15.8908C75.6871 17.521 77.4213 17.5697 79.1605 17.3869V12.7193H82.1928V19.3106L82.1945 19.3122Z" fill="var(--fill-0, #0A0F0F)"/>
<path id="Vector_7" d="M55.0337 6.98244L54.1146 9.37742C53.0261 8.81054 51.8772 8.58412 50.6462 8.68643C49.6953 8.76526 48.8315 9.364 49.3615 10.4089C49.754 11.1804 51.8034 11.7036 52.632 12.0626C54.2974 12.7837 55.5167 13.624 55.6643 15.593C55.8236 17.7129 54.8475 19.2224 52.7863 19.7808C50.6563 20.3578 47.9175 20.076 45.9468 19.0831C45.8059 18.8601 46.6747 17.0236 46.6965 16.6328C47.9393 17.2919 50.8659 17.9209 52.0601 17.1024C52.6789 16.6781 52.6538 15.6785 52.1406 15.1821C50.5607 13.6525 46.5506 13.9846 46.143 10.7829C45.5007 5.74301 51.7196 5.23483 55.0337 6.98411V6.98244Z" fill="var(--fill-0, #0A0F0F)"/>
<path id="Vector_8" d="M70.1958 19.7866H67.0058L63.3429 9.50396L59.7739 19.7866H56.6158L61.9827 6.38108C62.0951 6.30561 64.3928 6.31567 64.6729 6.34922C64.7635 6.35928 64.8389 6.35593 64.8859 6.4532L70.1975 19.7883L70.1958 19.7866Z" fill="var(--fill-0, #0A0F0F)"/>
<path id="Vector_9" d="M106.514 19.7865H103.292L99.6609 9.56759L96.1556 19.7865H92.9958L98.3644 6.38098H101.145L106.514 19.7865Z" fill="var(--fill-0, #0A0F0F)"/>
<path id="Vector_10" d="M92.241 19.7865H88.9253C87.9223 18.1579 87.0485 16.4254 85.8309 14.9294H84.3785L84.2846 14.8355V12.5646L84.3785 12.4707H86.1479C86.3307 12.4707 86.9848 12.313 87.1877 12.2476C87.867 12.0246 88.2578 11.5935 88.3265 10.8623C88.5362 8.6216 85.8209 8.75409 84.2846 8.87652V6.32221C84.3399 6.23164 84.4104 6.235 84.5026 6.22493C85.8477 6.06728 88.1286 6.39768 89.3513 7.00314C91.2364 7.93731 91.8402 9.97506 91.2968 11.9373C90.9681 13.1264 90.0708 13.7923 89.0226 14.3374C89.7286 15.3453 90.4347 16.3483 91.0536 17.4133C91.4897 18.163 91.9542 18.9814 92.2427 19.7898L92.241 19.7865Z" fill="var(--fill-0, #0A0F0F)"/>
</g>
<path id="Vector_11" d="M82.0067 26.0256C82.0067 27.7699 80.5895 29.1854 78.8436 29.1854C77.0977 29.1854 75.6805 27.7715 75.6805 26.0256C75.6805 24.2797 77.0977 22.8658 78.8436 22.8658C80.5895 22.8658 82.0067 24.2797 82.0067 26.0256ZM80.779 26.0223C80.779 24.9573 79.9136 24.0935 78.8469 24.0935C77.7803 24.0935 76.9148 24.9573 76.9148 26.0223C76.9148 27.0873 77.7803 27.951 78.8469 27.951C79.9136 27.951 80.779 27.0873 80.779 26.0223Z" fill="var(--fill-0, #0C1111)"/>
<path id="Vector_12" d="M94.1421 26.0271C94.1421 27.7714 92.7265 29.1852 90.9789 29.1852C89.2313 29.1852 87.8158 27.7714 87.8158 26.0271C87.8158 24.2829 89.2313 22.869 90.9789 22.869C92.7265 22.869 94.1421 24.2829 94.1421 26.0271ZM92.9211 26.0204C92.9211 24.9554 92.0573 24.0917 90.9907 24.0917C89.924 24.0917 89.0603 24.9554 89.0603 26.0204C89.0603 27.0854 89.924 27.9491 90.9907 27.9491C92.0573 27.9491 92.9211 27.0854 92.9211 26.0204Z" fill="var(--fill-0, #0C1111)"/>
<path id="Vector_13" d="M73.3526 26.5967V22.9388H74.6155V29.0571L74.3924 28.9967L70.2566 25.525V29.1209H68.9937V22.9388L73.3526 26.5967Z" fill="var(--fill-0, #0C1111)"/>
<path id="Vector_14" d="M100.262 28.4579C99.1648 29.3686 97.2948 29.4172 96.109 28.6306C94.7891 27.7552 94.561 26.0126 95.153 24.6189C95.9514 22.7438 98.2508 22.5073 99.9397 23.2604L99.6294 24.4528C98.2457 23.8675 96.2885 23.9296 96.1543 25.8063C96.047 27.304 97.0868 28.0688 98.5241 27.9212C99.2118 27.8508 98.9619 27.6126 98.9988 27.039H97.9254V25.9354L98.0193 25.8415H100.262V28.4596V28.4579Z" fill="var(--fill-0, #0B1010)"/>
<path id="Vector_15" d="M63.5636 22.9388V25.3992H66.2806V22.9388H67.5435V29.1209H66.3745L66.2806 29.0253V26.5967H63.5636V29.1209H62.3946L62.3007 29.0253V22.9388H63.5636Z" fill="var(--fill-0, #0A0F0F)"/>
<path id="Vector_16" d="M55.3513 22.9388V24.138H52.3827V25.3992H54.9404L55.036 25.4932V26.5967H52.3827V27.9217H55.477V29.1209H51.1198V22.9388H55.3513Z" fill="var(--fill-0, #0C1111)"/>
<path id="Vector_17" d="M58.0919 24.5375C56.7217 25.8373 57.7732 28.504 59.977 27.9019C60.2923 27.8164 60.4919 27.5866 60.7821 27.5447L61.2164 28.5325C61.2466 28.8277 59.9401 29.1598 59.6785 29.1816C57.1074 29.3963 55.556 27.0516 56.46 24.7053C57.1929 22.8034 59.4185 22.3757 61.0739 23.3786L60.6244 24.5141C59.8361 23.9941 58.8315 23.8365 58.0919 24.5375Z" fill="var(--fill-0, #0C1111)"/>
<path id="Vector_18" d="M102.127 22.9388L103.61 25.7145L104.968 22.9388H106.452L104.18 27.1334V29.0253L104.084 29.1209H102.915V27.1972L100.641 22.9388H102.127Z" fill="var(--fill-0, #0B1010)"/>
<path id="Vector_19" d="M50.0467 22.9388V24.138H48.5926V29.1209H47.3297V24.138H45.8773V22.9388H50.0467Z" fill="var(--fill-0, #0E1313)"/>
<path id="Vector_20" d="M84.3395 22.9388V27.9217H87.2444V29.1209H83.0766V22.9388H84.3395Z" fill="var(--fill-0, #0F1313)"/>
<path id="Vector_21" d="M78.844 27.95C79.9111 27.95 80.7761 27.0865 80.7761 26.0213C80.7761 24.9561 79.9111 24.0925 78.844 24.0925C77.7769 24.0925 76.9119 24.9561 76.9119 26.0213C76.9119 27.0865 77.7769 27.95 78.844 27.95Z" fill="var(--fill-0, #FCFCFC)"/>
<path id="Vector_22" d="M90.9906 27.9484C92.0567 27.9484 92.921 27.0849 92.921 26.0197C92.921 24.9545 92.0567 24.0909 90.9906 24.0909C89.9245 24.0909 89.0602 24.9545 89.0602 26.0197C89.0602 27.0849 89.9245 27.9484 90.9906 27.9484Z" fill="var(--fill-0, #FCFCFC)"/>
</g>
</svg>
