<svg preserveAspectRatio="xMidYMid meet" width="54.4133" height="5.02065" overflow="visible" style="display: block;" viewBox="0 0 54.4133 5.02065" fill="none" xmlns="http://www.w3.org/2000/svg">
<g id="DLAFIRM.PL">
<path id="Vector" d="M51.3036 4.94988V0H51.974V4.94988H51.3036ZM51.7601 4.94988V4.3365H54.4133V4.94988H51.7601Z" fill="var(--fill-0, #FF6C38)"/>
<path id="Vector_2" d="M45.8428 3.02414V2.43928H47.1908C47.3763 2.43928 47.5403 2.40124 47.683 2.32516C47.8304 2.24908 47.9445 2.1421 48.0253 2.0042C48.1109 1.86631 48.1537 1.70227 48.1537 1.51207C48.1537 1.32187 48.1109 1.15783 48.0253 1.01993C47.9445 0.88204 47.8304 0.775053 47.683 0.698975C47.5403 0.622896 47.3763 0.584856 47.1908 0.584856H45.8428V0H47.2336C47.5379 0 47.809 0.061814 48.0467 0.185442C48.2892 0.30907 48.4794 0.485003 48.6173 0.71324C48.76 0.936721 48.8313 1.203 48.8313 1.51207C48.8313 1.81638 48.76 2.08266 48.6173 2.3109C48.4794 2.53438 48.2892 2.71031 48.0467 2.83869C47.809 2.96232 47.5379 3.02414 47.2336 3.02414H45.8428ZM45.3935 4.94988V0H46.0639V4.94988H45.3935Z" fill="var(--fill-0, #FF6C38)"/>
<path id="Vector_3" d="M42.1335 5.02065C42.0004 5.02065 41.8886 4.97548 41.7983 4.88513C41.7127 4.79003 41.6699 4.67829 41.6699 4.54991C41.6699 4.41677 41.7127 4.30741 41.7983 4.22182C41.8886 4.13148 42.0004 4.0863 42.1335 4.0863C42.2666 4.0863 42.376 4.13148 42.4616 4.22182C42.5519 4.30741 42.5971 4.41677 42.5971 4.54991C42.5971 4.67829 42.5519 4.79003 42.4616 4.88513C42.376 4.97548 42.2666 5.02065 42.1335 5.02065Z" fill="var(--fill-0, #FF6C38)"/>
<path id="Vector_4" d="M34.0606 4.94988V0H34.5314L36.6283 3.44495H36.3073L38.4043 0H38.875V4.94988H38.2046V1.17685L38.3615 1.21964L36.7068 3.93708H36.236L34.5813 1.21964L34.7311 1.17685V4.94988H34.0606Z" fill="var(--fill-0, #FF6C38)"/>
<path id="Vector_5" d="M28.4745 2.7959V2.23244H29.8154C30.1054 2.23244 30.3289 2.15874 30.4858 2.01134C30.6427 1.86393 30.7212 1.66423 30.7212 1.41221C30.7212 1.17447 30.6427 0.977138 30.4858 0.820225C30.3337 0.663312 30.1126 0.584856 29.8225 0.584856H28.4745V0H29.8439C30.1577 0 30.4311 0.061814 30.6641 0.185442C30.8971 0.304315 31.0754 0.46836 31.1991 0.677577C31.3274 0.886794 31.3916 1.12692 31.3916 1.39795C31.3916 1.67849 31.3274 1.92337 31.1991 2.13259C31.0754 2.3418 30.8971 2.50585 30.6641 2.62472C30.4311 2.73884 30.1577 2.7959 29.8439 2.7959H28.4745ZM28.0251 4.94988V0H28.6956V4.94988H28.0251ZM30.8781 4.94988L29.0807 2.73171L29.7155 2.5106L31.7269 4.94988H30.8781Z" fill="var(--fill-0, #FF6C38)"/>
<path id="Vector_6" d="M24.5457 4.94988V0H25.2162V4.94988H24.5457Z" fill="var(--fill-0, #FF6C38)"/>
<path id="Vector_7" d="M18.8657 4.94988V0H19.5362V4.94988H18.8657ZM19.3222 2.7745V2.16112H21.9041V2.7745H19.3222ZM19.3222 0.613386V0H22.0254V0.613386H19.3222Z" fill="var(--fill-0, #FF6C38)"/>
<path id="Vector_8" d="M11.9511 4.94988L13.9767 0H14.4617L16.4801 4.94988H15.7526L14.0908 0.763166H14.3404L12.6643 4.94988H11.9511ZM12.9139 3.8301V3.24524H15.5173V3.8301H12.9139Z" fill="var(--fill-0, #FF6C38)"/>
<path id="Vector_9" d="M6.9201 4.94988V0H7.59054V4.94988H6.9201ZM7.37657 4.94988V4.3365H10.0298V4.94988H7.37657Z" fill="var(--fill-0, #FF6C38)"/>
<path id="Vector_10" d="M0.44222 4.94989V4.3365H1.81877C2.1849 4.3365 2.50586 4.25804 2.78165 4.10113C3.05743 3.93946 3.2714 3.71836 3.42356 3.43782C3.58047 3.15728 3.65893 2.83394 3.65893 2.46781C3.65893 2.10644 3.58047 1.78548 3.42356 1.50494C3.26665 1.2244 3.0503 1.00567 2.77451 0.848757C2.49873 0.691844 2.18015 0.613388 1.81877 0.613388H0.449352V1.90735e-06H1.83304C2.19441 1.90735e-06 2.52726 0.0618159 2.83157 0.185444C3.14064 0.309072 3.40692 0.482627 3.6304 0.706109C3.85864 0.929591 4.03457 1.19111 4.1582 1.49067C4.28658 1.79023 4.35077 2.11832 4.35077 2.47494C4.35077 2.82681 4.28658 3.1549 4.1582 3.45921C4.03457 3.75877 3.86101 4.0203 3.63753 4.24378C3.41405 4.46726 3.14778 4.64081 2.8387 4.76444C2.53439 4.88807 2.20392 4.94989 1.8473 4.94989H0.44222ZM1.14441e-05 4.94989V1.90735e-06H0.670457V4.94989H1.14441e-05Z" fill="var(--fill-0, #FF6C38)"/>
</g>
</svg>
