<svg preserveAspectRatio="xMidYMid meet" width="106.237" height="31.6916" overflow="visible" style="display: block;" viewBox="0 0 106.237 31.6916" fill="none" xmlns="http://www.w3.org/2000/svg">
<g id="Layer_1" clip-path="url(#clip0_11002_190708)">
<path id="Vector" d="M26.271 3.45362C26.5265 3.45362 26.8237 3.50117 27.0615 3.57249C27.3765 3.66759 27.6856 3.99449 27.9352 4.04204C28.1729 4.08959 28.5652 3.83996 28.8802 3.8459C30.4672 3.86967 31.5727 5.37342 31.4776 6.88906C31.2339 10.6455 26.1818 12.0838 24.1312 8.7197C22.9663 6.81179 23.632 3.40607 26.265 3.45362" fill="var(--fill-0, #411303)"/>
<path id="Vector_2" d="M32.2858 1.28917C32.8445 1.44965 33.4686 1.75277 33.9084 2.12722C34.6989 2.8048 34.9545 3.87466 35.2754 4.80782C35.2041 5.15255 34.7286 5.17038 34.4374 5.20604C32.1609 5.46756 30.5146 3.95787 30.8949 1.65173C29.3199 2.23421 27.9588 3.34567 27.1742 4.84348C26.9067 5.35463 26.8711 6.20458 26.1044 5.88362C26.5382 3.89249 28.0836 2.2461 29.8726 1.36049C30.1876 1.20596 31.0911 0.938491 31.2575 0.819617C31.3407 0.760181 31.412 0.552153 31.519 0.45111C31.8935 0.100434 32.1372 -0.232411 32.6246 0.195533C33.213 0.724519 32.6899 0.944434 32.2858 1.28322" fill="var(--fill-0, #411303)"/>
<path id="Vector_3" d="M12.3329 31.2999C9.99708 31.2999 7.89303 30.8184 6.02672 29.8496C4.15446 28.8867 2.68638 27.4484 1.61058 25.5405C0.534773 23.6325 -0.000156948 21.2848 -0.000156948 18.4972C-0.000156948 15.7096 0.540716 13.3025 1.62841 11.2757C2.71015 9.24887 4.20201 7.69758 6.09804 6.60989C7.99407 5.52814 10.1576 4.98132 12.5885 4.98132C15.3999 4.98132 17.5574 5.3736 19.0612 6.16411C20.5649 6.95462 21.3138 8.11958 21.3138 9.66493C21.3138 10.8596 20.9929 11.8403 20.3509 12.613C19.709 13.3857 18.8234 13.7779 17.706 13.7779C16.755 13.7779 15.8278 13.6531 14.9363 13.4035C14.0447 13.1539 12.9986 13.029 11.8099 13.029C10.2824 13.029 9.08176 13.4689 8.2021 14.3545C7.32244 15.2341 6.87666 16.3932 6.87666 17.8196C6.87666 19.2461 7.31649 20.3992 8.2021 21.3383C9.08176 22.2774 10.2883 22.7529 11.8099 22.7529C12.6182 22.7529 13.3671 22.6875 14.0447 22.5567C14.7223 22.426 15.388 22.2893 16.0477 22.1466C16.7015 22.004 17.4088 21.9327 18.1756 21.9327C19.4356 21.9327 20.3688 22.3428 20.9631 23.163C21.5575 23.9832 21.8547 25.0055 21.8547 26.218C21.8547 27.4305 21.4149 28.4172 20.5352 29.1661C19.6555 29.915 18.4906 30.4559 17.0522 30.7947C15.6079 31.1275 14.0447 31.2939 12.3508 31.2939" fill="var(--fill-0, #411303)"/>
<path id="Vector_4" d="M26.9542 31.2269C25.8309 31.2269 24.9988 30.9179 24.4519 30.2997C23.9051 29.6816 23.6317 28.903 23.6317 27.9757V15.7496C23.6317 14.7273 23.9051 13.913 24.4519 13.3187C24.9988 12.7243 25.8309 12.4271 26.9542 12.4271C28.0776 12.4271 28.9156 12.7243 29.4743 13.3187C30.033 13.913 30.3124 14.7035 30.3124 15.6783V27.9757C30.3124 28.903 30.0212 29.6816 29.4387 30.2997C28.8562 30.9179 28.0241 31.2269 26.9542 31.2269Z" fill="var(--fill-0, #411303)"/>
<path id="Vector_5" d="M37.5698 31.2277C35.8045 31.2277 34.4315 30.7522 33.439 29.7953C32.4523 28.8443 31.953 27.507 31.953 25.7893C31.953 24.0715 32.5236 22.8293 33.6708 22.0507C34.8119 21.278 36.28 20.8917 38.0691 20.8917C39.1152 20.8917 40.0721 20.963 40.928 21.1056C41.7839 21.2483 42.5625 21.4504 43.2519 21.7119H43.3589V21.177C43.3589 20.6302 43.1568 20.1963 42.7527 19.8694C42.3485 19.5484 41.8373 19.3998 41.2133 19.4236C40.6189 19.4236 40.1137 19.4593 39.6917 19.5306C39.2756 19.6019 38.7585 19.7208 38.1344 19.8872C36.9873 20.1725 36.0007 20.1487 35.1686 19.8159C34.3364 19.483 33.7599 18.8292 33.4508 17.8485C33.1655 16.8262 33.2309 15.9644 33.647 15.2749C34.063 14.5855 34.699 14.0505 35.5608 13.6642C36.2979 13.3076 37.13 13.0104 38.0453 12.7726C38.9606 12.5349 39.9592 12.416 41.029 12.416C44.1494 12.416 46.4437 13.1709 47.9118 14.6865C49.3799 16.2021 50.1109 18.7341 50.1109 22.2825V27.822C50.1109 28.7968 49.8137 29.611 49.2194 30.2529C48.625 30.8949 47.7988 31.2158 46.7528 31.2158C45.6056 31.2158 44.7557 30.8949 44.197 30.2529C43.6383 29.611 43.3589 28.8265 43.3589 27.8933V27.0731H42.6457C42.6457 27.6912 42.5328 28.3213 42.3069 28.9691C42.081 29.611 41.6174 30.1519 40.9161 30.5798C40.2147 31.0078 39.0973 31.2218 37.5757 31.2218M37.9264 23.3999C37.9264 23.8041 38.075 24.0894 38.3722 24.2558C38.6694 24.4222 39.3172 24.5054 40.3217 24.5054C41.2251 24.5054 41.8611 24.4222 42.2177 24.2558C42.5744 24.0894 42.7527 23.8041 42.7527 23.3999C42.7527 23.0195 42.5744 22.752 42.2177 22.5975C41.8611 22.443 41.2311 22.3657 40.3217 22.3657C39.3232 22.3657 38.6694 22.443 38.3722 22.5975C38.075 22.752 37.9264 23.0195 37.9264 23.3999Z" fill="var(--fill-0, #411303)"/>
<path id="Vector_6" d="M60.625 31.6921C58.9787 31.6921 57.463 31.5316 56.0663 31.2107C54.6695 30.8897 53.558 30.3786 52.7259 29.6713C51.8938 28.9699 51.4777 28.0308 51.4777 26.8659C51.4777 25.8436 51.7868 24.9936 52.405 24.3279C53.0231 23.6622 53.8493 23.3294 54.8716 23.3294C55.5135 23.3294 56.1673 23.4304 56.8211 23.6325C57.4749 23.8346 58.1703 24.0307 58.9133 24.2209C59.6503 24.4111 60.4527 24.5062 61.3086 24.5062C62.0694 24.5062 62.5805 24.4646 62.848 24.3814C63.1095 24.2982 63.2403 24.1377 63.2403 23.9C63.2403 23.6147 63.0798 23.4245 62.7588 23.3294C62.4379 23.2343 61.897 23.1154 61.1303 22.9728L58.5566 22.4735C57.4868 22.2595 56.4407 21.9802 55.4303 21.6354C54.4199 21.2907 53.5818 20.7736 52.928 20.0782C52.2742 19.3887 51.9473 18.4437 51.9473 17.255C51.9473 15.6323 52.6665 14.3723 54.1108 13.4629C55.5551 12.5595 57.6413 12.1018 60.3814 12.1018C61.9564 12.1018 63.3651 12.2563 64.6192 12.5654C65.8733 12.8745 66.8659 13.3321 67.6029 13.9384C68.3399 14.5447 68.7084 15.3054 68.7084 16.2089C68.7322 17.1836 68.4707 17.9741 67.9239 18.5685C67.377 19.1629 66.6876 19.4601 65.8495 19.4601C65.2552 19.4601 64.6548 19.3828 64.0427 19.2283C63.4364 19.0737 62.7826 18.9073 62.0753 18.729C61.3739 18.5507 60.5656 18.4496 59.6622 18.4259C59.0203 18.3783 58.4913 18.414 58.0871 18.5329C57.6829 18.6517 57.4808 18.8419 57.4808 19.1034C57.4808 19.3887 57.7186 19.5849 58.1941 19.6919C58.6696 19.7989 59.3828 19.9356 60.3397 20.102L62.8777 20.5656C64.429 20.8271 65.6593 21.154 66.5806 21.5463C67.4959 21.9386 68.1557 22.4794 68.5658 23.1749C68.9699 23.8643 69.172 24.8212 69.172 26.0338C69.172 27.2463 68.8095 28.3518 68.0843 29.1958C67.3592 30.0398 66.3488 30.6698 65.065 31.074C63.7752 31.4781 62.3012 31.6802 60.631 31.6802" fill="var(--fill-0, #411303)"/>
<path id="Vector_7" d="M80.2156 31.3358C78.9555 31.3358 77.8143 31.0505 76.8039 30.4799C75.7875 29.9094 74.997 29.0891 74.4264 28.0312C73.8558 26.9732 73.5705 25.725 73.5705 24.2926V18.0042L72.251 18.1825C71.5378 18.2776 70.9018 18.028 70.355 17.4336C69.8082 16.8392 69.5348 16.0844 69.5348 15.181C69.5348 14.2775 69.8082 13.5346 70.355 12.9461C70.9018 12.3637 71.5378 12.12 72.251 12.2151L73.5705 12.3934L73.5349 9.96242C73.5111 9.01143 73.7845 8.25064 74.3551 7.69194C74.9257 7.13323 75.7637 6.85388 76.8574 6.85388C77.951 6.85388 78.801 7.13323 79.3953 7.69194C79.9897 8.25064 80.2631 9.01143 80.2156 9.96242L80.1442 12.3934L82.0403 12.1437C83.3241 11.9535 84.3048 12.1853 84.9705 12.8392C85.6362 13.493 85.969 14.2775 85.969 15.181C85.969 16.0844 85.6421 16.869 84.9883 17.5228C84.3345 18.1766 83.3835 18.4203 82.1472 18.2538L80.1442 18.0042V23.3297C80.1442 23.6388 80.2512 23.9181 80.4652 24.1678C80.6792 24.4174 80.9407 24.4947 81.2497 24.3996C81.6064 24.3045 81.9808 24.1024 82.3731 23.7933C82.7654 23.4843 83.2706 23.3297 83.8947 23.3297C84.8219 23.3297 85.5411 23.6626 86.0403 24.3283C86.5396 24.9939 86.7892 25.8201 86.7892 26.7949C86.7892 27.5557 86.5218 28.2927 85.9868 28.994C85.4519 29.6954 84.6911 30.266 83.7164 30.6939C82.7357 31.1219 81.5707 31.3358 80.2156 31.3358Z" fill="var(--fill-0, #411303)"/>
<path id="Vector_8" d="M93.6899 31.2277C91.9246 31.2277 90.5516 30.7522 89.559 29.7953C88.5724 28.8443 88.0731 27.507 88.0731 25.7893C88.0731 24.0715 88.6437 22.8293 89.7908 22.0507C90.938 21.278 92.4001 20.8917 94.1892 20.8917C95.2352 20.8917 96.1922 20.963 97.0481 21.1056C97.9039 21.2483 98.6826 21.4504 99.372 21.7119H99.479V21.177C99.479 20.6302 99.2769 20.1963 98.8728 19.8694C98.4686 19.5484 97.9574 19.3998 97.3333 19.4236C96.739 19.4236 96.2278 19.4593 95.8118 19.5306C95.3957 19.6019 94.8786 19.7208 94.2545 19.8872C93.1134 20.1725 92.1208 20.1487 91.2886 19.8159C90.4565 19.483 89.88 18.8292 89.5709 17.8485C89.2856 16.8262 89.351 15.9644 89.7671 15.2749C90.1831 14.5855 90.8191 14.0505 91.6809 13.6642C92.4179 13.3076 93.2441 13.0104 94.1654 12.7726C95.0807 12.5349 96.0792 12.416 97.1491 12.416C100.27 12.416 102.564 13.1709 104.032 14.6865C105.5 16.2021 106.231 18.7341 106.231 22.2825V27.822C106.231 28.7968 105.934 29.611 105.339 30.2529C104.745 30.8949 103.919 31.2158 102.873 31.2158C101.732 31.2158 100.876 30.8949 100.317 30.2529C99.7584 29.611 99.479 28.8265 99.479 27.8933V27.0731H98.7658C98.7658 27.6912 98.6528 28.3213 98.427 28.9691C98.2011 29.611 97.7375 30.1519 97.0302 30.5798C96.3289 31.0078 95.2115 31.2218 93.6899 31.2218M94.0465 23.3999C94.0465 23.8041 94.1951 24.0894 94.4923 24.2558C94.7895 24.4222 95.4373 24.5054 96.4418 24.5054C97.3452 24.5054 97.9812 24.4222 98.3378 24.2558C98.6944 24.0894 98.8728 23.8041 98.8728 23.3999C98.8728 23.0195 98.6944 22.752 98.3378 22.5975C97.9812 22.443 97.3512 22.3657 96.4418 22.3657C95.4433 22.3657 94.7895 22.443 94.4923 22.5975C94.1951 22.752 94.0465 23.0195 94.0465 23.3999Z" fill="var(--fill-0, #411303)"/>
</g>
<defs>
<clipPath id="clip0_11002_190708">
<rect width="106.237" height="31.6916" fill="white"/>
</clipPath>
</defs>
</svg>
