<svg preserveAspectRatio="xMidYMid meet" width="108.872" height="40.9443" overflow="visible" style="display: block;" viewBox="0 0 108.872 40.9443" fill="none" xmlns="http://www.w3.org/2000/svg">
<g id="Group">
<path id="Vector" d="M59.3551 28.6128C57.9015 29.1875 56.4557 29.7812 54.9943 30.3337C44.643 34.2523 34.1079 37.5438 23.2031 39.5477C18.5804 40.3976 13.9256 41.0625 9.21162 40.9267C7.33475 40.8721 5.46675 40.5034 3.59655 40.2672C3.38157 40.2405 3.17327 40.1458 2.96609 40.0723C-0.169482 38.9606 -0.912436 36.8755 1.18611 34.2757C2.574 32.5548 4.20584 30.9195 6.0248 29.6798C9.61037 27.236 13.3987 25.0906 17.1135 22.8384C17.3674 22.6846 17.7071 22.6033 18.0068 22.6022C21.5701 22.5877 25.1334 22.5933 28.6956 22.5977C28.7769 22.5977 28.8593 22.6401 29.1478 22.7203C28.6499 22.9721 28.3001 23.1402 27.9571 23.3229C23.7344 25.5696 19.486 27.7728 15.3056 30.0964C14.0536 30.7926 12.9732 31.8073 11.8471 32.7173C11.4617 33.0293 11.1397 33.4392 10.8501 33.8479C9.88331 35.2136 10.1695 36.2695 11.7936 36.7184C13.0835 37.0749 14.4524 37.2687 15.7913 37.2987C20.444 37.4045 25.0265 36.6939 29.5911 35.8953C39.4378 34.1732 49.0796 31.6246 58.601 28.6072C58.8271 28.5359 59.0621 28.4924 59.2938 28.4367C59.3139 28.4946 59.3328 28.5537 59.3529 28.6116L59.3551 28.6128Z" fill="var(--fill-0, #BDBBBC)"/>
<path id="Vector_2" d="M26.9967 9.56433H29.9417V21.2434H26.9967V9.56433Z" fill="var(--fill-0, #223161)"/>
<path id="Vector_3" d="M41.9853 25.4049H40.4705V26.4999H42.3752V27.3553H39.419V22.7405H42.2794V23.596H40.4716V24.555H41.9865V25.4038L41.9853 25.4049Z" fill="var(--fill-0, #223161)"/>
<path id="Vector_4" d="M43.7164 22.7421H44.7679V26.4802H46.6103V27.3569H43.7164V22.7421Z" fill="var(--fill-0, #223161)"/>
<path id="Vector_5" d="M50.4181 25.4049H48.9066V26.4999H50.8113V27.3553H47.855V22.7405H50.7155V23.596H48.9077V24.555H50.4193V25.4038L50.4181 25.4049Z" fill="var(--fill-0, #223161)"/>
<path id="Vector_6" d="M52.1535 22.7416H53.1916V24.7822H53.2117C53.3153 24.604 53.4244 24.4403 53.528 24.2754L54.5795 22.7416H55.8649L54.3322 24.7065L55.9474 27.3564H54.7232L53.5893 25.3637L53.1905 25.8493V27.3553H52.1524V22.7405L52.1535 22.7416Z" fill="var(--fill-0, #223161)"/>
<path id="Vector_7" d="M57.9352 23.6187H56.691V22.7421H60.252V23.6187H58.9867V27.3569H57.9352V23.6187Z" fill="var(--fill-0, #223161)"/>
<path id="Vector_8" d="M61.4327 22.8045C61.7691 22.7499 62.2715 22.7087 62.8284 22.7087C63.5157 22.7087 63.9969 22.8112 64.3277 23.0718C64.6028 23.2913 64.7543 23.6121 64.7543 24.0365C64.7543 24.6257 64.3343 25.0289 63.9367 25.1726V25.1927C64.2598 25.323 64.4391 25.6304 64.555 26.0548C64.6998 26.575 64.8434 27.1776 64.9336 27.3558H63.861C63.7852 27.2255 63.675 26.849 63.5379 26.2809C63.4143 25.7061 63.2149 25.548 62.7883 25.5413H62.472V27.3558H61.4338V22.8034L61.4327 22.8045ZM62.4709 24.7895H62.883C63.4054 24.7895 63.715 24.5299 63.715 24.1255C63.715 23.7012 63.4265 23.4884 62.9454 23.4818C62.6914 23.4818 62.5466 23.5029 62.4709 23.5163V24.7895Z" fill="var(--fill-0, #223161)"/>
<path id="Vector_9" d="M69.27 25.1115C69.27 26.4872 68.7127 27.4328 67.5723 27.4328C66.4317 27.4328 65.9082 26.3992 65.9014 25.1394C65.9014 23.8528 66.4517 22.8325 67.6068 22.8325C68.7617 22.8325 69.2707 23.8941 69.2707 25.1126L69.27 25.1115ZM66.953 25.1394C66.9463 26.1597 67.1936 26.6453 67.599 26.6453C68.0045 26.6453 68.2248 26.1385 68.2248 25.126C68.2248 24.1135 68.0123 23.62 67.5923 23.62C67.2069 23.62 66.9463 24.1057 66.953 25.1405V25.1394Z" fill="var(--fill-0, #223161)"/>
<path id="Vector_10" d="M70.5797 27.3569V22.7421H71.8038L72.766 24.433C73.0409 24.9186 73.3165 25.4945 73.5227 26.0146H73.5424C73.473 25.4054 73.4533 24.7827 73.4533 24.091V22.7421H74.4155V27.3569H73.3151L72.3251 25.5769C72.0495 25.0834 71.748 24.4886 71.5207 23.9473L71.5003 23.954C71.5282 24.5633 71.5418 25.2137 71.5418 25.9667V27.3569H70.5797Z" fill="var(--fill-0, #223161)"/>
<path id="Vector_11" d="M77.0018 22.7421V27.3569H75.9498V22.7421H77.0018Z" fill="var(--fill-0, #223161)"/>
<path id="Vector_12" d="M78.5346 22.7416H79.5723V24.7822H79.5928C79.6962 24.604 79.8058 24.4403 79.9092 24.2754L80.9605 22.7416H82.2459L80.7135 24.7065L82.3282 27.3564H81.1041L79.9704 25.3637L79.5717 25.8493V27.3553H78.5333V22.7405L78.5346 22.7416Z" fill="var(--fill-0, #223161)"/>
<path id="Vector_13" d="M49.1233 21.3154H47.7789V21.3321C48.2022 21.331 48.6444 21.3154 49.1233 21.3154Z" fill="var(--fill-0, black)"/>
<path id="Vector_14" d="M43.0245 18.6099H43.8421C43.6504 18.6066 43.4344 18.6066 43.1893 18.6066C43.1347 18.6066 43.0791 18.6077 43.0245 18.6099Z" fill="var(--fill-0, black)"/>
<path id="Vector_15" d="M47.0997 21.3154C47.3225 21.3288 47.5497 21.3333 47.7814 21.3321V21.3154H47.0997Z" fill="var(--fill-0, black)"/>
<path id="Vector_16" d="M15.6029 20.5C15.7288 20.0867 15.8591 19.6746 15.9905 19.2635L15.5137 20.7517C15.545 20.6737 15.5751 20.5913 15.6029 20.5011V20.5Z" fill="var(--fill-0, #12100B)"/>
<path id="Vector_17" d="M26.1124 18.7703H21.7282V16.6562H25.1767V14.0675H21.7448V12.0303C22.1103 12.0303 22.4634 12.0325 22.8142 12.0347C23.2285 12.037 23.6374 12.037 24.0405 12.0303H25.2748L26.0968 9.55746H16.3493C15.6508 12.0904 14.9613 14.5933 14.205 17.3368C13.3964 15.0767 12.6701 13.0149 11.9227 10.9877L11.3836 9.51514H8.69019C8.87065 10.0019 8.88514 10.0364 9.14243 10.7504C9.17026 10.8261 9.19367 10.9074 9.22375 10.9877C9.35297 11.3363 9.51111 11.705 9.42203 11.9901C8.86398 13.7891 8.20454 15.5568 7.50951 17.5384C6.95146 15.7272 6.43906 14.0765 5.93893 12.4424L5.73732 11.7752L5.05451 9.51623H1.98689L2.83455 11.7752C3.84038 14.4696 4.8696 17.1563 5.79635 19.8775L6.25304 21.2955H8.6512L8.86289 20.6718L9.16026 19.7918C9.19816 19.6793 9.23715 19.5657 9.27499 19.4532C9.72056 18.1399 10.194 16.8088 10.7052 15.3351C11.3657 17.2532 11.9628 18.9419 12.522 20.6428L12.6467 20.9792L12.7782 21.2966H15.339L15.5139 20.7519L15.9906 19.2638C16.0073 19.2137 16.0229 19.1624 16.0396 19.1123C16.4495 17.8369 16.8794 16.5671 17.2994 15.295C17.7973 13.7846 18.3008 12.2753 18.802 10.766C18.8633 10.776 18.9245 10.785 18.9847 10.795V21.3189C20.2155 21.3189 21.4174 21.3211 22.607 21.3189H26.1102V20.4546C26.1291 19.9277 26.1102 19.3841 26.1102 18.7715L26.1124 18.7703Z" fill="var(--fill-0, #223161)"/>
<path id="Vector_18" d="M48.0566 18.6093C47.923 18.2718 47.7893 17.9353 47.6568 17.599L47.0942 16.132L44.578 9.57346H42.4805L42.3625 9.87198L41.0069 13.3072C41.0036 13.315 41.0013 13.3228 40.998 13.3306C40.5134 14.5714 40.0244 15.8101 39.5332 17.0476C39.3929 17.4029 39.2514 17.7583 39.111 18.1136C39.0208 18.3419 38.9307 18.5692 38.8404 18.7975C38.8248 18.8365 38.8092 18.8755 38.7947 18.9145C38.5062 19.6451 38.2032 20.3703 37.9136 21.0999V18.7707H34.0819V9.57237H31.4398V21.3249C31.833 21.3249 32.1705 21.3249 32.5069 21.3249C34.4607 21.3249 36.4155 21.3215 38.3692 21.3249C38.5397 21.3249 38.6956 21.3249 38.8404 21.3249V21.3316H40.5558L41.2988 19.2776L41.5415 18.607H42.5385C42.6977 18.6182 42.8582 18.6126 43.0197 18.607C43.0754 18.6048 43.13 18.6037 43.1845 18.6037C43.4296 18.6037 43.6445 18.6037 43.8372 18.607H45.3288L46.0516 20.4695L46.3791 21.3126H49.126C48.7673 20.4004 48.4109 19.5003 48.0566 18.607V18.6093ZM42.3959 16.2489C42.7078 15.3846 43.0007 14.5759 43.3928 13.4899C43.7816 14.548 44.0734 15.3456 44.4054 16.2489H42.3959Z" fill="var(--fill-0, #223161)"/>
<path id="Vector_19" d="M68.5074 9.71638C66.6051 9.43786 64.5467 9.6629 62.5539 9.6629C62.5539 9.71522 62.5562 9.82886 62.5562 9.94692C62.5483 13.3153 62.5495 16.6848 62.5383 20.0532H62.5372V21.3308H64.8975V21.3286C65.7697 21.3319 66.643 21.3352 67.514 21.3052C70.557 21.2004 72.9128 18.9237 73.1713 15.8884C73.4231 12.9421 71.4627 10.1475 68.5074 9.71638ZM69.5791 17.3542C68.5911 18.8658 67.1342 19.2044 65.3475 18.9571V11.8829C67.0362 11.6233 68.4666 11.9218 69.4866 13.3498C70.3365 14.5383 70.3746 16.1379 69.5778 17.3553L69.5791 17.3542Z" fill="var(--fill-0, #223161)"/>
<path id="Vector_20" d="M56.6954 19.3983L56.564 19.2334C56.6074 19.288 56.652 19.3437 56.6954 19.3983Z" fill="var(--fill-0, #12100B)"/>
<path id="Vector_21" d="M58.1833 9.56448V16.5797L54.3359 11.7766C54.327 11.7655 54.3192 11.7555 54.3103 11.7444C53.8703 11.1907 53.4281 10.6383 52.9848 10.088C52.9648 10.0635 52.9436 10.0379 52.9213 10.0111L52.5292 9.52216H51.8898C51.2449 9.49208 50.5877 9.52216 49.8926 9.52216V21.2647H52.5883V14.3218C52.977 14.763 53.1864 14.9802 53.3724 15.2152C54.4373 16.553 55.4955 17.8963 56.5614 19.2341L56.6929 19.3989C56.7909 19.5214 56.89 19.644 56.9881 19.7676H56.9869L58.2278 21.3226H58.9485L59.9867 21.3181L60.8555 21.3159V9.56224H58.181L58.1833 9.56448Z" fill="var(--fill-0, #223161)"/>
<path id="Vector_22" d="M72.5665 20.404L74.957 19.3937C74.1506 19.7044 73.3572 20.052 72.5665 20.404Z" fill="var(--fill-0, #12100B)"/>
<path id="Vector_23" d="M106.761 1.02035C105.268 0.495712 103.651 0.187167 102.07 0.0824627C97.4867 -0.220513 92.9466 0.355363 88.4303 1.09275C80.6505 2.36369 73.0204 4.27733 65.4607 6.48615C62.3263 7.40173 59.2118 8.38419 55.9293 9.38332C56.1799 9.46797 56.2434 9.5137 56.2946 9.50363C56.6644 9.43123 57.032 9.34774 57.3996 9.26526C66.9656 7.14336 76.5541 5.15507 86.3651 4.53352C88.9488 4.36979 91.5441 4.26842 94.055 5.05593C95.6739 5.56386 96.0236 6.64655 94.9084 7.9097C94.0217 8.91441 92.9792 9.82223 91.8775 10.5886C88.6025 12.8676 85.0674 14.6787 81.4773 16.3841L78.9412 17.567L78.571 17.7397L75.745 19.0574L75.0836 19.3369L74.9529 19.3916L72.5631 20.4018C72.0426 20.6335 71.5227 20.8675 71.0001 21.0947C70.5013 21.3241 71.0559 21.0702 70.5013 21.3241H82.5912C82.6347 21.3241 82.6783 21.3219 82.7212 21.3175C84.6197 21.1214 86.3814 20.5155 88.1418 19.572C93.4481 16.7271 98.7891 13.9536 103.582 10.2666C105.384 8.87991 107.132 7.41289 108.28 5.39678C109.415 3.39959 108.923 1.7789 106.761 1.01812V1.02035Z" fill="var(--fill-0, #BDBBBC)"/>
<path id="Vector_24" d="M78.5767 17.6519V12.0102C78.7257 12.0102 78.8727 12.0102 79.019 12.0123H79.0408C79.4865 12.0157 79.9145 12.0213 80.335 12.0123H81.4156L81.7021 11.1547C81.7654 10.9831 81.8259 10.8094 81.8838 10.6334C81.996 10.2937 82.1042 9.94835 82.2213 9.60083H72.4014V12.0413H75.7595C75.7595 13.075 75.7541 14.0787 75.7527 15.0677V19.0599L78.5787 17.7422V17.6531L78.5767 17.6519Z" fill="var(--fill-0, #223161)"/>
</g>
</svg>
