<svg preserveAspectRatio="xMidYMid meet" width="129.964" height="31.6875" overflow="visible" style="display: block;" viewBox="0 0 129.964 31.6875" fill="none" xmlns="http://www.w3.org/2000/svg">
<g id="Group">
<path id="Vector" d="M17.8823 0C7.98632 0 0 7.11055 0 15.8667C0.0147576 17.9245 0.459182 19.9571 1.30536 21.8366C2.15153 23.7163 3.38118 25.4023 4.91704 26.789V15.7213C4.9031 14.1839 5.23434 12.6626 5.88681 11.2675C6.53929 9.87233 7.49671 8.63806 8.68988 7.65398C11.1888 5.45358 14.4384 4.27451 17.7818 4.35512C21.1329 4.26942 24.3916 5.44877 26.8968 7.65398C28.0771 8.64196 29.0255 9.87282 29.6761 11.2608C30.3267 12.6488 30.6637 14.1605 30.6637 15.6906C30.6637 17.2208 30.3267 18.7326 29.6761 20.1206C29.0255 21.5085 28.0771 22.7394 26.8968 23.7273C24.4002 25.9527 21.1404 27.1516 17.7818 27.0798C15.9669 27.1003 14.1653 26.7701 12.4782 26.1077V22.3496C14.0599 23.3504 15.9048 23.8669 17.7818 23.8345C20.1823 23.8872 22.512 23.0271 24.2914 21.4312C25.1382 20.7278 25.8191 19.8494 26.2863 18.8577C26.7534 17.8659 26.9955 16.7849 26.9955 15.6906C26.9955 14.5964 26.7534 13.5154 26.2863 12.5237C25.8191 11.5319 25.1382 10.6535 24.2914 9.95017C22.5017 8.377 20.1743 7.5369 17.7818 7.60041C15.397 7.542 13.0788 8.3818 11.2952 9.95017C10.445 10.6502 9.76214 11.5281 9.2956 12.5207C8.82906 13.5133 8.59051 14.5959 8.59709 15.6906V29.3913C11.4495 30.9061 14.6376 31.6951 17.8745 31.6875C27.7705 31.6875 35.7877 24.5922 35.7877 15.8437C35.7877 7.09525 27.7782 0 17.8823 0Z" fill="var(--fill-0, #252936)"/>
<path id="Vector_2" d="M17.8823 0C7.98632 0 0 7.11055 0 15.8667C0.0147576 17.9245 0.459182 19.9571 1.30536 21.8366C2.15153 23.7163 3.38118 25.4023 4.91704 26.789V15.7213C4.9031 14.1839 5.23434 12.6626 5.88681 11.2675C6.53929 9.87233 7.49671 8.63806 8.68988 7.65398C11.1888 5.45358 14.4384 4.27451 17.7818 4.35512C21.1329 4.26942 24.3916 5.44877 26.8968 7.65398C28.0771 8.64196 29.0255 9.87282 29.6761 11.2608C30.3267 12.6488 30.6637 14.1605 30.6637 15.6906C30.6637 17.2208 30.3267 18.7326 29.6761 20.1206C29.0255 21.5085 28.0771 22.7394 26.8968 23.7273C24.4002 25.9527 21.1404 27.1516 17.7818 27.0798C15.9669 27.1003 14.1653 26.7701 12.4782 26.1077V22.3496C14.0599 23.3504 15.9048 23.8669 17.7818 23.8345C20.1823 23.8872 22.512 23.0271 24.2914 21.4312C25.1382 20.7278 25.8191 19.8494 26.2863 18.8577C26.7534 17.8659 26.9955 16.7849 26.9955 15.6906C26.9955 14.5964 26.7534 13.5154 26.2863 12.5237C25.8191 11.5319 25.1382 10.6535 24.2914 9.95017C22.5017 8.377 20.1743 7.5369 17.7818 7.60041C15.397 7.542 13.0788 8.3818 11.2952 9.95017C10.445 10.6502 9.76214 11.5281 9.2956 12.5207C8.82906 13.5133 8.59051 14.5959 8.59709 15.6906V29.3913C11.4495 30.9061 14.6376 31.6951 17.8745 31.6875C27.7705 31.6875 35.7877 24.5922 35.7877 15.8437C35.7877 7.09525 27.7782 0 17.8823 0Z" fill="var(--fill-0, #252936)"/>
<path id="Vector_3" d="M17.8823 0C7.98632 0 0 7.11055 0 15.8667C0.0147576 17.9245 0.459182 19.9571 1.30536 21.8366C2.15153 23.7163 3.38118 25.4023 4.91704 26.789V15.7213C4.9031 14.1839 5.23434 12.6626 5.88681 11.2675C6.53929 9.87233 7.49671 8.63806 8.68988 7.65398C11.1888 5.45358 14.4384 4.27451 17.7818 4.35512C21.1329 4.26942 24.3916 5.44877 26.8968 7.65398C28.0771 8.64196 29.0255 9.87282 29.6761 11.2608C30.3267 12.6488 30.6637 14.1605 30.6637 15.6906C30.6637 17.2208 30.3267 18.7326 29.6761 20.1206C29.0255 21.5085 28.0771 22.7394 26.8968 23.7273C24.4002 25.9527 21.1404 27.1516 17.7818 27.0798C15.9669 27.1003 14.1653 26.7701 12.4782 26.1077V22.3496C14.0599 23.3504 15.9048 23.8669 17.7818 23.8345C20.1823 23.8872 22.512 23.0271 24.2914 21.4312C25.1382 20.7278 25.8191 19.8494 26.2863 18.8577C26.7534 17.8659 26.9955 16.7849 26.9955 15.6906C26.9955 14.5964 26.7534 13.5154 26.2863 12.5237C25.8191 11.5319 25.1382 10.6535 24.2914 9.95017C22.5017 8.377 20.1743 7.5369 17.7818 7.60041C15.397 7.542 13.0788 8.3818 11.2952 9.95017C10.445 10.6502 9.76214 11.5281 9.2956 12.5207C8.82906 13.5133 8.59051 14.5959 8.59709 15.6906V29.3913C11.4495 30.9061 14.6376 31.6951 17.8745 31.6875C27.7705 31.6875 35.7877 24.5922 35.7877 15.8437C35.7877 7.09525 27.7782 0 17.8823 0Z" fill="var(--fill-0, #912C38)"/>
<path id="Vector_4" d="M38.3461 24.0558V5.60974H42.0725V24.0558H38.3461Z" fill="var(--fill-0, #252936)"/>
<path id="Vector_5" d="M48.7575 24.0561C47.6288 24.1136 46.5212 23.738 45.665 23.0076C45.2619 22.5846 44.9525 22.0828 44.7567 21.5344C44.561 20.9862 44.4833 20.4033 44.5285 19.8235C44.4962 19.2022 44.6301 18.5836 44.9165 18.0299C45.2029 17.4762 45.6318 17.0072 46.1598 16.6701C47.0154 16.119 49.8837 15.8434 54.7646 15.8434C54.8007 15.4469 54.732 15.0479 54.5652 14.6856C54.3986 14.3233 54.1396 14.0101 53.8137 13.7768C53.2983 13.486 50.4996 13.3405 45.4176 13.3405V10.5316H52.8009C54.29 10.4293 55.7681 10.8493 56.9758 11.7179C57.9447 12.519 58.4292 16.6318 58.4292 24.0561H48.7575ZM54.7492 18.5376H50.497C49.9943 18.5183 49.4928 18.5963 49.0203 18.7672C48.7945 18.8699 48.6059 19.0388 48.4801 19.2509C48.3543 19.463 48.2973 19.7083 48.3168 19.9536C48.2944 20.1831 48.3359 20.4142 48.4368 20.622C48.5376 20.8297 48.6939 21.0062 48.8889 21.1323C49.3136 21.3102 49.7738 21.3887 50.2341 21.3619H54.7492V18.5376Z" fill="var(--fill-0, #252936)"/>
<path id="Vector_6" d="M73.4468 22.6945C73.1354 23.1325 72.7184 23.4866 72.2338 23.7245C71.749 23.9625 71.212 24.0767 70.6713 24.0569H61.3939V21.2632H68.9859C69.4577 21.3067 69.9324 21.2165 70.3543 21.003C70.5453 20.8933 70.7038 20.7359 70.814 20.5465C70.9243 20.3571 70.9822 20.1424 70.9822 19.9238C70.9822 19.7052 70.9243 19.4905 70.814 19.301C70.7038 19.1116 70.5453 18.9542 70.3543 18.8445C69.914 18.6539 69.4349 18.5674 68.955 18.5919H66.8057H66.3882C65.9089 18.5919 65.5455 18.5919 65.3058 18.5919H65.2286C64.726 18.5919 64.293 18.5154 63.9297 18.4619C63.3963 18.4086 62.8827 18.2331 62.4298 17.949C61.9841 17.6368 61.6552 17.1875 61.4944 16.6709C61.2781 15.8571 61.1817 15.0167 61.2083 14.1756C61.2099 13.6779 61.3246 13.1868 61.5441 12.7389C61.7636 12.291 62.0822 11.8978 62.4762 11.5886C63.3267 10.8844 67.0866 10.5323 73.7561 10.5323V13.3337H67.3469C66.8011 13.3003 66.2531 13.3338 65.7156 13.4332C65.449 13.5208 65.2207 13.6961 65.0687 13.9301C64.9168 14.1641 64.8504 14.4425 64.8806 14.7191C64.8806 15.4385 65.5378 15.7982 66.8521 15.7982L70.8414 15.8748C71.5165 15.9059 72.1716 16.1116 72.7413 16.4716C73.3111 16.8314 73.7756 17.333 74.0885 17.9261C74.3399 18.6152 74.4604 19.3444 74.4441 20.0769C74.401 21.0321 74.0517 21.949 73.4468 22.6945Z" fill="var(--fill-0, #252936)"/>
<path id="Vector_7" d="M82.3518 24.0558C81.7847 24.0947 81.2167 24.0145 80.6837 23.8206C80.1507 23.6267 79.6652 23.3234 79.2589 22.9307C78.5322 22.1704 78.1689 18.9354 78.1689 13.2254H75.664V10.5313H78.1766V5.60974H81.779V10.5313H85.6449V13.2254H81.779V18.6904C81.7278 19.3558 81.8903 20.0202 82.2429 20.5886C82.6037 20.9749 83.092 21.2217 83.6193 21.2851C84.1092 21.3479 84.6024 21.3735 85.0964 21.3617H85.6449V24.0558H82.3518Z" fill="var(--fill-0, #252936)"/>
<path id="Vector_8" d="M87.7626 8.96981V5.60974H91.4968V8.96981H87.7626ZM87.7626 24.0558V10.5313H91.4968V24.0558H87.7626Z" fill="var(--fill-0, #252936)"/>
<path id="Vector_9" d="M108.191 18.4607C108.152 18.6656 108.126 18.8726 108.114 19.0807C108.117 19.1137 108.117 19.1471 108.114 19.1802C108.075 19.3333 108.044 19.471 108.005 19.5935C107.78 20.4647 107.366 21.2769 106.792 21.9739C106.181 22.7669 105.335 23.3504 104.372 23.6425L102.942 23.9562L102.401 24.0328H102.137C102.022 24.0328 101.736 24.0328 101.288 24.0328H98.2796V28.8854H94.7006V10.5159H101.62C102.924 10.4815 104.213 10.7934 105.354 11.419C106.438 12.0882 107.273 13.0873 107.735 14.2663L107.944 14.825C108.058 15.1075 108.136 15.4034 108.176 15.7053L108.284 16.5701V17.3356L108.191 18.4607ZM103.553 14.2816C103.272 14.0019 102.937 13.7821 102.567 13.6359C102.198 13.4898 101.801 13.4204 101.403 13.432H99.4553L98.2415 13.4856V21.1396H99.5861C101.349 21.1396 102.548 20.9253 103.189 20.4967C104.039 19.9149 104.457 18.8741 104.457 17.3662C104.457 15.8584 104.156 14.825 103.553 14.2816Z" fill="var(--fill-0, #252936)"/>
<path id="Vector_10" d="M122.06 22.3652C120.615 23.6303 118.752 24.3285 116.823 24.3285C114.893 24.3285 113.03 23.6303 111.585 22.3652C110.907 21.701 110.377 20.9036 110.03 20.0243C109.682 19.145 109.524 18.2033 109.567 17.26C109.526 16.3204 109.684 15.3827 110.032 14.5074C110.38 13.6321 110.909 12.8385 111.585 12.1778C112.258 11.5505 113.045 11.0546 113.905 10.7158C114.831 10.3744 115.815 10.2082 116.804 10.226C117.763 10.1811 118.723 10.3289 119.623 10.6603C120.524 10.9918 121.348 11.5001 122.045 12.1548C122.712 12.8257 123.234 13.6248 123.577 14.5028C123.919 15.3809 124.077 16.3193 124.04 17.26C124.079 18.1997 123.924 19.1374 123.584 20.0154C123.243 20.8934 122.725 21.6931 122.06 22.3652ZM119.44 14.4357C119.147 14.0338 118.755 13.7119 118.303 13.5004C117.849 13.2889 117.35 13.1947 116.85 13.2264C116.338 13.2117 115.829 13.3154 115.365 13.5294C114.901 13.7433 114.493 14.0615 114.175 14.4586C113.574 15.2967 113.275 16.3101 113.324 17.3366C113.298 18.3658 113.616 19.3747 114.229 20.2068C114.521 20.6046 114.909 20.9246 115.357 21.1382C115.805 21.3519 116.299 21.4526 116.795 21.4314C117.299 21.4425 117.799 21.3368 118.254 21.1228C118.709 20.9089 119.107 20.5926 119.417 20.1992C120.036 19.3686 120.347 18.3523 120.298 17.3212C120.332 16.2932 120.032 15.2814 119.44 14.4357Z" fill="var(--fill-0, #252936)"/>
<path id="Vector_11" d="M126.229 24.0558V5.60974H129.964V24.0558H126.229Z" fill="var(--fill-0, #252936)"/>
</g>
</svg>
