<svg preserveAspectRatio="xMidYMid meet" width="114.886" height="35.7559" overflow="visible" style="display: block;" viewBox="0 0 114.886 35.7559" fill="none" xmlns="http://www.w3.org/2000/svg">
<g id="Group">
<g id="Group_2">
<path id="Vector" d="M39.6303 28.4014C37.8868 28.4014 36.298 27.9813 34.8531 27.1358C33.4083 26.2956 32.2566 25.1258 31.3982 23.6315C30.5398 22.1373 30.1133 20.4197 30.1133 18.4841C30.1133 16.5485 30.5505 14.7512 31.4196 13.257C32.2886 11.7627 33.4669 10.5982 34.9491 9.75269C36.4313 8.91252 38.0948 8.48711 39.9395 8.48711C41.9869 8.48711 43.613 8.93379 44.8126 9.82714C46.0176 10.7205 46.8706 11.9223 47.3825 13.4271C47.8943 14.932 48.1502 16.6177 48.1502 18.4788C48.1502 19.5264 47.9956 20.6271 47.6917 21.7917C47.3825 22.9509 46.9026 24.0304 46.2522 25.0247C45.6017 26.0191 44.7273 26.8327 43.6397 27.4549C42.552 28.0823 41.2138 28.3908 39.6303 28.3908V28.4014ZM40.9312 24.8812C42.3654 24.8812 43.5863 24.6047 44.5993 24.0569C45.6124 23.5092 46.3801 22.7488 46.9026 21.781C47.4251 20.8132 47.6917 19.7125 47.6917 18.4895C47.6917 17.1388 47.4251 15.9796 46.8866 15.0224C46.3481 14.0652 45.5804 13.3261 44.5834 12.7997C43.5863 12.2785 42.3707 12.0127 40.9365 12.0127C38.8892 12.0127 37.3003 12.6135 36.1754 13.81C35.0504 15.0118 34.4852 16.5645 34.4852 18.4841C34.4852 19.7338 34.7625 20.8451 35.3117 21.8129C35.8608 22.7807 36.6232 23.5358 37.5936 24.0729C38.5639 24.61 39.6783 24.8759 40.9312 24.8759V24.8812ZM47.6917 8.91252H51.989V27.9813H47.9956C47.8943 27.0135 47.8143 26.1787 47.7663 25.4714C47.713 24.7695 47.6917 24.0995 47.6917 23.4614V8.91252Z" fill="var(--fill-0, #0F0B0A)"/>
<path id="Vector_2" d="M65.1955 25.0357C63.4041 25.0357 61.7833 24.7166 60.3384 24.0785C58.8936 23.4404 57.7526 22.5098 56.9209 21.2815C56.0891 20.0584 55.6733 18.5908 55.6733 16.8785C55.6733 15.1663 56.0785 13.688 56.8835 12.4384C57.6886 11.1887 58.8136 10.2156 60.2638 9.52966C61.7087 8.83838 63.3561 8.49806 65.1955 8.49806C65.734 8.49806 66.2512 8.53528 66.7524 8.61504C67.2535 8.68949 67.7334 8.79584 68.1919 8.92346L77.1384 8.96068V12.5235C75.9121 12.55 74.6752 12.3746 73.4329 12.0076C72.1906 11.6354 71.0977 11.2472 70.1486 10.8378L70.0313 10.6091C70.9004 11.0452 71.6895 11.5716 72.3932 12.1991C73.097 12.8266 73.6515 13.5338 74.062 14.3261C74.4726 15.1184 74.6752 16.0118 74.6752 17.0062C74.6752 18.6918 74.27 20.1329 73.4649 21.3347C72.6598 22.5364 71.5455 23.4511 70.1273 24.0892C68.7091 24.7273 67.0616 25.0463 65.1955 25.0463V25.0357ZM71.3376 35.7559V34.8732C71.3376 33.6236 70.9644 32.7408 70.2233 32.2304C69.4822 31.7199 68.4425 31.4646 67.1149 31.4646H61.9326C60.9089 31.4646 60.0345 31.3795 59.3041 31.2147C58.5737 31.0499 57.9925 30.8052 57.5553 30.4862C57.1181 30.1671 56.7982 29.7949 56.5956 29.3748C56.393 28.9547 56.2864 28.4868 56.2864 27.9763C56.2864 26.9553 56.601 26.1896 57.2248 25.6791C57.8539 25.1686 58.6856 24.8389 59.72 24.6847C60.7543 24.5305 61.8526 24.5039 63.0042 24.6103L65.1902 25.0304C63.6814 25.0835 62.5351 25.2165 61.7566 25.4345C60.9782 25.6525 60.5837 26.0779 60.5837 26.716C60.5837 27.0989 60.7383 27.4073 61.0422 27.636C61.3514 27.8646 61.7833 27.9816 62.3485 27.9816H67.7974C69.3595 27.9816 70.7298 28.1677 71.9027 28.5346C73.081 28.9069 73.9927 29.529 74.6485 30.4117C75.299 31.2945 75.6295 32.4962 75.6295 34.0277V35.7506H71.3322L71.3376 35.7559ZM65.1955 21.7016C66.2192 21.7016 67.1256 21.5101 67.92 21.1273C68.7144 20.7444 69.3382 20.1967 69.8021 19.4788C70.2606 18.7663 70.4952 17.8995 70.4952 16.8732C70.4952 15.8469 70.2659 14.9695 69.8021 14.2304C69.3435 13.4913 68.7144 12.9276 67.92 12.5447C67.1256 12.1619 66.2192 11.9704 65.1955 11.9704C64.1719 11.9704 63.2975 12.1619 62.4871 12.5447C61.682 12.9276 61.0475 13.4806 60.589 14.2091C60.1305 14.9376 59.8959 15.8257 59.8959 16.8679C59.8959 17.9101 60.1252 18.7556 60.589 19.4735C61.0475 20.1861 61.6767 20.7391 62.4711 21.122C63.2655 21.5048 64.1719 21.6963 65.1955 21.6963V21.7016Z" fill="var(--fill-0, #0F0B0A)"/>
<path id="Vector_3" d="M80.5502 8.91283H84.8101V27.9816H80.5502V8.91283ZM91.7199 12.55C90.339 12.55 89.1554 12.8425 88.1691 13.4328C87.1827 14.0177 86.399 14.7356 85.8072 15.5757C85.2207 16.4159 84.8101 17.2348 84.5809 18.0271L84.5436 15.8842C84.5702 15.6023 84.6609 15.1769 84.8101 14.6026C84.9594 14.0283 85.1993 13.3955 85.5192 12.7096C85.8391 12.0236 86.2763 11.3483 86.8255 10.6995C87.3747 10.0508 88.0518 9.51903 88.8622 9.10958C89.6673 8.70012 90.6216 8.49806 91.7199 8.49806V12.5554V12.55Z" fill="var(--fill-0, #0F0B0A)"/>
<path id="Vector_4" d="M102.399 28.4014C100.656 28.4014 99.0672 27.9813 97.6224 27.1358C96.1775 26.2956 95.0258 25.1258 94.1675 23.6315C93.3091 22.1373 92.8825 20.4197 92.8825 18.4841C92.8825 16.5485 93.3197 14.7512 94.1888 13.2569C95.0578 11.7627 96.2361 10.5982 97.7183 9.75266C99.2005 8.91249 100.864 8.48708 102.709 8.48708C104.756 8.48708 106.382 8.93376 107.582 9.82711C108.787 10.7205 109.64 11.9222 110.152 13.4271C110.664 14.932 110.919 16.6176 110.919 18.4788C110.919 19.5264 110.765 20.6271 110.461 21.7916C110.152 22.9509 109.672 24.0303 109.021 25.0247C108.371 26.0191 107.497 26.8327 106.409 27.4548C105.321 28.0823 103.983 28.3907 102.399 28.3907V28.4014ZM103.706 24.8811C105.14 24.8811 106.361 24.6046 107.374 24.0569C108.387 23.5092 109.155 22.7488 109.677 21.781C110.2 20.8132 110.466 19.7125 110.466 18.4894C110.466 17.1388 110.2 15.9795 109.661 15.0224C109.123 14.0652 108.355 13.3261 107.358 12.7996C106.361 12.2785 105.145 12.0126 103.711 12.0126C101.664 12.0126 100.075 12.6135 98.9499 13.81C97.825 15.0117 97.2598 16.5645 97.2598 18.4841C97.2598 19.7337 97.537 20.8451 98.0862 21.8129C98.6354 22.7807 99.3978 23.5358 100.368 24.0729C101.338 24.6099 102.453 24.8758 103.706 24.8758V24.8811ZM110.461 8.91249H114.758V27.9813H110.765C110.664 27.0135 110.584 26.1786 110.536 25.4714C110.482 24.7695 110.461 24.0995 110.461 23.4614V8.91249Z" fill="var(--fill-0, #0F0B0A)"/>
</g>
<path id="Vector_5" d="M6.66987 5.66907C6.7765 5.62122 6.88313 5.57336 6.98976 5.53082L7.03775 5.4351L9.48497 3.88237H9.4903L9.87417 3.63245H4.93709L0 3.65372V7.21649C1.22627 7.24839 2.46321 7.06759 3.70548 6.70068C4.13201 6.57838 4.54255 6.44544 4.93709 6.30718C5.02239 6.28059 5.10237 6.24869 5.18767 6.2221C5.19834 6.2221 5.21433 6.21678 5.225 6.21147C5.50224 6.12107 5.76882 6.02003 6.03007 5.919" fill="var(--fill-0, #0F0B0A)"/>
<g id="Group_3">
<g id="Group_4">
<path id="Vector_6" d="M5.88088 3.63245V5.97749C5.92886 5.95622 5.98218 5.94027 6.03016 5.919L6.66996 5.66907C6.77659 5.62122 6.88322 5.57336 6.98986 5.53082L7.03784 5.4351L9.48506 3.88237H9.49039L9.87427 3.63245H5.88088ZM10.2475 14.8951C10.2155 14.8047 10.1888 14.7143 10.1622 14.6239L10.1355 16.1128L10.1249 16.7668C10.1408 16.9529 10.1835 17.1976 10.2528 17.506V14.8951H10.2475ZM10.2528 7.42387V8.53524C10.3221 8.14174 10.4234 7.78015 10.5567 7.42387H10.2528ZM10.7593 12.2522V13.0445H10.8553C10.802 12.7946 10.77 12.5287 10.7593 12.2522Z" fill="var(--fill-0, #0F0B0A)"/>
<path id="Vector_7" d="M10.125 16.7676L10.1357 16.1135C9.90112 15.6934 9.71451 15.2787 9.57589 14.8692C9.5439 14.7788 9.51724 14.6884 9.49059 14.598L9.45326 16.741C9.46926 16.9271 9.51191 17.1717 9.58122 17.4801C9.61854 17.645 9.66653 17.8258 9.71985 18.0225C9.84247 18.4852 10.0184 18.985 10.253 19.5221V17.5067C10.1837 17.1983 10.141 16.9537 10.125 16.7676Z" fill="var(--fill-0, #0F0B0A)"/>
<path id="Vector_8" d="M28.0071 8.28532C27.8099 7.84928 27.5753 7.44514 27.3087 7.07291C27.298 7.05696 27.2874 7.04632 27.2767 7.03037C27.2767 7.02505 27.2714 7.02505 27.266 7.01974C27.266 7.01974 27.266 7.01442 27.2607 7.01442C27.1754 6.89211 27.0901 6.78045 26.9941 6.66878C26.9195 6.57838 26.8448 6.48798 26.7649 6.4029C26.7275 6.35504 26.6849 6.3125 26.6422 6.26996C26.5516 6.18488 26.461 6.08916 26.365 6.00408C26.253 5.89773 26.1357 5.7967 26.0131 5.70098C25.1547 5.0097 24.163 4.49389 23.0381 4.14825C21.9131 3.80261 20.6975 3.63245 19.3912 3.63245H9.87427L9.49039 3.88237H9.48506L7.03784 5.4351L6.98986 5.53082C6.88322 5.57336 6.77659 5.62122 6.66996 5.66907L6.03016 5.919C5.98218 5.94027 5.92886 5.95622 5.88088 5.97749V28.4389H10.2528V19.5213C10.0182 18.9843 9.84228 18.4844 9.71965 18.0218C9.66633 17.825 9.61835 17.6442 9.58103 17.4794C9.51172 17.171 9.46906 16.9264 9.45307 16.7402L9.49039 14.5973C9.51705 14.6877 9.5437 14.7781 9.57569 14.8685C9.71432 15.2779 9.90092 15.6927 10.1355 16.1128L10.1622 14.6239C10.1888 14.7143 10.2155 14.8047 10.2475 14.8951V15.3896L10.2528 16.3148C10.3914 16.5595 10.5461 16.8041 10.7167 17.0487C11.3085 17.8888 12.0922 18.6014 13.0786 19.1916C14.0649 19.7766 15.2485 20.069 16.6294 20.069C16.848 20.085 17.072 20.0956 17.3012 20.0956C17.5838 20.1222 17.877 20.1329 18.1809 20.1329H19.3912C20.6975 20.1329 21.9131 19.9733 23.0381 19.6543C24.163 19.3352 25.1547 18.846 26.0131 18.1813C26.6049 17.724 27.1061 17.1763 27.5113 16.5382C27.6979 16.2563 27.8632 15.9532 28.0071 15.6342C28.4816 14.6026 28.7216 13.3795 28.7216 11.9757C28.7216 10.5719 28.4816 9.31692 28.0071 8.28532ZM10.2528 7.42387H10.5567C10.4234 7.78015 10.3221 8.14174 10.2528 8.53524V7.42387ZM23.358 15.0014C23.2726 15.0971 23.1873 15.1875 23.0967 15.2726C22.249 16.0756 21.14 16.485 19.7591 16.4956H15.4352C15.3978 16.4956 15.3605 16.4956 15.3285 16.4903C13.969 16.4744 12.876 16.0649 12.0389 15.2726C11.9483 15.1875 11.863 15.0971 11.7777 15.0014C11.4578 14.6398 11.2125 14.2197 11.0526 13.7571C11.0206 13.672 10.9939 13.5869 10.9672 13.4965C10.9193 13.3476 10.8819 13.1987 10.8553 13.0445H10.7593V12.2522C10.754 12.1618 10.754 12.0714 10.754 11.9757V7.42387H19.7591C21.14 7.43451 22.249 7.83332 23.0967 8.62564C23.134 8.66286 23.166 8.69477 23.198 8.73199L23.214 8.74795C23.214 8.74795 23.2193 8.75326 23.2193 8.75858C23.326 8.85961 23.4166 8.96065 23.4912 9.067C23.5819 9.17335 23.6619 9.28502 23.7258 9.40201C23.8058 9.51899 23.8698 9.6413 23.9284 9.7636C23.9284 9.76892 23.9284 9.77424 23.9338 9.77955C23.9924 9.89122 24.0404 10.0082 24.0831 10.1252C24.099 10.1837 24.1204 10.2369 24.1364 10.3007C24.1684 10.3858 24.195 10.4708 24.211 10.5612C24.2217 10.5878 24.227 10.6091 24.227 10.6357C24.2643 10.758 24.291 10.8856 24.307 11.0132C24.3336 11.1568 24.3496 11.3057 24.3603 11.4546C24.3763 11.6247 24.3816 11.8002 24.3816 11.9757C24.3816 13.2094 24.0404 14.2197 23.358 15.0014Z" fill="var(--fill-0, #0F0B0A)"/>
</g>
<path id="Vector_9" d="M10.8607 13.0453H10.7593V11.9764C10.7593 12.354 10.7913 12.7103 10.8607 13.0453Z" fill="var(--fill-0, #0F0B0A)"/>
<path id="Vector_10" d="M4.93709 3.63245L0 3.65372V7.21649C1.22627 7.24839 2.46321 7.06759 3.70548 6.70068C4.13201 6.57838 4.54255 6.44544 4.93709 6.30718C5.02239 6.28059 5.10237 6.24869 5.18767 6.2221C5.19834 6.2221 5.21433 6.21678 5.225 6.21147C5.44892 6.13702 5.66752 6.05726 5.88079 5.97749C5.92877 5.95622 5.98209 5.94027 6.03007 5.919L6.66987 5.66907C6.7765 5.62122 6.88313 5.57336 6.98976 5.53082L7.03775 5.4351L9.48497 3.88237H9.4903L9.87417 3.63245H4.93709Z" fill="var(--fill-0, #0F0B0A)"/>
</g>
<g id="Group_5">
<path id="Vector_11" d="M54.1108 2.29368V1.89486H55.1984C55.4117 1.89486 55.5876 1.83105 55.7209 1.6928C55.8542 1.55454 55.9235 1.38438 55.9235 1.17699C55.9235 0.969606 55.8595 0.783492 55.7209 0.650552C55.5823 0.517613 55.4117 0.453803 55.1984 0.453803H54.1961V3.5114H53.7695V0.0603027H55.1984C55.3584 0.0603027 55.5076 0.0868906 55.6463 0.134749C55.7849 0.182607 55.9075 0.257053 56.0141 0.352769C56.1208 0.448485 56.2008 0.565471 56.2594 0.703728C56.318 0.841985 56.35 1.00151 56.35 1.17699C56.35 1.35247 56.3234 1.512 56.2594 1.65025C56.2008 1.78851 56.1208 1.9055 56.0141 2.00121C55.9075 2.09693 55.7902 2.17138 55.6463 2.21923C55.5076 2.26709 55.3584 2.29368 55.1984 2.29368H54.1108Z" fill="var(--fill-0, #0F0B0A)"/>
<path id="Vector_12" d="M58.7712 3.56809C58.4567 3.56809 58.1687 3.49364 57.9075 3.34475C57.6516 3.19586 57.4436 2.98847 57.2944 2.72259C57.1397 2.45672 57.0651 2.14298 57.0651 1.78138C57.0651 1.41979 57.1397 1.10605 57.2944 0.840175C57.449 0.574297 57.6516 0.366912 57.9075 0.21802C58.1634 0.0691284 58.4513 0 58.7712 0C59.0911 0 59.3737 0.0744459 59.6296 0.21802C59.8855 0.361594 60.0935 0.56898 60.2481 0.840175C60.4027 1.10605 60.4773 1.41979 60.4773 1.78138C60.4773 2.14298 60.4027 2.45672 60.2481 2.72259C60.0935 2.98847 59.8909 3.19586 59.6296 3.34475C59.3737 3.49364 59.0858 3.56809 58.7712 3.56809ZM58.7712 3.16927C59.0111 3.16927 59.2297 3.11609 59.4217 3.01506C59.6136 2.90871 59.7682 2.7545 59.8802 2.54711C59.9922 2.33973 60.0508 2.0898 60.0508 1.7867C60.0508 1.4836 59.9922 1.23368 59.8802 1.03161C59.7682 0.82954 59.6136 0.675331 59.4217 0.563662C59.2297 0.451993 59.0111 0.404135 58.7712 0.404135C58.5313 0.404135 58.318 0.457311 58.1208 0.563662C57.9235 0.670013 57.7742 0.824223 57.6622 1.03161C57.5503 1.23368 57.4916 1.48892 57.4916 1.7867C57.4916 2.08449 57.5503 2.33973 57.6622 2.54711C57.7742 2.7545 57.9288 2.90871 58.1208 3.01506C58.3127 3.12141 58.5313 3.16927 58.7712 3.16927Z" fill="var(--fill-0, #0F0B0A)"/>
<path id="Vector_13" d="M62.2524 3.51672L61.0102 0.0603027H61.4687L62.5403 3.05941H62.4124L63.4414 0.0603027H63.8999L64.9289 3.05941H64.801L65.8673 0.0603027H66.3151L65.0782 3.51672H64.6303L63.6067 0.411262H63.724L62.7003 3.51672H62.2524Z" fill="var(--fill-0, #0F0B0A)"/>
<path id="Vector_14" d="M67.5946 1.9959V3.1179H69.626V3.51672H67.1681V0.0603027H69.6206V0.45912H67.5946V1.59708H69.2527V1.9959H67.5946Z" fill="var(--fill-0, #0F0B0A)"/>
<path id="Vector_15" d="M70.6976 3.51672V0.0603027H72.2278C72.4677 0.0603027 72.6756 0.0975257 72.8462 0.171972C73.0169 0.246418 73.1448 0.352769 73.2355 0.501661C73.3261 0.650553 73.3687 0.83135 73.3687 1.04937C73.3687 1.19826 73.3474 1.32588 73.2994 1.43223C73.2514 1.53859 73.1875 1.62898 73.0968 1.69811C73.0062 1.76724 72.9102 1.82573 72.7983 1.86828C72.681 1.9055 72.5583 1.93209 72.4197 1.94272L72.4037 1.91613C72.5903 1.92145 72.7556 1.94804 72.8889 1.98526C73.0222 2.02248 73.1288 2.09693 73.2035 2.19796C73.2781 2.299 73.3154 2.45321 73.3154 2.66059V3.52204H72.8889V2.66059C72.8889 2.51702 72.8676 2.41067 72.8196 2.3309C72.7716 2.25114 72.6916 2.19265 72.5797 2.16074C72.4677 2.12884 72.3131 2.10757 72.1211 2.10757H71.1241V3.52204H70.6976V3.51672ZM71.1241 1.70343H72.2278C72.4677 1.70343 72.649 1.64494 72.7716 1.52263C72.8889 1.40033 72.9475 1.2408 72.9475 1.04937C72.9475 0.857938 72.8889 0.719681 72.7716 0.61333C72.6543 0.512296 72.473 0.45912 72.2278 0.45912H71.1241V1.70343Z" fill="var(--fill-0, #0F0B0A)"/>
<path id="Vector_16" d="M74.867 1.9959V3.1179H76.8983V3.51672H74.4404V0.0603027H76.893V0.45912H74.867V1.59708H76.5251V1.9959H74.867Z" fill="var(--fill-0, #0F0B0A)"/>
<path id="Vector_17" d="M79.0897 0.0603027C79.4363 0.0603027 79.7295 0.102843 79.9694 0.193242C80.204 0.28364 80.396 0.411262 80.5346 0.570789C80.6732 0.730316 80.7799 0.911113 80.8438 1.1185C80.9078 1.32588 80.9398 1.5439 80.9398 1.77256C80.9398 2.00121 80.9078 2.22455 80.8385 2.43194C80.7692 2.63932 80.6626 2.82544 80.5186 2.99028C80.3693 3.15513 80.1827 3.28275 79.9428 3.37846C79.7082 3.47418 79.4256 3.51672 79.0897 3.51672H77.9648V0.0603027H79.0897ZM78.3913 3.1179H79.0897C79.3723 3.1179 79.6016 3.08068 79.7828 3.00092C79.9641 2.92115 80.1134 2.82012 80.2147 2.6925C80.3213 2.56488 80.396 2.4213 80.444 2.25646C80.4866 2.09693 80.5079 1.9374 80.5079 1.77256C80.5079 1.60771 80.4866 1.44819 80.444 1.29398C80.4013 1.13977 80.3213 0.996194 80.2147 0.87389C80.1081 0.746269 79.9641 0.650552 79.7828 0.570789C79.6016 0.496343 79.367 0.45912 79.0897 0.45912H78.3913V3.1179Z" fill="var(--fill-0, #0F0B0A)"/>
<path id="Vector_18" d="M83.3872 3.51672V0.0603027H84.7521C85.1094 0.0603027 85.3919 0.140066 85.5945 0.304911C85.7971 0.469755 85.8931 0.693093 85.8931 0.985559C85.8931 1.16636 85.8558 1.31525 85.7811 1.42692C85.7065 1.53859 85.6052 1.62367 85.4772 1.68216C85.344 1.74065 85.1893 1.77788 85.0134 1.79383L85.0241 1.76192C85.1573 1.76724 85.28 1.78319 85.3973 1.80978C85.5146 1.83637 85.6212 1.87891 85.7065 1.9374C85.7971 1.9959 85.8718 2.07034 85.9251 2.17138C85.9784 2.27241 86.0051 2.40003 86.0051 2.55424C86.0051 2.76163 85.9571 2.93711 85.8664 3.07536C85.7758 3.21362 85.6425 3.31997 85.4772 3.39442C85.312 3.46886 85.12 3.50609 84.9121 3.51672H83.3872ZM83.8138 1.60771H84.6988C84.9387 1.60771 85.1307 1.55454 85.2693 1.45351C85.4079 1.34715 85.4719 1.19826 85.4719 1.00683C85.4719 0.815397 85.4026 0.67714 85.2693 0.592059C85.1307 0.506978 84.9601 0.464438 84.7521 0.464438H83.8138V1.61303V1.60771ZM83.8138 3.1179H84.8055C85.0454 3.1179 85.2373 3.07536 85.3706 2.98496C85.5039 2.89457 85.5785 2.75099 85.5785 2.55956C85.5785 2.40535 85.5359 2.28836 85.4452 2.2086C85.3599 2.12884 85.248 2.07566 85.1147 2.05439C84.9814 2.03312 84.8428 2.01185 84.6988 2.01185H83.8138V3.12322V3.1179Z" fill="var(--fill-0, #0F0B0A)"/>
<path id="Vector_19" d="M89.4703 0.0603027L88.244 2.3309V3.51672H87.8175V2.3309L86.5912 0.0603027H87.0711L88.1267 2.05439H87.9561L88.9905 0.0603027H89.4703Z" fill="var(--fill-0, #0F0B0A)"/>
<path id="Vector_20" d="M93.2611 3.56856C93.0106 3.56856 92.7813 3.52602 92.584 3.44094C92.3814 3.35586 92.2108 3.23887 92.0669 3.08466C91.9229 2.93045 91.8163 2.74434 91.7416 2.53163C91.667 2.31361 91.6297 2.07964 91.6297 1.81908C91.6297 1.55852 91.6723 1.31391 91.7523 1.09589C91.8323 0.872554 91.9496 0.681122 92.0989 0.521595C92.2481 0.362068 92.4241 0.234446 92.632 0.144048C92.84 0.0536489 93.0639 0.0111084 93.3091 0.0111084C93.5757 0.0111084 93.8103 0.0589665 94.0182 0.165318C94.2262 0.266352 94.3915 0.409926 94.5194 0.590723C94.6474 0.77152 94.722 0.98954 94.7487 1.23415H94.3861C94.3381 1.06399 94.2635 0.920412 94.1622 0.792791C94.0609 0.670487 93.9329 0.57477 93.789 0.51096C93.645 0.447149 93.4851 0.415243 93.3091 0.415243C93.0639 0.415243 92.8453 0.479054 92.6587 0.596041C92.4721 0.718345 92.3281 0.883189 92.2215 1.10121C92.1148 1.31391 92.0615 1.5532 92.0615 1.8244C92.0615 2.09559 92.1095 2.32957 92.2055 2.53163C92.3015 2.7337 92.4401 2.89323 92.6214 3.01022C92.8026 3.12188 93.0159 3.18038 93.2665 3.18038C93.4584 3.18038 93.6237 3.14315 93.7676 3.06871C93.9116 2.99426 94.0289 2.88259 94.1195 2.73902C94.2102 2.59545 94.2688 2.41997 94.3008 2.20726H94.5621C94.5034 2.66457 94.3595 3.0049 94.1302 3.23355C93.9009 3.46221 93.613 3.57388 93.2665 3.57388L93.2611 3.56856ZM94.4714 3.51538C94.4714 3.3984 94.4714 3.26546 94.4821 3.11657C94.4821 2.96767 94.4928 2.81878 94.5034 2.66989C94.5141 2.51568 94.5247 2.38274 94.5301 2.26044H93.3571V1.86162H94.8873V3.51538H94.4714Z" fill="var(--fill-0, #0F0B0A)"/>
<path id="Vector_21" d="M95.6337 3.51672L96.9506 0.0603027H97.3984L98.726 3.51672H98.2675L97.1105 0.389992H97.2385L96.0815 3.51672H95.6337ZM96.3375 2.61273V2.21392H98.0009V2.61273H96.3375Z" fill="var(--fill-0, #0F0B0A)"/>
<path id="Vector_22" d="M100.011 0.0603027V3.1179H101.93V3.51672H99.5844V0.0603027H100.011Z" fill="var(--fill-0, #0F0B0A)"/>
<path id="Vector_23" d="M103.045 0.0603027H103.472V3.51672H103.045V0.0603027Z" fill="var(--fill-0, #0F0B0A)"/>
<path id="Vector_24" d="M105.177 0.0603027V3.1179H107.097V3.51672H104.751V0.0603027H105.177Z" fill="var(--fill-0, #0F0B0A)"/>
<path id="Vector_25" d="M108.536 1.9959V3.1179H110.568V3.51672H108.11V0.0603027H110.562V0.45912H108.536V1.59708H110.194V1.9959H108.536Z" fill="var(--fill-0, #0F0B0A)"/>
<path id="Vector_26" d="M113.18 3.56809C112.866 3.56809 112.578 3.49364 112.316 3.34475C112.061 3.19586 111.853 2.98847 111.703 2.72259C111.549 2.45672 111.474 2.14298 111.474 1.78138C111.474 1.41979 111.549 1.10605 111.703 0.840175C111.858 0.574297 112.061 0.366912 112.316 0.21802C112.572 0.0691284 112.86 0 113.18 0C113.5 0 113.783 0.0744459 114.039 0.21802C114.294 0.361594 114.502 0.56898 114.657 0.840175C114.812 1.10605 114.886 1.41979 114.886 1.78138C114.886 2.14298 114.812 2.45672 114.657 2.72259C114.502 2.98847 114.3 3.19586 114.039 3.34475C113.783 3.49364 113.495 3.56809 113.18 3.56809ZM113.18 3.16927C113.42 3.16927 113.639 3.11609 113.831 3.01506C114.023 2.90871 114.177 2.7545 114.289 2.54711C114.401 2.33973 114.46 2.0898 114.46 1.7867C114.46 1.4836 114.401 1.23368 114.289 1.03161C114.177 0.82954 114.023 0.675331 113.831 0.563662C113.639 0.451993 113.42 0.404135 113.18 0.404135C112.94 0.404135 112.727 0.457311 112.53 0.563662C112.332 0.670013 112.183 0.824223 112.071 1.03161C111.959 1.23368 111.901 1.48892 111.901 1.7867C111.901 2.08449 111.959 2.33973 112.071 2.54711C112.183 2.7545 112.338 2.90871 112.53 3.01506C112.722 3.12141 112.94 3.16927 113.18 3.16927Z" fill="var(--fill-0, #0F0B0A)"/>
</g>
</g>
</svg>
