<svg preserveAspectRatio="xMidYMid meet" width="117.938" height="13.9944" overflow="visible" style="display: block;" viewBox="0 0 117.938 13.9944" fill="none" xmlns="http://www.w3.org/2000/svg">
<g id="Group">
<path id="Vector" d="M3.19475 2.59543V5.79019H7.49858V8.13927H3.19475V11.4003H8.81406V13.8433H0V0.153931H8.81406V2.59698H3.19475V2.59543Z" fill="var(--fill-0, black)"/>
<path id="Vector_2" d="M25.0516 13.8417H21.8754C21.669 13.8417 21.5011 13.7908 21.3732 13.6907C21.2453 13.5906 21.1437 13.472 21.0682 13.3333L18.3248 8.54121C18.2739 8.67985 18.2185 8.79846 18.1553 8.89858L15.5998 13.3333C15.512 13.4581 15.4088 13.5752 15.2902 13.6815C15.1716 13.7878 15.0176 13.8417 14.8297 13.8417H11.8598L16.2668 6.79442L12.0292 0.150757H15.2055C15.4119 0.150757 15.5644 0.176944 15.6615 0.230857C15.7585 0.284771 15.8448 0.374111 15.9202 0.498882L18.6452 5.11233C18.676 5.03069 18.713 4.95213 18.753 4.87665C18.7931 4.80117 18.8393 4.72261 18.8886 4.64251L21.2746 0.545094C21.3624 0.408 21.4548 0.307876 21.5519 0.24472C21.6489 0.181565 21.7691 0.150757 21.9139 0.150757H24.9577L20.6631 6.66195L25.0516 13.8401V13.8417Z" fill="var(--fill-0, black)"/>
<path id="Vector_3" d="M37.5414 10.3005C37.6169 10.3005 37.6923 10.3144 37.7663 10.3421C37.8417 10.3698 37.9126 10.4191 37.9819 10.4885L39.2404 11.8132C38.689 12.5341 37.9989 13.0763 37.1686 13.4429C36.3383 13.8095 35.3571 13.9928 34.2234 13.9928C33.1836 13.9928 32.2517 13.8157 31.4276 13.4614C30.6035 13.1071 29.9057 12.6188 29.3327 11.9949C28.7597 11.3711 28.3191 10.6333 28.0126 9.7768C27.706 8.92189 27.552 7.99304 27.552 6.99025C27.552 5.98746 27.7184 5.03089 28.0495 4.17597C28.3823 3.32106 28.849 2.58322 29.4498 1.96244C30.0505 1.34167 30.7714 0.859531 31.6109 0.516026C32.4504 0.170981 33.3746 0 34.3821 0C34.895 0 35.3802 0.0446695 35.8331 0.135552C36.2875 0.226434 36.7111 0.351206 37.107 0.511405C37.5029 0.671605 37.8649 0.864153 38.1976 1.08905C38.5288 1.31394 38.8245 1.55887 39.0802 1.82227L38.0097 3.25945C37.9403 3.34725 37.8587 3.42735 37.7647 3.49975C37.6708 3.57214 37.5398 3.60757 37.3704 3.60757C37.2579 3.60757 37.1517 3.58293 37.0515 3.53209C36.9514 3.48126 36.8451 3.42119 36.7327 3.34879C36.6202 3.27639 36.4955 3.19783 36.3614 3.11465C36.2259 3.02993 36.0672 2.95137 35.8824 2.87897C35.6975 2.80658 35.4819 2.7465 35.2339 2.69567C34.9859 2.64483 34.6963 2.62019 34.3651 2.62019C33.8383 2.62019 33.3577 2.71723 32.9233 2.91132C32.4874 3.10541 32.1115 3.38884 31.7958 3.76161C31.48 4.13438 31.2351 4.59188 31.0625 5.13409C30.89 5.67631 30.8037 6.294 30.8037 6.99025C30.8037 7.6865 30.8993 8.31498 31.0903 8.86027C31.2813 9.40557 31.5416 9.8646 31.8697 10.2374C32.1978 10.6101 32.5829 10.8936 33.0204 11.0877C33.4594 11.2818 33.9292 11.3788 34.4298 11.3788C34.7179 11.3788 34.9813 11.3649 35.2185 11.3372C35.4557 11.3095 35.6791 11.2617 35.8855 11.1955C36.0919 11.1293 36.286 11.0415 36.4677 10.9321C36.6495 10.8227 36.8343 10.6825 37.0223 10.5146C37.0977 10.4515 37.1794 10.4007 37.2672 10.3591C37.355 10.319 37.4459 10.2974 37.5398 10.2974L37.5414 10.3005Z" fill="var(--fill-0, black)"/>
<path id="Vector_4" d="M51.4167 11.3031V13.8401H43.1664V0.150757H46.3427V11.3031H51.4167Z" fill="var(--fill-0, black)"/>
<path id="Vector_5" d="M61.0012 11.334C61.4264 11.334 61.8084 11.2632 62.1426 11.123C62.4769 10.9813 62.7619 10.7795 62.9929 10.5176C63.224 10.2542 63.4011 9.93381 63.5244 9.55488C63.646 9.17594 63.7077 8.74618 63.7077 8.2625V0.153931H66.8839V8.2625C66.8839 9.10201 66.7484 9.8722 66.4757 10.5731C66.2031 11.2739 65.8134 11.8793 65.3066 12.3861C64.7998 12.8929 64.1821 13.2888 63.455 13.5707C62.728 13.8525 61.9116 13.9927 61.0028 13.9927C60.0939 13.9927 59.2683 13.851 58.5412 13.5707C57.8142 13.2888 57.198 12.8944 56.6897 12.3861C56.1814 11.8778 55.7932 11.2739 55.5252 10.5731C55.2556 9.8722 55.1216 9.10047 55.1216 8.2625V0.153931H58.2978V8.25326C58.2978 8.7354 58.3595 9.1667 58.4812 9.54564C58.6028 9.92457 58.78 10.2465 59.0126 10.513C59.2436 10.7795 59.5271 10.9828 59.8629 11.123C60.1971 11.2647 60.5791 11.334 61.0043 11.334H61.0012Z" fill="var(--fill-0, black)"/>
<path id="Vector_6" d="M79.4695 2.93289C79.3755 3.08384 79.277 3.19629 79.1737 3.27177C79.0705 3.34725 78.9365 3.38422 78.7748 3.38422C78.63 3.38422 78.476 3.33955 78.3096 3.24866C78.1432 3.15778 77.9553 3.05612 77.7458 2.94367C77.5363 2.83122 77.296 2.72955 77.0265 2.63867C76.7569 2.54779 76.4504 2.50312 76.1053 2.50312C75.5107 2.50312 75.0671 2.62943 74.776 2.88359C74.4848 3.13776 74.3385 3.47972 74.3385 3.91257C74.3385 4.1883 74.4263 4.41627 74.6019 4.59804C74.7775 4.7798 75.007 4.93692 75.292 5.06785C75.577 5.19879 75.902 5.32048 76.2686 5.42984C76.6352 5.53921 77.0095 5.6609 77.3915 5.79645C77.7735 5.93201 78.1479 6.08913 78.5145 6.27089C78.8811 6.45266 79.2061 6.68372 79.4911 6.96561C79.776 7.24749 80.0055 7.591 80.1812 7.99458C80.3568 8.39816 80.4446 8.88646 80.4446 9.4564C80.4446 10.0895 80.3352 10.681 80.1165 11.2325C79.8977 11.7839 79.5789 12.2645 79.163 12.6743C78.7455 13.084 78.2326 13.4075 77.6226 13.6416C77.0126 13.8773 76.3179 13.9944 75.5415 13.9944C75.1148 13.9944 74.682 13.9512 74.2399 13.8634C73.7978 13.7756 73.3711 13.6524 72.9568 13.4922C72.5424 13.332 72.1542 13.1425 71.7922 12.9238C71.4287 12.7051 71.1129 12.4601 70.8434 12.1906L71.783 10.7057C71.8585 10.5994 71.9571 10.51 72.0787 10.4376C72.2004 10.3652 72.3345 10.3298 72.4777 10.3298C72.6656 10.3298 72.8551 10.3899 73.0461 10.5085C73.2371 10.6271 73.4528 10.7596 73.6946 10.9028C73.9364 11.0476 74.2122 11.1785 74.5264 11.2972C74.8391 11.4158 75.2088 11.4758 75.6355 11.4758C76.2116 11.4758 76.6598 11.3495 76.9787 11.0954C77.2976 10.8412 77.4578 10.4392 77.4578 9.88771C77.4578 9.56885 77.37 9.30852 77.1944 9.10827C77.0188 8.90802 76.7892 8.74166 76.5043 8.61073C76.2193 8.4798 75.8943 8.36273 75.5323 8.26261C75.1703 8.16248 74.796 8.05157 74.414 7.92834C74.032 7.80511 73.6592 7.65569 73.2957 7.47701C72.9321 7.29833 72.6086 7.06419 72.3237 6.77152C72.0387 6.48038 71.8076 6.11685 71.6336 5.68093C71.458 5.245 71.3702 4.70895 71.3702 4.06969C71.3702 3.55674 71.4734 3.05458 71.6798 2.56628C71.8862 2.07798 72.1897 1.64205 72.5917 1.26003C72.9922 0.878016 73.4836 0.573021 74.0674 0.343504C74.6496 0.115528 75.3166 0 76.0683 0C76.4873 0 76.8971 0.0323479 77.2945 0.0985843C77.6919 0.164821 78.0693 0.261865 78.4267 0.389716C78.784 0.517568 79.1168 0.671607 79.4279 0.850291C79.7375 1.02898 80.0148 1.23076 80.2597 1.45566L79.471 2.93135L79.4695 2.93289Z" fill="var(--fill-0, black)"/>
<path id="Vector_7" d="M88.0461 13.8401H84.8514V0.150757H88.0461V13.8401Z" fill="var(--fill-0, black)"/>
<path id="Vector_8" d="M105.508 0.150757L100.022 13.8401H97.1456L91.6588 0.150757H94.2143C94.49 0.150757 94.7118 0.215453 94.8813 0.343305C95.0507 0.471156 95.1786 0.635979 95.2664 0.836229L97.9158 8.16536C98.0406 8.48422 98.1638 8.83389 98.2824 9.21282C98.401 9.59176 98.5135 9.98763 98.6213 10.402C98.7091 9.98917 98.8077 9.59176 98.9171 9.21282C99.0264 8.83389 99.1435 8.48422 99.2698 8.16536L101.901 0.836229C101.97 0.660625 102.093 0.501965 102.272 0.361791C102.451 0.220076 102.671 0.150757 102.934 0.150757H105.508Z" fill="var(--fill-0, black)"/>
<path id="Vector_9" d="M112.319 2.59543V5.79019H116.623V8.13927H112.319V11.4003H117.938V13.8433H109.124V0.153931H117.938V2.59698H112.319V2.59543Z" fill="var(--fill-0, black)"/>
</g>
</svg>
