<svg preserveAspectRatio="xMidYMid meet" width="138.494" height="24.375" overflow="visible" style="display: block;" viewBox="0 0 138.494 24.375" fill="none" xmlns="http://www.w3.org/2000/svg">
<g id="Frame" clip-path="url(#clip0_11002_190750)">
<path id="Vector" d="M12.9636 15.6262C9.19987 15.6262 6.13319 12.1296 6.13319 7.80603L-0.000165667 14.8428L6.14586 23.4319H19.7939C23.5575 23.4319 26.6242 19.9353 26.6242 15.6117H12.9762L12.9636 15.6262Z" fill="var(--fill-0, #44312C)"/>
<path id="Vector_2" d="M12.9684 0C9.20469 0 6.13802 3.49659 6.13802 7.82019H19.786C23.5497 7.82019 26.6164 11.3168 26.6164 15.6403L32.7623 8.60367L26.6164 0H12.9684Z" fill="var(--fill-0, #44312C)"/>
<path id="Vector_3" d="M57.3112 16.772C57.3112 13.5221 55.0808 10.011 51.4819 10.011H48.3645C46.5524 10.011 45.1458 8.40054 45.1458 6.32579C45.1458 4.03341 46.8185 2.61157 48.3645 2.61157H56.5381V0.101562H47.959C44.9684 0.101562 42.4466 2.95977 42.4466 6.3403C42.4466 10.3447 45.2472 12.7386 47.959 12.7386H51.1017C53.0533 12.7386 54.6373 14.5522 54.6373 16.7865C54.6373 19.0209 53.0533 20.8344 51.1017 20.8344H43.0549V23.359H51.4819C54.6373 23.359 57.3112 20.3557 57.3112 16.7865V16.772Z" fill="var(--fill-0, #44312C)"/>
<path id="Vector_4" d="M72.9334 13.3041C72.9334 8.80641 69.8794 5.41138 65.8369 5.41138C61.3383 5.41138 58.4364 9.03855 58.4364 14.6535C58.4364 17.381 59.146 19.6734 60.4765 21.3129C61.8072 22.9379 63.6574 23.7939 65.8369 23.7939C69.3092 23.7939 72.0844 21.5015 72.7686 18.0775H70.2216C69.5626 20.1668 67.8899 21.4725 65.8243 21.4725C63.0871 21.4725 61.2116 19.2382 60.9074 15.64V15.5385H72.9208V13.3041H72.9334ZM60.9328 13.1445V13.0429C61.2749 9.88006 63.2391 7.74728 65.8369 7.74728C68.4348 7.74728 70.2596 9.82202 70.5637 13.0429V13.1445H60.9328Z" fill="var(--fill-0, #44312C)"/>
<path id="Vector_5" d="M88.6184 13.3041C88.6184 8.80641 85.5645 5.41138 81.522 5.41138C77.0234 5.41138 74.1214 9.03855 74.1214 14.6535C74.1214 17.381 74.8311 19.6734 76.1616 21.3129C77.4923 22.9379 79.3424 23.7939 81.522 23.7939C84.9942 23.7939 87.7694 21.5015 88.4537 18.0775H85.9066C85.2476 20.1668 83.5749 21.4725 81.5094 21.4725C78.7722 21.4725 76.8966 19.2382 76.5925 15.64V15.5385H88.6058V13.3041H88.6184ZM76.6179 13.1445V13.0429C76.96 9.88006 78.9242 7.74728 81.522 7.74728C84.1198 7.74728 85.9446 9.82202 86.2488 13.0429V13.1445H76.6179Z" fill="var(--fill-0, #44312C)"/>
<path id="Vector_6" d="M120.687 13.3041C120.687 8.80641 117.633 5.41138 113.591 5.41138C109.092 5.41138 106.19 9.03855 106.19 14.6535C106.19 17.381 106.899 19.6734 108.23 21.3129C109.561 22.9379 111.41 23.7939 113.591 23.7939C117.063 23.7939 119.837 21.5015 120.522 18.0775H117.975C117.316 20.1668 115.644 21.4725 113.577 21.4725C110.841 21.4725 108.965 19.2382 108.661 15.64V15.5385H120.674V13.3041H120.687ZM108.686 13.1445V13.0429C109.028 9.88006 110.993 7.74728 113.591 7.74728C116.188 7.74728 118.013 9.82202 118.317 13.0429V13.1445H108.686Z" fill="var(--fill-0, #44312C)"/>
<path id="Vector_7" d="M102.162 9.12597C101.072 6.77557 99.0952 5.42626 96.7382 5.42626C93.2913 5.42626 89.8065 8.25545 89.8065 14.5813C89.8065 17.4395 90.5161 19.8189 91.872 21.4583C93.1012 22.9673 94.8374 23.7942 96.7508 23.7942C99.1079 23.7942 101.072 22.445 102.175 20.0946L102.2 20.0365H102.403V20.1381C102.339 20.878 102.339 21.4583 102.339 22.1403V23.33H104.671V0.101562H102.339V7.08025C102.339 7.74764 102.339 8.34251 102.39 9.08245V9.18401H102.2L102.175 9.12597H102.162ZM97.3211 21.4583C97.3211 21.4583 97.2831 21.4583 97.2704 21.4583C95.9652 21.4583 94.812 20.936 93.9376 19.935C92.8478 18.7017 92.2522 16.8011 92.2522 14.5667C92.2522 12.3324 92.8478 10.5188 93.9376 9.27106C94.8374 8.25545 96.0032 7.73314 97.3338 7.73314C100.337 7.76216 102.352 10.4898 102.352 14.5232C102.352 18.5566 100.337 21.4148 97.3338 21.4438L97.3211 21.4583Z" fill="var(--fill-0, #44312C)"/>
<path id="Vector_8" d="M137.558 23.3442H138.495V20.8196H137.912C137.152 20.8196 136.747 20.3408 136.747 19.4558V5.86115H134.402V8.966H134.212L134.186 8.92248C133.072 6.65912 131.17 5.41138 128.851 5.41138C125.379 5.41138 121.881 8.25509 121.881 14.6244C121.881 17.4681 122.591 19.833 123.948 21.4725C125.19 22.9669 126.926 23.7939 128.839 23.7939C131.247 23.7939 133.235 22.3865 134.314 19.9346L134.338 19.8766H134.528V19.9636C134.668 22.0383 135.821 23.3296 137.544 23.3296L137.558 23.3442ZM129.447 21.4725C129.447 21.4725 129.409 21.4725 129.396 21.4725C128.078 21.4725 126.912 20.9502 126.025 19.9346C124.948 18.7159 124.353 16.8297 124.353 14.6244C124.353 12.4191 124.961 10.533 126.064 9.28521C126.963 8.26959 128.129 7.73277 129.447 7.74728C132.463 7.77629 134.491 10.562 134.491 14.668C134.491 18.7738 132.463 21.4435 129.447 21.4725Z" fill="var(--fill-0, #44312C)"/>
</g>
<defs>
<clipPath id="clip0_11002_190750">
<rect width="138.494" height="24.375" fill="white"/>
</clipPath>
</defs>
</svg>
