<svg preserveAspectRatio="xMidYMid meet" width="138.476" height="26.0005" overflow="visible" style="display: block;" viewBox="0 0 138.476 26.0005" fill="none" xmlns="http://www.w3.org/2000/svg">
<g id="Group 29">
<path id="Vector" d="M10.3162 3.33371C10.3162 4.93221 9.4037 5.75195 8.42153 6.25063C9.97488 6.7698 11.0546 7.6442 11.0546 9.43398C11.0546 11.7771 9.10418 13.0204 6.14376 13.0204H1.37025e-05V7.34329e-05H5.95568C8.63051 7.34329e-05 10.3162 1.28434 10.3162 3.32687V3.33371ZM7.9827 3.69576C7.9827 2.63692 7.14682 2.02211 5.64919 2.02211H2.29173V5.47871H5.47505C6.97267 5.47871 7.97573 4.90488 7.97573 3.69576H7.9827ZM8.7141 9.18122C8.7141 8.06773 7.82249 7.41194 5.98354 7.41194H2.28476V10.9847H6.15072C7.74587 10.9847 8.70713 10.3699 8.70713 9.18122" fill="var(--fill-0, #37383A)"/>
<path id="Vector_2" d="M26.2647 7.66904C26.2647 11.5557 24.0287 13.5092 20.5598 13.5092C17.0908 13.5092 14.9106 11.5557 14.9106 7.78516V0.291994H17.2441V7.68953C17.2441 10.1076 18.5118 11.4122 20.6016 11.4122C22.6913 11.4122 23.9381 10.1827 23.9381 7.78516V0.291994H26.2716V7.67587L26.2647 7.66904Z" fill="var(--fill-0, #37383A)"/>
<path id="Vector_3" d="M39.4148 13.306L36.1548 8.77007H33.2362V13.306H30.9027V0.285701H36.8166C39.8676 0.285701 41.7483 1.86371 41.7483 4.41175C41.7483 6.57041 40.4387 7.86835 38.5789 8.37386L42.1662 13.2992H39.4148V13.306ZM36.6285 2.36922H33.2362V6.74119H36.6494C38.3212 6.74119 39.38 5.88729 39.38 4.54838C39.38 3.11382 38.356 2.37605 36.6285 2.37605" fill="var(--fill-0, #37383A)"/>
<path id="Vector_4" d="M52.3273 13.5311C48.1757 13.5311 45.4452 10.6278 45.4452 6.81599C45.4452 3.00418 48.2872 0.0667569 52.2925 0.0667569C54.6051 0.0667569 56.0261 0.70206 57.3913 1.83604L55.9146 3.56434C54.8906 2.71044 53.8876 2.17077 52.2019 2.17077C49.7569 2.17077 47.8971 4.25429 47.8971 6.78184C47.8971 9.48017 49.7012 11.4476 52.4109 11.4476C53.6647 11.4476 54.8001 11.0582 55.6151 10.4639V8.02512H52.2228V6.03724H57.872V11.5022C56.5624 12.602 54.6887 13.5311 52.3342 13.5311" fill="var(--fill-0, #37383A)"/>
<path id="Vector_5" d="M68.6558 13.5311C64.5809 13.5311 61.7319 10.498 61.7319 6.81599C61.7319 3.13397 64.6157 0.0667569 68.6907 0.0667569C72.7656 0.0667569 75.6145 3.09982 75.6145 6.78184C75.6145 10.4639 72.7307 13.5311 68.6558 13.5311ZM68.6558 2.17077C66.0228 2.17077 64.1838 4.2338 64.1838 6.78184C64.1838 9.32988 66.0646 11.4271 68.6976 11.4271C71.3306 11.4271 73.1696 9.36404 73.1696 6.81599C73.1696 4.26795 71.2888 2.16394 68.6558 2.16394" fill="var(--fill-0, #37383A)"/>
<path id="Vector_6" d="M84.8251 9.11893H82.1921V13.2999H79.8585V0.285701H85.0898C88.1826 0.285701 90.133 2.00043 90.133 4.65791C90.133 7.59549 87.7437 9.11893 84.8251 9.11893ZM84.9017 2.36933H82.1921V7.0558H84.9017C86.6641 7.0558 87.7646 6.10621 87.7646 4.71257C87.7646 3.16863 86.6432 2.36933 84.9017 2.36933Z" fill="var(--fill-0, #37383A)"/>
<path id="Vector_7" d="M105.32 13.3051H102.854L101.51 10.1626H95.2338L93.8685 13.3051H91.4793L97.3165 0.195192H99.4759L105.313 13.3051H105.32ZM98.3614 2.92785L96.0836 8.13357H100.653L98.3614 2.92785V2.92785Z" fill="var(--fill-0, #37383A)"/>
<path id="Vector_8" d="M120.765 13.3118H117.54L112.455 8.38643L111.299 9.52726V13.3118H108.965V0.291239H111.299L111.292 6.40532L117.561 0.257082H120.765L114.092 6.78105L120.765 13.3118Z" fill="var(--fill-0, #37383A)"/>
<path id="Vector_9" d="M131.817 0.250734V3.29754L135.369 6.78157L131.817 10.2724V13.3124L138.476 6.78157L131.817 0.250734Z" fill="var(--fill-0, #37383A)"/>
<path id="Vector_10" d="M129.615 10.2724L126.063 6.78157L129.615 3.29754V0.250734L122.956 6.78157L129.615 13.3124V10.2724Z" fill="var(--fill-0, #00A5B5)"/>
<path id="Vector_11" d="M46.512 20.0618H48.8594C50.2526 20.0618 51.1163 20.8405 51.1163 22.0155V22.0291C51.1163 23.3407 50.0436 24.0238 48.734 24.0238H47.5499V25.9024H46.505V20.0686L46.512 20.0618ZM48.7758 23.0948C49.5699 23.0948 50.0575 22.6644 50.0575 22.0565V22.0428C50.0575 21.3597 49.556 20.9976 48.7758 20.9976H47.5638V23.1016H48.7758V23.0948Z" fill="var(--fill-0, #37383A)"/>
<path id="Vector_12" d="M53.6217 22.994V22.9803C53.6217 21.3404 54.9104 19.9602 56.7424 19.9602C58.5743 19.9602 59.8421 21.3199 59.8421 22.9598V22.9803C59.8421 24.6202 58.5465 26.0005 56.7215 26.0005C54.8965 26.0005 53.6217 24.6407 53.6217 23.0008V22.994ZM58.7485 23.0008V22.9872C58.7485 21.8529 57.9056 20.91 56.7284 20.91C55.5512 20.91 54.7223 21.8324 54.7223 22.9667V22.9872C54.7223 24.1214 55.5652 25.0507 56.7424 25.0507C57.9196 25.0507 58.7485 24.1351 58.7485 23.0008Z" fill="var(--fill-0, #37383A)"/>
<path id="Vector_13" d="M62.8137 20.0618H63.8586V24.96H66.9862V25.8959H62.8137V20.0618Z" fill="var(--fill-0, #37383A)"/>
<path id="Vector_14" d="M71.872 20.0205H72.8403L75.4594 25.8968H74.3518L73.7458 24.4892H70.9316L70.3187 25.8968H69.2459L71.8651 20.0205H71.872ZM73.3697 23.5805L72.3387 21.2436L71.3217 23.5805H73.3697Z" fill="var(--fill-0, #37383A)"/>
<path id="Vector_15" d="M78.173 20.0618H79.1412L82.3315 24.0924V20.0618H83.3624V25.8959H82.4848L79.2039 21.7423V25.8959H78.173V20.0618Z" fill="var(--fill-0, #37383A)"/>
<path id="Vector_16" d="M86.5925 20.0618H88.8076C90.6744 20.0618 91.97 21.3188 91.97 22.9652V22.9788C91.97 24.6184 90.6744 25.8959 88.8076 25.8959H86.5925V20.0618V20.0618ZM87.6373 20.9977V24.9668H88.8076C90.0544 24.9668 90.8694 24.1402 90.8694 22.9993V22.9857C90.8694 21.8448 90.0544 21.0045 88.8076 21.0045H87.6373V20.9977Z" fill="var(--fill-0, #37383A)"/>
</g>
</svg>
