<svg preserveAspectRatio="xMidYMid meet" width="48.1" height="50.7" overflow="visible" style="display: block;" viewBox="0 0 48.1 50.7" fill="none" xmlns="http://www.w3.org/2000/svg">
<g id="Frame" clip-path="url(#clip0_11002_190619)">
<path id="Vector" d="M23.4827 34.9102V31.0973C23.4827 28.2048 21.9619 26.7585 18.9203 26.7585H3.42766V47.3348H3.92011C5.23303 47.3348 6.19584 47.1376 6.80844 46.7431C7.88072 45.9981 8.41685 44.5958 8.41685 42.5359V31.0973H18.4607V34.9102H13.3404C11.8962 34.9102 10.977 35.8743 10.5832 37.8027C10.4738 38.3286 10.419 38.8107 10.419 39.2489H17.8698C21.6117 39.2489 23.4827 37.8027 23.4827 34.9102" fill="var(--fill-0, #191716)"/>
<path id="Vector_2" d="M44.2164 19.8634V15.7547C44.2164 13.0155 42.6299 11.646 39.457 11.646H29.1506V7.8331H44.2164C44.2164 4.94063 42.6408 3.49438 39.4898 3.49438H28.6254C26.5685 3.49438 25.179 4.34896 24.4569 6.05811C24.1943 6.67176 24.063 7.39488 24.063 8.22759V11.646C24.063 13.2237 24.6539 14.407 25.8355 15.1959C26.667 15.7218 27.586 15.9847 28.5926 15.9847H39.2601V19.8634H24.063C24.063 21.3973 24.6975 22.5587 25.9667 23.3476C26.8639 23.8734 27.8048 24.1365 28.7895 24.1365H39.4241C42.619 24.1365 44.2164 22.712 44.2164 19.8634" fill="var(--fill-0, #191716)"/>
<path id="Vector_3" d="M21.4805 24.0701V3.55945H21.0865C18.0231 3.55945 16.4914 4.93994 16.4914 7.70109V15.1295C16.0975 14.6036 15.4848 13.8367 14.6533 12.8287C14.6095 12.7848 14.5657 12.7191 14.522 12.6315L9.20466 5.72879C8.08859 4.28254 6.50215 3.55945 4.44522 3.55945H3.42766V24.0701H8.41685V12.4342L10.419 14.998L15.7364 21.9006C16.8524 23.347 18.4279 24.0701 20.4629 24.0701H21.4805Z" fill="var(--fill-0, #191716)"/>
<path id="Vector_4" d="M5.13886 0H42.9558C44.3696 0 45.6545 0.572478 46.5855 1.49456C47.5168 2.41676 48.0947 3.68944 48.0947 5.08959V45.5995C48.0947 46.9995 47.5166 48.2722 46.5855 49.1944C45.6544 50.1165 44.3695 50.689 42.9558 50.689H5.13886C3.72519 50.689 2.44016 50.1165 1.50906 49.1944C0.578048 48.2723 0 46.9997 0 45.5995V5.08959C0 3.68919 0.577925 2.41663 1.50906 1.49456C2.44002 0.572383 3.72495 0 5.13886 0ZM42.9558 1.33324H5.13886C4.09664 1.33324 3.14844 1.75605 2.46081 2.43719C1.77296 3.11835 1.34605 4.05735 1.34605 5.08959V45.5995C1.34605 46.6317 1.77305 47.5706 2.46081 48.2517C3.14868 48.933 4.09677 49.3559 5.13886 49.3559H42.9558C43.9978 49.3559 44.9459 48.9329 45.6338 48.2517C46.3216 47.5705 46.7486 46.6315 46.7486 45.5995V5.08959C46.7486 4.05746 46.3216 3.11845 45.6339 2.43719C44.946 1.75605 43.998 1.33324 42.9558 1.33324Z" fill="var(--fill-0, #191716)"/>
</g>
<defs>
<clipPath id="clip0_11002_190619">
<rect width="48.1" height="50.7" fill="white"/>
</clipPath>
</defs>
</svg>
