<svg preserveAspectRatio="none" width="100%" height="100%" overflow="visible" style="display: block;" viewBox="0 0 87 20" fill="none" xmlns="http://www.w3.org/2000/svg">
<g id="LOGO" clip-path="url(#clip0_11026_76725)">
<path id="Vector" d="M79.683 20.0002C75.3077 20.0002 72.3625 17.0835 72.3625 12.7232C72.3625 8.36297 75.3077 5.4463 79.683 5.4463C84.0583 5.4463 87.0035 8.39033 87.0035 12.7232C87.0035 17.0562 84.0583 20.0002 79.683 20.0002ZM79.683 17.4455C82.2351 17.4455 83.918 15.4737 83.918 12.7232C83.918 9.97282 82.2351 8.00102 79.683 8.00102C77.1309 8.00102 75.4756 9.97282 75.4756 12.7232C75.4756 15.4737 77.1309 17.4455 79.683 17.4455Z" fill="var(--fill-0, #161627)"/>
<path id="Vector_2" d="M59.9576 5.61035H60.6312V8.41549H59.284C56.5917 8.41549 55.7225 10.4988 55.7225 12.6937V19.8317H52.6924V5.61035H55.3847L55.7204 7.7484C56.4493 6.55311 57.5989 5.61035 59.9555 5.61035H59.9576Z" fill="var(--fill-0, #161627)"/>
<path id="Vector_3" d="M43.5127 19.9993C38.9972 19.9993 36.1646 17.11 36.1646 12.7498C36.1646 8.38948 38.9972 5.44335 43.2322 5.44335C47.4672 5.44335 50.1596 8.05488 50.2446 12.2216C50.2446 12.5835 50.2169 12.9707 50.1596 13.36H39.3329V13.5536C39.4179 15.9694 40.9606 17.554 43.3448 17.554C45.1957 17.554 46.5429 16.6365 46.9636 15.054H49.9938C49.4881 17.8592 47.0762 19.9993 43.5148 19.9993H43.5127ZM39.4455 11.1652H47.1039C46.851 9.05446 45.3657 7.85918 43.2619 7.85918C41.3261 7.85918 39.6708 9.13653 39.4476 11.1652H39.4455Z" fill="var(--fill-0, #161627)"/>
<path id="Vector_4" d="M28.2779 5.44447C31.4483 5.44447 34.0556 7.16585 34.0556 11.9175V19.8342H30.9978V12.168C30.9978 9.47436 29.8482 8.02865 27.5766 8.02865C25.1648 8.02865 23.7347 9.77949 23.7347 12.6667V19.8342H20.7045V5.61072H23.3416L23.6773 7.47099C24.5741 6.35988 25.9489 5.44237 28.2779 5.44237V5.44447Z" fill="var(--fill-0, #161627)"/>
<path id="Vector_5" d="M16.2446 3.61111C15.2076 3.61111 14.3938 2.86195 14.3938 1.80556C14.3938 0.749158 15.2076 0 16.2446 0C17.2816 0 18.0954 0.749158 18.0954 1.80556C18.0954 2.86195 17.2816 3.61111 16.2446 3.61111ZM14.7019 19.8338V5.61027H17.7321V19.8317H14.7019V19.8338Z" fill="var(--fill-0, #161627)"/>
<path id="Vector_6" d="M0.00138897 19.8341V0.389642H12.5386V3.22213H3.22707V8.86186H10.913V11.6123H3.22707V19.8341H0.00138897Z" fill="var(--fill-0, #161627)"/>
<path id="Vector_7" d="M67.7302 5.6106V1.63964H64.6745V5.6106H61.5465V8.42415H64.6745V12.3972H67.7302V8.42415H70.8581V5.6106H67.7302Z" fill="var(--fill-0, #C2955D)"/>
<path id="Vector_8" fill-rule="evenodd" clip-rule="evenodd" d="M67.7293 14.2422H64.6715V15.972C64.6715 18.5562 65.8488 19.8335 68.5984 19.8335H71.4034V17.1946H69.2721C68.1225 17.1946 67.7293 16.778 67.7293 15.6668V14.2422Z" fill="var(--fill-0, #C2955D)"/>
</g>
<defs>
<clipPath id="clip0_11026_76725">
<rect width="87" height="20" fill="white"/>
</clipPath>
</defs>
</svg>
