<svg width="196" height="26" viewBox="0 0 196 26" fill="none" xmlns="http://www.w3.org/2000/svg">
<g clip-path="url(#clip0_9012_139034)">
<path d="M68.025 3.27734H65.0775L55.0664 22.7825H57.0805L59.5497 17.764H73.5503L76.0221 22.7825H78.0362L68.025 3.27734ZM67.2106 4.86227L72.7695 16.161H60.3279L65.8972 4.86227H67.208H67.2106Z" fill="#2B2B5C"/>
<path d="M95.8275 3.24805V12.2457C94.3149 9.79976 91.5071 8.45787 87.8667 8.45787C82.3388 8.45787 78.7656 11.3692 78.7656 15.8783C78.7656 20.3875 82.4009 23.2988 87.8124 23.2988C91.4967 23.2988 94.3227 21.9853 95.8275 19.586V22.7817H97.446V3.24805H95.8275ZM95.8559 15.7413V16.1214C95.8559 19.3972 92.6111 21.7759 88.1381 21.7759C83.6652 21.7759 80.5574 19.5161 80.5574 15.8757C80.5574 12.2353 83.3317 9.97557 87.9752 9.97557C92.6188 9.97557 95.8559 12.4008 95.8559 15.7387V15.7413Z" fill="#2B2B5C"/>
<path d="M48.6201 1.62891H29.1641V17.8841H48.6201V1.62891Z" fill="#7855DA"/>
<path d="M182.804 15.4593C182.804 11.9999 180.156 9.25404 176.058 8.46287C174.173 8.09831 171.921 8.09831 170.037 8.46287C165.939 9.25404 163.291 11.9999 163.291 15.4593C163.291 18.9213 165.939 21.6671 170.037 22.4557C170.98 22.6367 172.012 22.7272 173.046 22.7272C174.08 22.7272 175.115 22.6367 176.056 22.4557C179.127 21.8636 181.382 20.1727 182.32 17.9052H178.207C177.214 18.7455 176.025 19.0868 175.448 19.198C173.964 19.4849 172.123 19.4849 170.639 19.198C169.07 18.8954 167.542 18.0862 166.924 16.6822H182.682C182.757 16.2867 182.799 15.8781 182.799 15.4593H182.804ZM167.172 13.7528C168.098 12.3567 169.923 11.8602 170.644 11.7206C172.128 11.4336 173.969 11.4336 175.453 11.7206C176.834 11.9869 178.114 12.6437 178.864 13.7528H167.172Z" fill="#2B2B5C"/>
<path d="M125.055 20.6789L117.849 3.31711L117.813 3.23438H112.846L112.81 3.31711L105.604 20.6789V3.23438H100.668V22.7473H104.743H105.604H109.782L115.328 9.38274L120.876 22.7473H125.055H125.872H125.913H129.99V3.23438H125.055V20.6789Z" fill="#2B2B5C"/>
<path d="M157.978 14.4753C156.863 14.1625 155.307 14.0073 152.975 13.8393C152.76 13.8238 146.981 13.4928 146.379 13.3041C145.927 13.1619 145.559 12.9343 145.559 12.5569C145.559 12.4483 145.588 12.3552 145.637 12.2699C145.671 12.213 145.712 12.1613 145.761 12.1122C146.064 11.8252 146.653 11.6985 147.165 11.6442C147.209 11.6364 147.258 11.6338 147.305 11.6312C147.605 11.6054 152.871 11.608 153.22 11.6312C153.761 11.67 154.415 11.7631 154.968 12.0061C155.485 12.2311 156.051 12.5956 156.07 13.1464H160.4C160.341 9.08968 155.26 8.16406 151.03 8.16406C146.588 8.16406 141.479 8.68634 141.397 12.7689C141.358 14.6563 142.325 15.8896 144.272 16.4351C145.397 16.7506 146.969 16.9057 149.337 17.0764C149.337 17.0764 155.268 17.4202 155.87 17.6064C156.323 17.7486 156.69 17.9761 156.69 18.3536C156.69 18.4596 156.662 18.5553 156.613 18.6406C156.579 18.6975 156.538 18.7492 156.488 18.7957C156.186 19.0827 155.596 19.2094 155.084 19.2637C155.041 19.2689 154.991 19.274 154.945 19.2766C154.642 19.3025 149.06 19.2973 148.447 19.2301C147.848 19.1655 147.186 19.0336 146.648 18.7725C146.183 18.5475 145.686 18.2347 145.676 17.7563H141.34C141.371 19.6257 142.764 22.7386 151.217 22.7386C155.658 22.7386 160.767 22.2164 160.85 18.1364C160.889 16.249 159.922 15.0157 157.975 14.4701L157.978 14.4753Z" fill="#2B2B5C"/>
<path d="M138.135 8.92578H133.199V22.748H138.135V8.92578Z" fill="#2B2B5C"/>
<path d="M138.135 3.23438H133.199V6.52057H138.135V3.23438Z" fill="#2B2B5C"/>
<path d="M29.1629 17.8848H17.8125V26.0007H29.1629V17.8848Z" fill="#7855DA"/>
<path d="M17.8088 11.3496H8.08203V17.8832H17.8088V11.3496Z" fill="#7855DA"/>
<path d="M8.08234 17.8848H0V21.1374H8.08234V17.8848Z" fill="#7855DA"/>
<path d="M189.312 0C185.809 0 183.58 2.68894 183.58 5.77864C183.58 8.86834 185.809 11.5728 189.312 11.5728C192.816 11.5728 195.029 8.88385 195.029 5.77864C195.029 2.67343 192.785 0 189.312 0ZM189.315 10.5308C186.535 10.5308 184.684 8.29177 184.684 5.77605C184.684 3.26034 186.535 1.03938 189.315 1.03938C192.094 1.03938 193.93 3.25776 193.93 5.77605C193.93 8.29435 192.079 10.5308 189.315 10.5308Z" fill="#2B2B5C"/>
<path d="M190.436 6.54899C191.111 6.20511 191.488 5.57425 191.488 4.80635C191.488 3.65837 190.625 2.7793 189.226 2.7793H187.328V8.68721H188.569V6.81788H189.322L190.281 8.65619H191.68L190.438 6.55157L190.436 6.54899ZM189.303 5.57425L188.567 5.58976V4.02035L189.303 4.03586C189.805 4.03586 190.167 4.3332 190.167 4.80635C190.167 5.2795 189.805 5.57683 189.303 5.57683V5.57425Z" fill="#2B2B5C"/>
</g>
<defs>
<clipPath id="clip0_9012_139034">
<rect width="195.028" height="26" fill="white"/>
</clipPath>
</defs>
</svg>
