<svg preserveAspectRatio="none" width="100%" height="100%" overflow="visible" style="display: block;" viewBox="0 0 1502.76 623.701" fill="none" xmlns="http://www.w3.org/2000/svg">
<path id="Union" opacity="0.2" d="M127.087 69.457H252.282V0.00292969H253.282V69.457H393.188V0.00292969H394.188V69.457H496.11V70.457H394.188V232.543H1411.62V233.543H394.188V373.457H1502.76V374.457H394.188V499.748H539.353V500.748H394.188V623.701H393.188V500.748H253.282V623.701H252.282V500.748H192.211V499.748H252.282V374.457H189.649V373.457H252.282V233.543H127.087V539.35H126.087V233.543H0V232.543H126.087V70.457H0.00195312V69.457H126.087V0H127.087V69.457ZM253.282 499.748H393.188V374.457H253.282V499.748ZM253.282 373.457H393.188V233.543H253.282V373.457ZM127.087 70.457V232.543H252.282V70.457H127.087ZM253.282 70.457V232.543H393.188V70.457H253.282Z" fill="url(#paint0_radial_11026_76748)"/>
<defs>
<radialGradient id="paint0_radial_11026_76748" cx="0" cy="0" r="1" gradientTransform="matrix(-493.92 216.748 -289.242 -378.165 626.085 208.982)" gradientUnits="userSpaceOnUse">
<stop stop-color="white"/>
<stop stop-color="white"/>
<stop offset="0.5" stop-color="#8B8B8B"/>
<stop offset="1" stop-color="white"/>
</radialGradient>
</defs>
</svg>
