<svg preserveAspectRatio="none" width="100%" height="100%" overflow="visible" style="display: block;" viewBox="0 0 793.054 623.701" fill="none" xmlns="http://www.w3.org/2000/svg">
<path id="Union" opacity="0.2" d="M127.085 69.459H252.28V0.00292969H253.28V69.459H393.187V0.00292969H394.187V69.459H496.108V70.459H394.187V232.545H744.96V233.545H394.187V373.459H793.054V374.459H394.187V499.748H539.351V500.748H394.187V623.701H393.187V500.748H253.28V623.701H252.28V500.748H192.209V499.748H252.28V374.459H127.085V539.35H126.085V374.459H100.083V373.459H126.085V233.545H0.00195312V232.545H126.085V70.459H0V69.459H126.085V0H127.085V69.459ZM253.28 499.748H393.187V374.459H253.28V499.748ZM127.085 373.459H252.28V233.545H127.085V373.459ZM253.28 373.459H393.187V233.545H253.28V373.459ZM127.085 70.459V232.545H252.28V70.459H127.085ZM253.28 70.459V232.545H393.187V70.459H253.28Z" fill="url(#paint0_radial_11026_76735)"/>
<defs>
<radialGradient id="paint0_radial_11026_76735" cx="0" cy="0" r="1" gradientTransform="matrix(-493.919 216.748 -289.241 -378.165 626.084 208.983)" gradientUnits="userSpaceOnUse">
<stop stop-color="white"/>
<stop stop-color="white"/>
<stop offset="0.5" stop-color="#8B8B8B"/>
<stop offset="1" stop-color="white"/>
</radialGradient>
</defs>
</svg>
