<svg width="156" height="28" viewBox="0 0 156 28" fill="none" xmlns="http://www.w3.org/2000/svg">
<path d="M87.6754 14.2545H93.1266V14.7158C93.1266 15.5927 92.6613 16.5167 91.8805 17.1895C91.1965 17.7785 89.9225 18.4821 87.7444 18.4821C86.0007 18.4821 84.5359 17.9945 83.5056 17.0734C82.5163 16.1877 81.9923 14.9684 81.9923 13.5494C81.9923 12.1305 82.5369 10.8657 83.5658 9.97993C84.6034 9.08682 86.0594 8.61529 87.7752 8.61529C90.969 8.61529 92.5557 10.0783 92.9754 11.4474L92.9931 11.5047L94.0528 11.3314L94.0307 11.2564C93.7519 10.306 93.0767 9.44377 92.13 8.82681C91.0189 8.10263 89.5395 7.7207 87.8516 7.7207C83.7111 7.7207 80.9297 10.0578 80.9297 13.5348C80.9297 17.0117 83.6127 19.3797 87.605 19.3797C90.2117 19.3797 92.1741 18.4616 93.1648 16.787L93.2352 19.0007H94.0939V13.3438H87.674V14.2545H87.6754Z" fill="white"/>
<path d="M101.621 10.9331C99.9566 10.9331 98.6767 11.885 98.1175 13.5052V11.1476H97.209V18.9917H98.1645V16.1332C98.1645 14.6892 98.552 13.5228 99.2844 12.759C99.8641 12.145 100.575 11.8718 101.59 11.8718C102.025 11.8718 102.28 11.885 102.654 11.9628L102.738 11.9805V11.0521L102.684 11.0403C102.245 10.9463 102.011 10.9316 101.622 10.9316L101.621 10.9331Z" fill="white"/>
<path d="M108.441 10.8555C105.25 10.8555 103.105 12.5492 103.105 15.0713C103.105 17.5935 105.25 19.2872 108.441 19.2872C111.632 19.2872 113.761 17.5935 113.761 15.0713C113.761 12.5492 111.623 10.8555 108.441 10.8555ZM112.76 15.0713C112.76 17.1161 111.065 18.4381 108.441 18.4381C105.816 18.4381 104.106 17.1161 104.106 15.0713C104.106 13.0266 105.808 11.7045 108.441 11.7045C111.074 11.7045 112.76 13.0266 112.76 15.0713Z" fill="white"/>
<path d="M124.692 14.7934C124.692 17.3097 122.465 18.4363 120.261 18.4363C117.227 18.4363 116.59 16.5884 116.59 15.0387V11.146H115.609V15.0695C115.609 17.8679 117.137 19.2854 120.151 19.2854C122.365 19.2854 123.97 18.4437 124.709 16.9057V18.9916H125.69V11.1445H124.693V14.7904L124.692 14.7934Z" fill="white"/>
<path d="M137.321 11.9944C136.424 11.2511 135.153 10.8574 133.644 10.8574C131.505 10.8574 129.801 11.6639 129.016 13.0315V11.1497H128.061V21.9993H129.016V17.2444C129.812 18.5106 131.53 19.2877 133.582 19.2877C136.645 19.2877 138.703 17.5998 138.703 15.088C138.703 13.8144 138.225 12.745 137.321 11.9944ZM137.686 15.088C137.686 17.1459 136.042 18.4239 133.397 18.4239C130.752 18.4239 129.001 17.1033 129.001 15.2114V14.9807C129.001 14.0671 129.442 13.2386 130.242 12.6495C131.055 12.0502 132.208 11.7212 133.49 11.7212C136.077 11.7212 137.686 13.0109 137.686 15.088Z" fill="white"/>
<path d="M26.5707 7.9043H10.0234V11.5913H26.5707V7.9043Z" fill="white"/>
<path d="M26.5693 13.8066H10V16.1584H26.5693V13.8066Z" fill="white"/>
<path d="M26.5707 18.1211H10.0234V18.9907H26.5707V18.1211Z" fill="white"/>
<path d="M45.9238 17.8152L41.8332 7.9513L41.8127 7.9043H38.9931L38.9726 7.9513L34.882 17.8152V7.9043H32.0801V18.9904H34.3932H34.882H37.2539L40.4022 11.3974L43.5519 18.9904H45.9238H46.3876H46.4111H48.7257V7.9043H45.9238V17.8152Z" fill="white"/>
<path d="M74.8766 10.8741C73.8066 10.667 72.5282 10.667 71.4582 10.8741C69.1319 11.3236 67.6289 12.8836 67.6289 14.849C67.6289 16.8159 69.1319 18.376 71.4582 18.824C71.994 18.9268 72.5796 18.9782 73.1667 18.9782C73.7538 18.9782 74.3409 18.9268 74.8751 18.824C76.6188 18.4876 77.8987 17.5269 78.4315 16.2387H76.0963C75.5327 16.7161 74.8575 16.91 74.5302 16.9731C73.6877 17.1362 72.6427 17.1362 71.8002 16.9731C70.9093 16.8013 70.0419 16.3415 69.6911 15.5438H78.637C78.6795 15.3191 78.703 15.087 78.703 14.849C78.703 12.8821 77.2 11.3221 74.8737 10.8741H74.8766ZM69.832 13.8795C70.3574 13.0863 71.3937 12.8043 71.8032 12.725C72.6456 12.5619 73.6907 12.5619 74.5332 12.725C75.3169 12.8763 76.0435 13.2494 76.4691 13.8795H69.832Z" fill="white"/>
<path d="M64.6148 14.2908C63.9822 14.113 63.0987 14.0249 61.7748 13.9294C61.6529 13.9206 58.3725 13.7326 58.0305 13.6253C57.7737 13.5445 57.5653 13.4153 57.5653 13.2008C57.5653 13.1391 57.5814 13.0862 57.6093 13.0378C57.6284 13.0054 57.6519 12.9761 57.6798 12.9481C57.8515 12.7851 58.1861 12.7131 58.4767 12.6823C58.5017 12.6779 58.5296 12.6764 58.556 12.6749C58.7263 12.6602 61.716 12.6617 61.9142 12.6749C62.221 12.697 62.5923 12.7498 62.9064 12.8879C63.1999 13.0157 63.5214 13.2228 63.5316 13.5357H65.9901C65.9563 11.231 63.0722 10.7051 60.671 10.7051C58.1494 10.7051 55.2492 11.0018 55.2022 13.3213C55.1802 14.3936 55.7291 15.0943 56.8343 15.4042C57.4728 15.5834 58.3652 15.6716 59.7096 15.7685C59.7096 15.7685 63.0766 15.9639 63.4186 16.0696C63.6755 16.1504 63.8839 16.2797 63.8839 16.4942C63.8839 16.5544 63.8678 16.6087 63.8399 16.6572C63.8208 16.6895 63.7973 16.7189 63.7694 16.7454C63.5977 16.9084 63.263 16.9804 62.9724 17.0112C62.9475 17.0142 62.9196 17.0171 62.8932 17.0186C62.7214 17.0333 59.5526 17.0303 59.2047 16.9921C58.8642 16.9554 58.4885 16.8805 58.1832 16.7321C57.919 16.6043 57.6372 16.4266 57.6313 16.1548H55.1699C55.1875 17.2169 55.9786 18.9855 60.7767 18.9855C63.2983 18.9855 66.1985 18.6888 66.2455 16.3708C66.2675 15.2984 65.7186 14.5978 64.6134 14.2878L64.6148 14.2908Z" fill="white"/>
<path d="M53.3507 11.1367H50.5488V18.9897H53.3507V11.1367Z" fill="white"/>
<path d="M53.3507 7.9043H50.5488V9.77132H53.3507V7.9043Z" fill="white"/>
<path d="M142.371 6C140.382 6 139.117 7.5277 139.117 9.28308C139.117 11.0385 140.382 12.575 142.371 12.575C144.36 12.575 145.616 11.0473 145.616 9.28308C145.616 7.51888 144.342 6 142.371 6ZM142.371 11.983C140.793 11.983 139.742 10.7109 139.742 9.28161C139.742 7.85233 140.793 6.59051 142.371 6.59051C143.949 6.59051 144.991 7.85086 144.991 9.28161C144.991 10.7124 143.94 11.983 142.371 11.983Z" fill="white"/>
<path d="M143.008 9.71984C143.391 9.52447 143.606 9.16605 143.606 8.72977C143.606 8.07756 143.116 7.57812 142.321 7.57812H141.244V10.9346H141.949V9.87261H142.376L142.92 10.917H143.714L143.01 9.72131L143.008 9.71984ZM142.365 9.16605L141.947 9.17486V8.28322L142.365 8.29203C142.65 8.29203 142.856 8.46096 142.856 8.72977C142.856 8.99859 142.65 9.16752 142.365 9.16752V9.16605Z" fill="white"/>
</svg>
